<svg width="25" height="26" viewBox="0 0 25 26" fill="none" xmlns="http://www.w3.org/2000/svg">
<g id="Union">
<path d="M7.42194 0.5C8.06914 0.500011 8.5938 1.02463 8.59379 1.67177L8.59375 4.01527C8.59374 4.6624 8.06906 5.18701 7.42185 5.18699C6.77465 5.18698 6.24999 4.66236 6.25 4.01523L6.25004 1.67173C6.25005 1.02459 6.77473 0.499989 7.42194 0.5Z" fill="#495057"/>
<path d="M17.5782 0.5C18.2254 0.500011 18.7501 1.02463 18.75 1.67177L18.75 4.01527C18.75 4.6624 18.2253 5.18701 17.5781 5.18699C16.9309 5.18698 16.4062 4.66236 16.4062 4.01523L16.4063 1.67173C16.4063 1.02459 16.931 0.499989 17.5782 0.5Z" fill="#495057"/>
<path d="M0 6.36144C0 3.9886 1.92378 2.06503 4.29688 2.06503C4.94408 2.06503 5.46875 2.58964 5.46875 3.23678C5.46875 3.88392 4.94408 4.40853 4.29688 4.40853C3.21819 4.40853 2.34375 5.28288 2.34375 6.36144V21.2036C2.34375 22.2822 3.21819 23.1565 4.29688 23.1565H20.7031C21.7818 23.1565 22.6562 22.2822 22.6562 21.2036V6.36144C22.6562 5.28288 21.7818 4.40853 20.7031 4.40853C20.0559 4.40853 19.5312 3.88392 19.5312 3.23678C19.5312 2.58964 20.0559 2.06503 20.7031 2.06503C23.0762 2.06503 25 3.9886 25 6.36144V21.2036C25 23.5764 23.0762 25.5 20.7031 25.5H4.29688C1.92378 25.5 0 23.5764 0 21.2036V6.36144Z" fill="#495057"/>
<path d="M9.375 3.23678C9.375 2.58964 9.89967 2.06503 10.5469 2.06503H14.4531C15.1003 2.06503 15.625 2.58964 15.625 3.23678C15.625 3.88392 15.1003 4.40853 14.4531 4.40853H10.5469C9.89967 4.40853 9.375 3.88392 9.375 3.23678Z" fill="#495057"/>
<path d="M7.8125 14.5622C7.8125 15.4257 7.11294 16.1257 6.25 16.1257C5.38706 16.1257 4.6875 15.4257 4.6875 14.5622C4.6875 13.6987 5.38706 12.9987 6.25 12.9987C7.11294 12.9987 7.8125 13.6987 7.8125 14.5622Z" fill="#495057"/>
<path d="M6.25 20.8115C7.11294 20.8115 7.8125 20.1114 7.8125 19.2479C7.8125 18.3844 7.11294 17.6844 6.25 17.6844C5.38706 17.6844 4.6875 18.3844 4.6875 19.2479C4.6875 20.1114 5.38706 20.8115 6.25 20.8115Z" fill="#495057"/>
<path d="M14.0625 9.87518C14.0625 10.7387 13.3629 11.4387 12.5 11.4387C11.6371 11.4387 10.9375 10.7387 10.9375 9.87518C10.9375 9.01167 11.6371 8.31166 12.5 8.31166C13.3629 8.31166 14.0625 9.01167 14.0625 9.87518Z" fill="#495057"/>
<path d="M12.5 16.1257C13.3629 16.1257 14.0625 15.4257 14.0625 14.5622C14.0625 13.6987 13.3629 12.9987 12.5 12.9987C11.6371 12.9987 10.9375 13.6987 10.9375 14.5622C10.9375 15.4257 11.6371 16.1257 12.5 16.1257Z" fill="#495057"/>
<path d="M14.0625 19.2479C14.0625 20.1114 13.3629 20.8115 12.5 20.8115C11.6371 20.8115 10.9375 20.1114 10.9375 19.2479C10.9375 18.3844 11.6371 17.6844 12.5 17.6844C13.3629 17.6844 14.0625 18.3844 14.0625 19.2479Z" fill="#495057"/>
<path d="M18.75 11.4387C19.6129 11.4387 20.3125 10.7387 20.3125 9.87518C20.3125 9.01167 19.6129 8.31166 18.75 8.31166C17.8871 8.31166 17.1875 9.01167 17.1875 9.87518C17.1875 10.7387 17.8871 11.4387 18.75 11.4387Z" fill="#495057"/>
<path d="M20.3125 14.5622C20.3125 15.4257 19.6129 16.1257 18.75 16.1257C17.8871 16.1257 17.1875 15.4257 17.1875 14.5622C17.1875 13.6987 17.8871 12.9987 18.75 12.9987C19.6129 12.9987 20.3125 13.6987 20.3125 14.5622Z" fill="#495057"/>
<path d="M18.75 20.8115C19.6129 20.8115 20.3125 20.1114 20.3125 19.2479C20.3125 18.3844 19.6129 17.6844 18.75 17.6844C17.8871 17.6844 17.1875 18.3844 17.1875 19.2479C17.1875 20.1114 17.8871 20.8115 18.75 20.8115Z" fill="#495057"/>
</g>
</svg>
