<svg width="31" height="32" viewBox="0 0 31 32" fill="none" xmlns="http://www.w3.org/2000/svg">
<path id="Vector (Stroke)" fill-rule="evenodd" clip-rule="evenodd" d="M9.2032 2.24716e-10C10.0057 1.41846e-05 10.6563 0.671526 10.6563 1.49986L10.6562 4.49954C10.6562 5.32788 10.0056 5.99937 9.2031 5.99935C8.40056 5.99934 7.74999 5.32783 7.75 4.49949L7.75005 1.49981C7.75006 0.671475 8.40066 -1.41841e-05 9.2032 2.24716e-10ZM21.7969 2.24716e-10C22.5995 1.41846e-05 23.2501 0.671526 23.25 1.49986L23.25 4.49954C23.25 5.32788 22.5994 5.99937 21.7969 5.99935C20.9943 5.99934 20.3437 5.32783 20.3438 4.49949L20.3438 1.49981C20.3438 0.671475 20.9944 -1.41841e-05 21.7969 2.24716e-10ZM0 7.50264C0 4.46541 2.38548 2.00324 5.32812 2.00324C6.13066 2.00324 6.78125 2.67474 6.78125 3.50308C6.78125 4.33142 6.13066 5.00292 5.32812 5.00292C3.99056 5.00292 2.90625 6.12208 2.90625 7.50264V9.49897H28.0938V7.50265C28.0938 6.12208 27.0094 5.00292 25.6719 5.00292C24.8693 5.00292 24.2188 4.33142 24.2188 3.50308C24.2188 2.67474 24.8693 2.00324 25.6719 2.00324C28.6145 2.00324 31 4.46541 31 7.50265V26.5006C31 29.5378 28.6145 32 25.6719 32H5.32813C2.38548 32 0 29.5378 0 26.5006V7.50264ZM28.0938 12.4986H2.90625V26.5006C2.90625 27.8812 3.99056 29.0003 5.32813 29.0003H25.6719C27.0094 29.0003 28.0938 27.8812 28.0938 26.5006V12.4986ZM11.625 3.50308C11.625 2.67474 12.2756 2.00324 13.0781 2.00324H17.9219C18.7244 2.00324 19.375 2.67474 19.375 3.50308C19.375 4.33142 18.7244 5.00292 17.9219 5.00292H13.0781C12.2756 5.00292 11.625 4.33142 11.625 3.50308ZM11.625 16.2136C11.625 15.3853 12.2756 14.7138 13.0781 14.7138H17.9219C18.4034 14.7138 18.8536 14.9599 19.124 15.3711C19.3945 15.7822 19.4501 16.3049 19.2725 16.7668L15.8127 25.7658C15.5167 26.5358 14.672 26.9122 13.9261 26.6067C13.1801 26.3012 12.8154 25.4294 13.1114 24.6594L15.7819 17.7134H13.0781C12.2756 17.7134 11.625 17.0419 11.625 16.2136Z" fill="#495057"/>
</svg>
