<svg width="29" height="29" viewBox="0 0 29 29" fill="none" xmlns="http://www.w3.org/2000/svg">
<path fill-rule="evenodd" clip-rule="evenodd" d="M14.4999 27.7916C7.15913 27.7916 1.20825 21.8408 1.20825 14.5C1.20825 7.15919 7.15913 1.20831 14.4999 1.20831C21.8407 1.20831 27.7916 7.15919 27.7916 14.5C27.7916 21.8408 21.8407 27.7916 14.4999 27.7916ZM14.4999 25.375C20.506 25.375 25.3749 20.5061 25.3749 14.5C25.3749 8.49388 20.506 3.62498 14.4999 3.62498C8.49382 3.62498 3.62492 8.49388 3.62492 14.5C3.62492 20.5061 8.49382 25.375 14.4999 25.375ZM20.1877 12.9377L18.4788 11.2289L14.4999 15.2078L10.521 11.2289L8.81216 12.9377L14.4999 18.6255L20.1877 12.9377Z" fill="#495057"/>
</svg>
