<svg xmlns="http://www.w3.org/2000/svg" width="36" height="31" viewBox="0 0 36 31" fill="none">
<path fill-rule="evenodd" clip-rule="evenodd" d="M20.4821 3.32143L6.08929 3.32143C4.56064 3.32143 3.32143 4.56064 3.32143 6.08929L3.32143 24.9107C3.32143 26.4394 4.56064 27.6786 6.08929 27.6786H20.4821C21.3993 27.6786 22.1429 28.4221 22.1429 29.3393C22.1429 30.2565 21.3993 31 20.4821 31H6.08929C2.72627 31 9.23872e-07 28.2737 7.9189e-07 24.9107L0 6.08929C-1.31982e-07 2.72627 2.72627 7.9189e-07 6.08929 6.59909e-07L20.4821 0C21.3993 0 22.1429 0.743527 22.1429 1.66071C22.1429 2.5779 21.3993 3.32143 20.4821 3.32143ZM26.4995 8.23641C27.1481 7.58786 28.1996 7.58786 28.8481 8.23641L34.9374 14.3257C35.2488 14.6371 35.4238 15.0596 35.4238 15.5C35.4238 15.9404 35.2488 16.3629 34.9374 16.6743L28.8481 22.7636C28.1996 23.4121 27.1481 23.4121 26.4995 22.7636C25.851 22.115 25.851 21.0635 26.4995 20.415L29.7538 17.1607L10.5185 17.1607C9.60133 17.1607 8.8578 16.4172 8.8578 15.5C8.8578 14.5828 9.60133 13.8393 10.5185 13.8393L29.7538 13.8393L26.4995 10.585C25.851 9.93647 25.851 8.88496 26.4995 8.23641Z" fill="white"/>
</svg>