<svg version="1.1" id="Layer_1" xmlns="http://www.w3.org/2000/svg" xmlns:xlink="http://www.w3.org/1999/xlink" x="0px" y="0px"
	 width="100%" viewBox="0 0 1031 193" enable-background="new 0 0 1031 193" xml:space="preserve">
<path fill="transparent" opacity="1.000000" stroke="none" 
	d="
M1032.000000,113.000000 
	C1032.000000,139.984360 1032.000000,166.968719 1032.000000,194.000000 
	C809.311340,194.000000 586.622620,194.000000 363.501404,193.635864 
	C368.264862,181.083450 373.468567,168.898468 378.655182,156.706238 
	C387.796875,135.216522 396.900787,113.710678 406.071686,92.233437 
	C414.647644,72.149414 423.289978,52.093723 431.977203,32.487534 
	C432.051331,68.858429 432.051331,104.767357 432.051331,140.622559 
	C461.102020,140.622559 489.354980,140.622559 517.575073,140.622559 
	C517.575073,131.288208 517.575073,122.255699 517.575073,112.891998 
	C500.537384,112.891998 483.927917,112.891998 467.133301,112.891998 
	C467.133301,102.818726 467.133301,93.092644 467.133301,82.850220 
	C482.142059,82.850220 496.877411,82.850220 511.740570,82.850220 
	C511.740570,73.879860 511.740570,65.425224 511.748138,56.764481 
	C511.588684,56.241116 511.355713,56.181477 510.593262,56.287582 
	C495.774994,56.195717 481.420288,56.195717 467.192017,56.195717 
	C467.192017,46.622910 467.192017,37.906647 467.192017,28.941093 
	C484.103241,28.941093 500.674316,28.941093 517.213623,29.332905 
	C520.505188,39.367023 523.763672,49.032269 527.164307,58.647240 
	C536.446960,84.892860 545.849609,111.096321 555.024963,137.379242 
	C556.057617,140.337219 557.533508,141.026001 560.383911,140.976883 
	C569.375122,140.821976 578.370728,140.919800 587.364624,140.919800 
	C598.411438,140.919815 598.409058,140.918869 602.434021,130.828415 
	C602.861389,129.757019 603.394348,128.725220 603.780518,127.640251 
	C614.771729,96.757439 625.760620,65.873802 636.704102,34.974079 
	C637.317078,33.243217 637.538330,31.373648 637.987183,29.366400 
	C625.350220,29.366400 613.400452,29.366400 601.416565,29.366400 
	C593.582214,55.025375 585.805725,80.495018 577.744934,106.895645 
	C569.937256,81.554230 562.322449,57.370716 555.174500,33.050018 
	C554.134705,29.512062 552.665100,29.093367 549.718994,29.110815 
	C539.061279,29.173931 528.402649,29.083155 517.821533,28.584122 
	C517.932556,19.078522 517.966248,10.039261 518.000000,1.000000 
	C689.212708,1.000000 860.425476,1.000000 1032.000000,1.000000 
	C1032.000000,35.021156 1032.000000,69.043594 1031.642090,103.364784 
	C1030.352173,94.645721 1025.988770,87.554955 1018.218750,83.159531 
	C1012.964050,80.186951 1007.137512,78.088089 1001.372437,76.187843 
	C993.256042,73.512497 984.828491,71.740768 976.819763,68.803436 
	C974.402588,67.916878 971.832581,64.638283 971.382996,62.093208 
	C971.029663,60.092976 973.285645,56.466385 975.331848,55.421970 
	C981.978638,52.029327 994.845642,53.078999 998.264160,63.354317 
	C998.624084,64.436020 1000.141052,65.866737 1001.145386,65.886269 
	C1010.934326,66.076607 1020.728333,66.000816 1030.477905,66.000816 
	C1031.236694,55.751766 1024.178467,42.489532 1014.880554,36.146690 
	C998.334900,24.859509 969.382080,24.768652 952.644592,36.119961 
	C940.646057,44.257442 936.780701,55.993698 939.266113,69.756348 
	C941.328613,81.176872 949.465027,87.651741 959.885193,91.134003 
	C970.649048,94.731148 981.675415,97.536026 992.514038,100.920776 
	C996.065002,102.029686 999.515869,104.137428 998.934814,108.547035 
	C998.359253,112.914726 995.248169,115.384399 990.878418,116.142845 
	C977.546082,118.456909 971.390686,112.570480 968.874878,104.235535 
	C957.731995,104.235535 946.613892,104.235535 934.986145,104.235535 
	C936.405396,117.784760 942.774780,127.712929 954.206238,134.402740 
	C967.950500,142.446014 982.925659,144.243362 998.279846,141.640091 
	C1009.317139,139.768753 1019.809692,135.767242 1026.322754,125.754250 
	C1028.828613,121.901848 1030.142822,117.274338 1032.000000,113.000000 
M702.464661,29.043682 
	C693.397705,29.074583 684.133484,27.923502 675.307373,29.396927 
	C659.750732,31.993925 647.632019,40.488392 640.152649,54.861397 
	C632.891357,68.815582 631.427917,83.654221 634.336548,98.795197 
	C637.861755,117.145981 647.894775,130.754166 665.600342,138.048737 
	C678.420044,143.330353 691.585022,143.764435 704.953064,140.815842 
	C722.404907,136.966492 739.551270,121.269493 742.333069,103.204338 
	C730.979004,103.204338 719.656921,103.116135 708.340088,103.318626 
	C706.962158,103.343269 705.140320,104.618416 704.327026,105.845917 
	C699.642029,112.916870 690.885193,115.726974 681.997559,113.158791 
	C673.318237,110.650780 667.512146,100.961227 668.340698,93.766953 
	C693.665039,93.766953 719.059265,93.766953 744.371338,93.766953 
	C748.826782,60.276653 733.105408,35.765442 702.464661,29.043682 
M826.994751,132.445892 
	C826.994751,135.197891 826.994751,137.949890 826.994751,140.653488 
	C838.693420,140.653488 849.619141,140.653488 860.446350,140.653488 
	C860.676208,140.101456 860.905212,139.808365 860.905151,139.515320 
	C860.903015,115.366173 861.319885,91.205269 860.669983,67.073120 
	C860.369690,55.920910 855.924011,45.411385 847.127014,38.213963 
	C832.314270,26.094669 815.531006,24.944693 798.295471,32.647701 
	C793.542297,34.772057 789.483521,38.449883 784.673523,41.707890 
	C784.673523,37.392475 784.673523,33.457973 784.673523,29.434586 
	C773.056458,29.434586 761.820801,29.434586 750.393982,29.434586 
	C750.393982,66.610725 750.393982,103.502007 750.393982,140.522690 
	C761.994995,140.522690 773.348694,140.522690 784.918274,140.522690 
	C784.918274,138.306503 784.918274,136.483292 784.918274,134.660080 
	C784.918518,116.504677 784.800659,98.348297 784.949707,80.194115 
	C785.124146,58.946651 803.863281,52.400146 817.708008,60.780823 
	C825.223938,65.330429 826.793884,73.088028 826.915588,80.990288 
	C827.174622,97.809196 826.994751,114.634865 826.994751,132.445892 
M934.792114,47.467213 
	C934.792114,41.518112 934.792114,35.569012 934.792114,28.994577 
	C926.933655,28.994577 919.564270,28.994577 911.828918,28.994577 
	C911.828918,19.769796 911.828918,11.179285 911.828918,2.499165 
	C900.379578,2.499165 889.335876,2.499165 877.912476,2.499165 
	C877.912476,11.443007 877.912476,20.045835 877.912476,29.230272 
	C873.163025,29.230272 868.772400,29.230272 864.355103,29.230272 
	C864.355103,39.071129 864.355103,48.317009 864.355103,58.131050 
	C869.001099,58.131050 873.389221,58.131050 878.071960,58.131050 
	C878.071960,75.502480 877.666260,92.315926 878.205688,109.098999 
	C878.607178,121.590759 883.906555,131.503403 896.087891,136.968216 
	C908.624573,142.592438 921.639404,140.472153 934.503479,140.855927 
	C934.503479,130.591965 934.503479,121.024025 934.503479,111.146278 
	C929.520203,111.146278 924.879517,111.154785 920.238831,111.143776 
	C915.997742,111.133713 913.008606,109.245743 912.852539,104.843079 
	C912.411804,92.407249 912.253723,79.961189 912.013489,67.518600 
	C911.953735,64.424805 912.004517,61.328869 912.004517,57.803299 
	C919.927246,57.803299 927.169495,57.803299 934.791992,57.803299 
	C934.791992,54.388100 934.791992,51.419720 934.792114,47.467213 
z"/>
<path fill="transparent" opacity="1.000000" stroke="none" 
	d="
M87.000000,1.000000 
	C201.687561,1.000000 316.375122,1.000000 431.565460,1.467618 
	C432.013184,10.948325 431.958130,19.961414 431.440552,28.983025 
	C420.313507,28.994459 409.648102,29.072699 398.985016,28.950653 
	C396.091187,28.917530 394.582977,29.739618 393.532715,32.674835 
	C387.888763,48.447918 381.984650,64.127991 376.157471,79.835403 
	C374.208557,85.088898 372.221710,90.328339 369.970337,96.324821 
	C369.027802,94.795677 368.688843,94.405579 368.522064,93.952156 
	C362.338623,77.140999 356.094330,60.351646 350.024780,43.499367 
	C344.814301,29.032223 344.903778,29.000000 329.733398,29.000000 
	C328.400330,29.000000 327.067261,29.000000 325.734192,29.000000 
	C319.303497,29.000000 312.872833,29.000000 305.326080,29.000000 
	C307.367096,33.742512 309.003967,37.465168 310.577301,41.214481 
	C323.542847,72.112091 336.514252,103.007286 349.394684,133.940353 
	C349.957672,135.292404 350.196655,137.231186 349.663361,138.512329 
	C346.857330,145.253098 343.733154,151.860809 340.758850,158.532288 
	C335.490967,170.348190 330.251404,182.176743 325.000000,194.000000 
	C216.999985,194.000000 108.999969,194.000000 1.000000,194.000000 
	C1.000000,176.563705 1.000000,159.250519 1.468657,141.468658 
	C28.410486,141.000000 54.884762,140.876633 81.355797,141.114304 
	C86.091019,141.156830 87.370293,139.690475 87.086090,135.206512 
	C86.728722,129.568237 86.749901,123.875343 87.082771,118.234055 
	C87.328102,114.076347 85.975769,112.831352 81.795273,112.906433 
	C67.980385,113.154564 54.157200,113.076324 40.340485,112.885536 
	C38.890564,112.865517 36.245056,111.310989 36.212921,110.396103 
	C35.899391,101.471062 36.024178,92.530624 36.024178,82.831100 
	C51.332733,82.831100 66.012634,82.831100 80.999680,82.831100 
	C80.999680,74.908630 80.790298,67.752495 81.083130,60.616970 
	C81.242790,56.726643 79.781303,55.867119 76.179100,55.925972 
	C64.194435,56.121780 52.203327,55.904190 40.217529,56.061485 
	C36.946709,56.104408 35.820442,55.057018 35.940849,51.780289 
	C36.154694,45.960724 36.232620,40.115154 35.920635,34.304455 
	C35.702911,30.249302 36.844841,28.768238 41.135052,28.902802 
	C50.948788,29.210611 60.778782,29.000036 70.602173,29.000004 
	C75.873085,28.999987 81.143997,29.000000 87.000000,29.000000 
	C87.000000,19.222446 87.000000,10.111223 87.000000,1.000000 
M208.000000,40.519989 
	C208.000000,36.780609 208.000000,33.041229 208.000000,29.449207 
	C195.812744,29.449207 184.584778,29.449207 172.946396,29.449207 
	C172.946396,33.971172 172.946396,38.050388 172.946396,42.375626 
	C168.900574,39.136017 165.441238,35.906574 161.544632,33.341324 
	C153.370361,27.959970 144.072098,27.557539 134.647537,27.986490 
	C122.181320,28.553883 111.275314,33.457588 103.858551,43.047623 
	C85.656204,66.583656 85.123779,92.386078 97.917198,118.398064 
	C106.054268,134.942612 120.927757,142.537369 138.902588,142.804047 
	C151.996765,142.998337 163.794907,138.452072 173.127045,126.536781 
	C173.127045,132.077271 173.127045,136.284851 173.127045,140.660004 
	C184.957016,140.660004 196.181244,140.660004 207.250092,140.660004 
	C207.556885,140.036102 207.823364,139.746826 207.824005,139.456970 
	C207.895508,106.808929 207.947205,74.160835 208.000000,40.519989 
M261.587799,71.021423 
	C258.696594,69.787659 255.545822,68.944916 252.970520,67.235321 
	C248.223511,64.084061 249.136459,57.586716 254.384979,55.348042 
	C263.502319,51.459183 272.031464,54.688236 276.865784,63.721317 
	C277.379486,64.681190 278.632233,65.873337 279.558929,65.887894 
	C289.508789,66.044182 299.462006,65.985207 309.647675,65.985207 
	C307.987732,48.397362 299.351959,36.241673 283.251099,31.011415 
	C275.126770,28.372282 265.979858,28.246599 257.282776,28.153351 
	C244.145233,28.012495 232.494980,32.357605 223.762985,42.760117 
	C213.143188,55.411568 214.350479,78.808441 229.255783,86.483482 
	C238.266083,91.123077 248.390717,93.611801 258.043121,96.985558 
	C262.724182,98.621719 267.714203,99.590553 272.084961,101.806908 
	C274.275635,102.917786 276.246643,105.961716 276.790039,108.463104 
	C277.568481,112.046577 274.603394,113.958168 271.458191,115.257927 
	C262.409393,118.997398 253.415894,115.502098 248.613663,106.431519 
	C248.077866,105.419487 246.779846,104.141724 245.817963,104.127075 
	C235.063538,103.963371 224.305710,104.023720 213.380539,104.023720 
	C214.590195,117.967735 221.437012,127.454323 232.550186,134.346481 
	C240.502426,139.278290 249.101517,141.296951 258.359436,142.222443 
	C270.577942,143.443909 282.188782,142.105865 293.005310,136.409729 
	C306.260498,129.429352 311.662506,117.964806 309.942291,103.276947 
	C308.543671,91.335114 301.094910,83.795456 290.343750,79.784286 
	C281.221375,76.380806 271.705475,74.032120 261.587799,71.021423 
z"/>
<path fill="#D1E2F3" opacity="1.000000" stroke="none" 
	d="
M325.468658,194.000000 
	C330.251404,182.176743 335.490967,170.348190 340.758850,158.532288 
	C343.733154,151.860809 346.857330,145.253098 349.663361,138.512329 
	C350.196655,137.231186 349.957672,135.292404 349.394684,133.940353 
	C336.514252,103.007286 323.542847,72.112091 310.577301,41.214481 
	C309.003967,37.465168 307.367096,33.742512 305.326080,29.000000 
	C312.872833,29.000000 319.303497,29.000000 325.734192,29.000000 
	C327.067261,29.000000 328.400330,29.000000 329.733398,29.000000 
	C344.903778,29.000000 344.814301,29.032223 350.024780,43.499367 
	C356.094330,60.351646 362.338623,77.140999 368.522064,93.952156 
	C368.688843,94.405579 369.027802,94.795677 369.970337,96.324821 
	C372.221710,90.328339 374.208557,85.088898 376.157471,79.835403 
	C381.984650,64.127991 387.888763,48.447918 393.532715,32.674835 
	C394.582977,29.739618 396.091187,28.917530 398.985016,28.950653 
	C409.648102,29.072699 420.313507,28.994459 431.514404,29.360941 
	C432.001556,30.495411 431.952332,31.260487 431.903076,32.025566 
	C423.289978,52.093723 414.647644,72.149414 406.071686,92.233437 
	C396.900787,113.710678 387.796875,135.216522 378.655182,156.706238 
	C373.468567,168.898468 368.264862,181.083450 363.034424,193.635864 
	C350.645782,194.000000 338.291534,194.000000 325.468658,194.000000 
z"/>
<path fill="#D1E2F3" opacity="1.000000" stroke="none" 
	d="
M86.531342,1.000000 
	C87.000000,10.111223 87.000000,19.222446 87.000000,29.000000 
	C81.143997,29.000000 75.873085,28.999987 70.602173,29.000004 
	C60.778782,29.000036 50.948788,29.210611 41.135052,28.902802 
	C36.844841,28.768238 35.702911,30.249302 35.920635,34.304455 
	C36.232620,40.115154 36.154694,45.960724 35.940849,51.780289 
	C35.820442,55.057018 36.946709,56.104408 40.217529,56.061485 
	C52.203327,55.904190 64.194435,56.121780 76.179100,55.925972 
	C79.781303,55.867119 81.242790,56.726643 81.083130,60.616970 
	C80.790298,67.752495 80.999680,74.908630 80.999680,82.831100 
	C66.012634,82.831100 51.332733,82.831100 36.024178,82.831100 
	C36.024178,92.530624 35.899391,101.471062 36.212921,110.396103 
	C36.245056,111.310989 38.890564,112.865517 40.340485,112.885536 
	C54.157200,113.076324 67.980385,113.154564 81.795273,112.906433 
	C85.975769,112.831352 87.328102,114.076347 87.082771,118.234055 
	C86.749901,123.875343 86.728722,129.568237 87.086090,135.206512 
	C87.370293,139.690475 86.091019,141.156830 81.355797,141.114304 
	C54.884762,140.876633 28.410486,141.000000 1.468657,141.000000 
	C1.000000,94.423836 1.000000,47.847668 1.000000,1.000000 
	C29.353649,1.000000 57.708168,1.000000 86.531342,1.000000 
z"/>
<path fill="#3572AD" opacity="1.000000" stroke="none" 
	d="
M431.977234,32.487530 
	C431.952332,31.260487 432.001556,30.495411 431.976929,29.352421 
	C431.958130,19.961414 432.013184,10.948325 432.034119,1.467618 
	C460.354218,1.000000 488.708466,1.000000 517.531372,1.000000 
	C517.966248,10.039261 517.932556,19.078522 517.697021,28.556406 
	C517.495300,28.995029 517.245422,28.941093 517.245422,28.941093 
	C500.674316,28.941093 484.103241,28.941093 467.192017,28.941093 
	C467.192017,37.906647 467.192017,46.622910 467.192017,56.195717 
	C481.420288,56.195717 495.774994,56.195717 510.679199,56.415615 
	C511.370483,56.791176 511.541138,56.902866 511.740570,56.970592 
	C511.740570,65.425224 511.740570,73.879860 511.740570,82.850220 
	C496.877411,82.850220 482.142059,82.850220 467.133301,82.850220 
	C467.133301,93.092644 467.133301,102.818726 467.133301,112.891998 
	C483.927917,112.891998 500.537384,112.891998 517.575073,112.891998 
	C517.575073,122.255699 517.575073,131.288208 517.575073,140.622559 
	C489.354980,140.622559 461.102020,140.622559 432.051331,140.622559 
	C432.051331,104.767357 432.051331,68.858429 431.977234,32.487530 
z"/>
<path fill="transparent" opacity="1.000000" stroke="none" 
	d="
M1032.000000,112.550026 
	C1030.142822,117.274338 1028.828613,121.901848 1026.322754,125.754250 
	C1019.809692,135.767242 1009.317139,139.768753 998.279846,141.640091 
	C982.925659,144.243362 967.950500,142.446014 954.206238,134.402740 
	C942.774780,127.712929 936.405396,117.784760 934.986145,104.235535 
	C946.613892,104.235535 957.731995,104.235535 968.874878,104.235535 
	C971.390686,112.570480 977.546082,118.456909 990.878418,116.142845 
	C995.248169,115.384399 998.359253,112.914726 998.934814,108.547035 
	C999.515869,104.137428 996.065002,102.029686 992.514038,100.920776 
	C981.675415,97.536026 970.649048,94.731148 959.885193,91.134003 
	C949.465027,87.651741 941.328613,81.176872 939.266113,69.756348 
	C936.780701,55.993698 940.646057,44.257442 952.644592,36.119961 
	C969.382080,24.768652 998.334900,24.859509 1014.880554,36.146690 
	C1024.178467,42.489532 1031.236694,55.751766 1030.477905,66.000816 
	C1020.728333,66.000816 1010.934326,66.076607 1001.145386,65.886269 
	C1000.141052,65.866737 998.624084,64.436020 998.264160,63.354317 
	C994.845642,53.078999 981.978638,52.029327 975.331848,55.421970 
	C973.285645,56.466385 971.029663,60.092976 971.382996,62.093208 
	C971.832581,64.638283 974.402588,67.916878 976.819763,68.803436 
	C984.828491,71.740768 993.256042,73.512497 1001.372437,76.187843 
	C1007.137512,78.088089 1012.964050,80.186951 1018.218750,83.159531 
	C1025.988770,87.554955 1030.352173,94.645721 1031.642090,103.831772 
	C1032.000000,106.700012 1032.000000,109.400032 1032.000000,112.550026 
z"/>
<path fill="#3673AD" opacity="1.000000" stroke="none" 
	d="
M702.894897,29.075272 
	C733.105408,35.765442 748.826782,60.276653 744.371338,93.766953 
	C719.059265,93.766953 693.665039,93.766953 668.340698,93.766953 
	C667.512146,100.961227 673.318237,110.650780 681.997559,113.158791 
	C690.885193,115.726974 699.642029,112.916870 704.327026,105.845917 
	C705.140320,104.618416 706.962158,103.343269 708.340088,103.318626 
	C719.656921,103.116135 730.979004,103.204338 742.333069,103.204338 
	C739.551270,121.269493 722.404907,136.966492 704.953064,140.815842 
	C691.585022,143.764435 678.420044,143.330353 665.600342,138.048737 
	C647.894775,130.754166 637.861755,117.145981 634.336548,98.795197 
	C631.427917,83.654221 632.891357,68.815582 640.152649,54.861397 
	C647.632019,40.488392 659.750732,31.993925 675.307373,29.396927 
	C684.133484,27.923502 693.397705,29.074583 702.894897,29.075272 
M668.276917,72.118668 
	C668.718628,72.761719 669.087158,73.877869 669.615784,73.959694 
	C671.244507,74.211777 672.934387,74.077271 674.600464,74.077652 
	C686.048645,74.080299 697.496887,74.079048 708.897156,74.079048 
	C709.452332,65.106773 703.231812,57.542709 693.943604,56.076443 
	C682.879761,54.329861 671.649780,59.133034 668.276917,72.118668 
z"/>
<path fill="#3572AD" opacity="1.000000" stroke="none" 
	d="
M826.994751,131.951828 
	C826.994751,114.634865 827.174622,97.809196 826.915588,80.990288 
	C826.793884,73.088028 825.223938,65.330429 817.708008,60.780823 
	C803.863281,52.400146 785.124146,58.946651 784.949707,80.194115 
	C784.800659,98.348297 784.918518,116.504677 784.918274,134.660080 
	C784.918274,136.483292 784.918274,138.306503 784.918274,140.522690 
	C773.348694,140.522690 761.994995,140.522690 750.393982,140.522690 
	C750.393982,103.502007 750.393982,66.610725 750.393982,29.434586 
	C761.820801,29.434586 773.056458,29.434586 784.673523,29.434586 
	C784.673523,33.457973 784.673523,37.392475 784.673523,41.707890 
	C789.483521,38.449883 793.542297,34.772057 798.295471,32.647701 
	C815.531006,24.944693 832.314270,26.094669 847.127014,38.213963 
	C855.924011,45.411385 860.369690,55.920910 860.669983,67.073120 
	C861.319885,91.205269 860.903015,115.366173 860.905151,139.515320 
	C860.905212,139.808365 860.676208,140.101456 860.446350,140.653488 
	C849.619141,140.653488 838.693420,140.653488 826.994751,140.653488 
	C826.994751,137.949890 826.994751,135.197891 826.994751,131.951828 
z"/>
<path fill="#3573AD" opacity="1.000000" stroke="none" 
	d="
M517.213623,29.332905 
	C517.245422,28.941093 517.495300,28.995029 517.619812,29.022747 
	C528.402649,29.083155 539.061279,29.173931 549.718994,29.110815 
	C552.665100,29.093367 554.134705,29.512062 555.174500,33.050018 
	C562.322449,57.370716 569.937256,81.554230 577.744934,106.895645 
	C585.805725,80.495018 593.582214,55.025375 601.416565,29.366400 
	C613.400452,29.366400 625.350220,29.366400 637.987183,29.366400 
	C637.538330,31.373648 637.317078,33.243217 636.704102,34.974079 
	C625.760620,65.873802 614.771729,96.757439 603.780518,127.640251 
	C603.394348,128.725220 602.861389,129.757019 602.434021,130.828415 
	C598.409058,140.918869 598.411438,140.919815 587.364624,140.919800 
	C578.370728,140.919800 569.375122,140.821976 560.383911,140.976883 
	C557.533508,141.026001 556.057617,140.337219 555.024963,137.379242 
	C545.849609,111.096321 536.446960,84.892860 527.164307,58.647240 
	C523.763672,49.032269 520.505188,39.367023 517.213623,29.332905 
z"/>
<path fill="#3472AD" opacity="1.000000" stroke="none" 
	d="
M934.792053,47.959274 
	C934.791992,51.419720 934.791992,54.388100 934.791992,57.803299 
	C927.169495,57.803299 919.927246,57.803299 912.004517,57.803299 
	C912.004517,61.328869 911.953735,64.424805 912.013489,67.518600 
	C912.253723,79.961189 912.411804,92.407249 912.852539,104.843079 
	C913.008606,109.245743 915.997742,111.133713 920.238831,111.143776 
	C924.879517,111.154785 929.520203,111.146278 934.503479,111.146278 
	C934.503479,121.024025 934.503479,130.591965 934.503479,140.855927 
	C921.639404,140.472153 908.624573,142.592438 896.087891,136.968216 
	C883.906555,131.503403 878.607178,121.590759 878.205688,109.098999 
	C877.666260,92.315926 878.071960,75.502480 878.071960,58.131050 
	C873.389221,58.131050 869.001099,58.131050 864.355103,58.131050 
	C864.355103,48.317009 864.355103,39.071129 864.355103,29.230272 
	C868.772400,29.230272 873.163025,29.230272 877.912476,29.230272 
	C877.912476,20.045835 877.912476,11.443007 877.912476,2.499165 
	C889.335876,2.499165 900.379578,2.499165 911.828918,2.499165 
	C911.828918,11.179285 911.828918,19.769796 911.828918,28.994577 
	C919.564270,28.994577 926.933655,28.994577 934.792114,28.994577 
	C934.792114,35.569012 934.792114,41.518112 934.792053,47.959274 
z"/>
<path fill="#3573AD" opacity="1.000000" stroke="none" 
	d="
M511.748138,56.764481 
	C511.541138,56.902866 511.370483,56.791176 511.142731,56.507484 
	C511.355713,56.181477 511.588684,56.241116 511.748138,56.764481 
z"/>
<path fill="#D1E2F3" opacity="1.000000" stroke="none" 
	d="
M208.000000,41.016369 
	C207.947205,74.160835 207.895508,106.808929 207.824005,139.456970 
	C207.823364,139.746826 207.556885,140.036102 207.250092,140.660004 
	C196.181244,140.660004 184.957016,140.660004 173.127045,140.660004 
	C173.127045,136.284851 173.127045,132.077271 173.127045,126.536781 
	C163.794907,138.452072 151.996765,142.998337 138.902588,142.804047 
	C120.927757,142.537369 106.054268,134.942612 97.917198,118.398064 
	C85.123779,92.386078 85.656204,66.583656 103.858551,43.047623 
	C111.275314,33.457588 122.181320,28.553883 134.647537,27.986490 
	C144.072098,27.557539 153.370361,27.959970 161.544632,33.341324 
	C165.441238,35.906574 168.900574,39.136017 172.946396,42.375626 
	C172.946396,38.050388 172.946396,33.971172 172.946396,29.449207 
	C184.584778,29.449207 195.812744,29.449207 208.000000,29.449207 
	C208.000000,33.041229 208.000000,36.780609 208.000000,41.016369 
M171.860565,93.017479 
	C171.902100,88.120773 172.405167,83.173836 171.878906,78.338928 
	C171.053253,70.753281 164.822754,60.704441 151.890717,58.377045 
	C144.551163,57.056137 134.823563,61.118744 130.115753,68.389236 
	C124.959511,76.352287 123.863617,84.935631 126.518837,94.032867 
	C129.635071,104.709602 138.663589,111.981888 148.884506,111.999947 
	C159.380676,112.018486 167.677414,105.362404 171.860565,93.017479 
z"/>
<path fill="#D1E2F3" opacity="1.000000" stroke="none" 
	d="
M261.975769,71.119064 
	C271.705475,74.032120 281.221375,76.380806 290.343750,79.784286 
	C301.094910,83.795456 308.543671,91.335114 309.942291,103.276947 
	C311.662506,117.964806 306.260498,129.429352 293.005310,136.409729 
	C282.188782,142.105865 270.577942,143.443909 258.359436,142.222443 
	C249.101517,141.296951 240.502426,139.278290 232.550186,134.346481 
	C221.437012,127.454323 214.590195,117.967735 213.380539,104.023720 
	C224.305710,104.023720 235.063538,103.963371 245.817963,104.127075 
	C246.779846,104.141724 248.077866,105.419487 248.613663,106.431519 
	C253.415894,115.502098 262.409393,118.997398 271.458191,115.257927 
	C274.603394,113.958168 277.568481,112.046577 276.790039,108.463104 
	C276.246643,105.961716 274.275635,102.917786 272.084961,101.806908 
	C267.714203,99.590553 262.724182,98.621719 258.043121,96.985558 
	C248.390717,93.611801 238.266083,91.123077 229.255783,86.483482 
	C214.350479,78.808441 213.143188,55.411568 223.762985,42.760117 
	C232.494980,32.357605 244.145233,28.012495 257.282776,28.153351 
	C265.979858,28.246599 275.126770,28.372282 283.251099,31.011415 
	C299.351959,36.241673 307.987732,48.397362 309.647675,65.985207 
	C299.462006,65.985207 289.508789,66.044182 279.558929,65.887894 
	C278.632233,65.873337 277.379486,64.681190 276.865784,63.721317 
	C272.031464,54.688236 263.502319,51.459183 254.384979,55.348042 
	C249.136459,57.586716 248.223511,64.084061 252.970520,67.235321 
	C255.545822,68.944916 258.696594,69.787659 261.975769,71.119064 
z"/>
<path fill="transparent" opacity="1.000000" stroke="none" 
	d="
M668.482544,71.761139 
	C671.649780,59.133034 682.879761,54.329861 693.943604,56.076443 
	C703.231812,57.542709 709.452332,65.106773 708.897156,74.079048 
	C697.496887,74.079048 686.048645,74.080299 674.600464,74.077652 
	C672.934387,74.077271 671.244507,74.211777 669.615784,73.959694 
	C669.087158,73.877869 668.718628,72.761719 668.482544,71.761139 
z"/>
<path fill="transparent" opacity="1.000000" stroke="none" 
	d="
M171.723679,93.402222 
	C167.677414,105.362404 159.380676,112.018486 148.884506,111.999947 
	C138.663589,111.981888 129.635071,104.709602 126.518837,94.032867 
	C123.863617,84.935631 124.959511,76.352287 130.115753,68.389236 
	C134.823563,61.118744 144.551163,57.056137 151.890717,58.377045 
	C164.822754,60.704441 171.053253,70.753281 171.878906,78.338928 
	C172.405167,83.173836 171.902100,88.120773 171.723679,93.402222 
z"/>
</svg>