<svg width="51" height="51" viewBox="0 0 51 51" fill="none" xmlns="http://www.w3.org/2000/svg">
<g id="7123025_logo_google_g_icon 1">
<g id="Group">
<path id="Vector" d="M40.8 26.874C40.8 25.82 40.698 24.732 40.528 23.712H25.806V29.73H34.238C33.898 31.668 32.776 33.368 31.11 34.456L36.142 38.366C39.1 35.612 40.8 31.6 40.8 26.874Z" fill="#4280EF"/>
<path id="Vector_2" d="M25.806 42.106C30.022 42.106 33.558 40.712 36.142 38.332L31.11 34.456C29.716 35.408 27.914 35.952 25.806 35.952C21.726 35.952 18.292 33.198 17.034 29.526L11.866 33.504C14.518 38.774 19.89 42.106 25.806 42.106Z" fill="#34A353"/>
<path id="Vector_3" d="M17.034 29.492C16.388 27.554 16.388 25.446 17.034 23.508L11.866 19.496C9.656 23.916 9.656 29.118 11.866 33.504L17.034 29.492Z" fill="#F6B704"/>
<path id="Vector_4" d="M25.806 17.082C28.016 17.048 30.192 17.898 31.79 19.428L36.244 14.94C33.422 12.288 29.682 10.86 25.806 10.894C19.89 10.894 14.518 14.226 11.866 19.496L17.034 23.508C18.292 19.802 21.726 17.082 25.806 17.082Z" fill="#E54335"/>
</g>
</g>
</svg>
