<svg width="26" height="22" viewBox="0 0 26 22" fill="none" xmlns="http://www.w3.org/2000/svg">
<path id="Vector (Stroke)" fill-rule="evenodd" clip-rule="evenodd" d="M8.125 2.35714C4.98881 2.35714 2.4375 4.82767 2.4375 7.88588C2.4375 8.79231 2.91669 9.87771 3.73407 11.0357C4.53242 12.1667 5.54764 13.2208 6.39482 14.0436L11.5655 19.0654C12.3584 19.8354 13.6416 19.8354 14.4345 19.0654L19.6052 14.0436C20.4369 13.2359 21.4526 12.1813 22.2552 11.0459C23.0779 9.88201 23.5625 8.79029 23.5625 7.88588C23.5625 4.82767 21.0112 2.35714 17.875 2.35714C16.3093 2.35714 14.8926 2.97061 13.8622 3.96792C13.6336 4.18916 13.3234 4.31347 13 4.31347C12.6766 4.31347 12.3664 4.18916 12.1378 3.96792C11.1074 2.97061 9.69065 2.35714 8.125 2.35714ZM0 7.88588C0 3.5354 3.63276 0 8.125 0C9.95413 0 11.6428 0.587631 13 1.57674C14.3572 0.587632 16.0459 0 17.875 0C22.3672 0 26 3.5354 26 7.88588C26 9.51064 25.1768 11.0896 24.2675 12.3761C23.338 13.6911 22.1975 14.8666 21.3325 15.7068L16.1617 20.7285C14.4162 22.4238 11.5838 22.4238 9.83827 20.7285L4.66755 15.7068C3.78808 14.8526 2.64708 13.6767 1.72088 12.3646C0.813699 11.0794 0 9.50862 0 7.88588Z" fill="#f9f5f5"/>
</svg>
