<svg width="32" height="31" viewBox="0 0 32 31" fill="none" xmlns="http://www.w3.org/2000/svg">
<path id="Vector (Stroke)" fill-rule="evenodd" clip-rule="evenodd" d="M14.9987 0.371173C15.5685 -0.123724 16.4315 -0.123724 17.0013 0.371172L31.5013 12.9649C32.1181 13.5007 32.1699 14.4194 31.6168 15.0169C31.0638 15.6144 30.1155 15.6646 29.4987 15.1288L28 13.8272V29.5469C28 30.3494 27.3284 31 26.5 31H19.5C18.6716 31 18 30.3494 18 29.5469V20.3438C18 19.2737 17.1046 18.4062 16 18.4062C14.8954 18.4062 14 19.2737 14 20.3438V29.5469C14 30.3494 13.3284 31 12.5 31H5.50001C4.67158 31 4.00001 30.3494 4.00001 29.5469V13.8272L2.50133 15.1288C1.88451 15.6646 0.936172 15.6145 0.38316 15.0169C-0.169852 14.4194 -0.118125 13.5007 0.498696 12.9649L14.9987 0.371173ZM7.00001 11.2216V28.0938H11V20.3438C11 17.6686 13.2386 15.5 16 15.5C18.7614 15.5 21 17.6686 21 20.3438V28.0938H25V11.2216L16 3.40476L7.00001 11.2216Z" fill="white"/>
</svg>
