<svg width="158" height="158" viewBox="0 0 158 158" fill="none" xmlns="http://www.w3.org/2000/svg">
<g id="afterwork-rafiki 1">
<g id="freepik--background-complete--inject-68">
<path id="Vector" d="M140.279 104.343H83.1617C82.6708 104.342 82.2003 104.147 81.8532 103.8C81.5061 103.453 81.3108 102.982 81.3099 102.491V19.2949C81.3108 18.8041 81.5061 18.3336 81.8532 17.9865C82.2003 17.6394 82.6708 17.444 83.1617 17.4432H140.279C140.77 17.444 141.24 17.6394 141.587 17.9865C141.934 18.3336 142.13 18.8041 142.13 19.2949V102.491C142.13 102.982 141.934 103.453 141.587 103.8C141.24 104.147 140.77 104.342 140.279 104.343ZM83.1617 17.5222C82.6918 17.523 82.2414 17.7101 81.9091 18.0423C81.5768 18.3746 81.3898 18.825 81.3889 19.2949V102.491C81.3898 102.961 81.5768 103.412 81.9091 103.744C82.2414 104.076 82.6918 104.263 83.1617 104.264H140.279C140.749 104.264 141.2 104.077 141.532 103.745C141.865 103.412 142.051 102.962 142.051 102.491V19.2949C142.051 18.8248 141.865 18.3739 141.532 18.0414C141.2 17.7089 140.749 17.5222 140.279 17.5222H83.1617Z" fill="#E0E0E0"/>
<path id="Vector_2" d="M74.4149 104.343H17.301C16.8096 104.343 16.3383 104.148 15.9905 103.801C15.6427 103.454 15.4469 102.983 15.4461 102.491V19.2949C15.4469 18.8035 15.6427 18.3325 15.9905 17.9854C16.3383 17.6382 16.8096 17.4432 17.301 17.4432H74.4149C74.906 17.4432 75.377 17.6383 75.7243 17.9855C76.0715 18.3328 76.2666 18.8038 76.2666 19.2949V102.491C76.2666 102.983 76.0715 103.454 75.7243 103.801C75.377 104.148 74.906 104.343 74.4149 104.343ZM17.301 17.5222C16.8306 17.5222 16.3793 17.7088 16.0464 18.0412C15.7134 18.3736 15.5259 18.8245 15.5251 19.2949V102.491C15.5234 102.726 15.5681 102.958 15.6566 103.175C15.7451 103.392 15.8757 103.589 16.0408 103.755C16.2058 103.922 16.4022 104.054 16.6185 104.144C16.8348 104.234 17.0667 104.28 17.301 104.28H74.4149C74.6477 104.28 74.8782 104.234 75.0933 104.145C75.3084 104.056 75.5038 103.925 75.6684 103.761C75.833 103.596 75.9636 103.401 76.0527 103.186C76.1418 102.971 76.1876 102.74 76.1876 102.507V19.2949C76.1876 19.0621 76.1418 18.8316 76.0527 18.6165C75.9636 18.4014 75.833 18.206 75.6684 18.0414C75.5038 17.8768 75.3084 17.7462 75.0933 17.6571C74.8782 17.568 74.6477 17.5222 74.4149 17.5222H17.301Z" fill="#E0E0E0"/>
<path id="Vector_3" d="M158 123.641H0V123.72H158V123.641Z" fill="#E0E0E0"/>
<path id="Vector_4" d="M21.4027 128.147H16.3277V128.226H21.4027V128.147Z" fill="#E0E0E0"/>
<path id="Vector_5" d="M70.7461 127.291H53.8306V127.37H70.7461V127.291Z" fill="#E0E0E0"/>
<path id="Vector_6" d="M33.1737 131.083H21.7187V131.162H33.1737V131.083Z" fill="#E0E0E0"/>
<path id="Vector_7" d="M133.207 127.25H119.559V127.329H133.207V127.25Z" fill="#E0E0E0"/>
<path id="Vector_8" d="M138.022 127.25H136.022V127.329H138.022V127.25Z" fill="#E0E0E0"/>
<path id="Vector_9" d="M116.952 129.219H99.9224V129.298H116.952V129.219Z" fill="#E0E0E0"/>
<path id="Vector_10" d="M41.7847 21.6902H25.9657V51.5143H41.7847V21.6902Z" fill="#E6E6E6"/>
<path id="Vector_11" d="M41.0105 21.6902H22.4265V51.5143H41.0105V21.6902Z" fill="#F0F0F0"/>
<path id="Vector_12" d="M38.176 24.3383H25.2516V48.8631H38.176V24.3383Z" fill="white"/>
<path id="Vector_13" d="M135.071 20.2461H111.065V65.5036H135.071V20.2461Z" fill="#E6E6E6"/>
<path id="Vector_14" d="M133.892 20.2461H105.693V65.5036H133.892V20.2461Z" fill="#F0F0F0"/>
<path id="Vector_15" d="M129.595 24.2656H109.981V61.4841H129.595V24.2656Z" fill="white"/>
<path id="Vector_16" d="M19.8195 123.679H29.1795L31.0154 103.471H17.9836L19.8195 123.679Z" fill="#E0E0E0"/>
<path id="Vector_17" d="M24.3605 106.833C24.6196 98.4024 22.5498 81.0034 19.1844 74.241L19.4151 74.1273C22.9132 81.1677 24.8661 98.4782 24.6291 106.84L24.3605 106.833Z" fill="#E0E0E0"/>
<path id="Vector_18" d="M27.353 79.7994C24.1898 82.2832 23.3334 90.376 23.3334 90.376C25.577 86.6724 29.0499 84.9123 27.353 79.7994Z" fill="#E0E0E0"/>
<path id="Vector_19" d="M23.2955 90.5024C23.268 90.4937 23.2445 90.4757 23.2289 90.4515C23.2133 90.4272 23.2067 90.3983 23.2102 90.3697C23.245 90.0347 24.1045 82.1916 27.2771 79.7015C27.293 79.688 27.3122 79.6788 27.3327 79.6749C27.3532 79.6711 27.3743 79.6726 27.3941 79.6794C27.4135 79.686 27.4312 79.6967 27.4459 79.7109C27.4607 79.7251 27.4721 79.7424 27.4794 79.7615C28.7434 83.5978 27.1634 85.5728 25.3401 87.8512C24.6504 88.6722 24.0169 89.539 23.4441 90.4455C23.4329 90.4649 23.4167 90.481 23.3973 90.4921C23.3779 90.5032 23.3558 90.5089 23.3335 90.5087L23.2955 90.5024ZM23.5389 89.8167C24.0476 89.0425 24.6006 88.3567 25.1347 87.69C26.8916 85.5001 28.4116 83.6073 27.2898 80.0207C24.7965 82.16 23.7885 87.9618 23.5389 89.8167Z" fill="#E0E0E0"/>
<path id="Vector_20" d="M15.6072 78.5102C19.3961 79.8279 22.752 87.3108 22.752 87.3108C19.4403 84.53 15.6578 83.8854 15.6072 78.5102Z" fill="#E0E0E0"/>
<path id="Vector_21" d="M22.7741 87.4151C21.9689 86.7598 21.1247 86.1541 20.2461 85.6012C17.7655 83.9865 15.623 82.5897 15.5883 78.5007C15.5881 78.4803 15.5929 78.4601 15.6023 78.442C15.6116 78.4238 15.6253 78.4082 15.642 78.3964C15.6591 78.384 15.679 78.376 15.7 78.3732C15.721 78.3705 15.7423 78.373 15.7621 78.3806C19.5541 79.7078 22.8499 86.9506 22.989 87.2602C22.9922 87.278 22.9922 87.2962 22.989 87.314C22.9882 87.3478 22.9741 87.3799 22.9499 87.4035C22.9257 87.4271 22.8932 87.4404 22.8594 87.4403C22.8292 87.4401 22.7996 87.4313 22.7741 87.4151ZM20.3851 85.3863C21.0803 85.8414 21.7977 86.3059 22.5023 86.8557C21.6839 85.1841 18.9031 79.9038 15.8411 78.6903C15.9422 82.4918 18.012 83.8348 20.3851 85.3863Z" fill="#E0E0E0"/>
<path id="Vector_22" d="M29.6471 87.532C25.7192 90.5119 24.4236 101.771 24.4236 101.771C27.2487 97.2837 31.6158 93.833 29.6471 87.532Z" fill="#E0E0E0"/>
<path id="Vector_23" d="M24.3731 101.923C24.3387 101.91 24.3096 101.887 24.2901 101.856C24.2706 101.825 24.262 101.788 24.2656 101.752C24.3194 101.291 25.6181 90.3918 29.5523 87.4119C29.5727 87.3962 29.5965 87.3856 29.6219 87.3812C29.6472 87.3768 29.6732 87.3787 29.6977 87.3866C29.722 87.3947 29.7441 87.4083 29.7622 87.4264C29.7803 87.4445 29.7939 87.4666 29.802 87.4909C31.382 92.509 29.0088 95.7069 26.5092 99.0786C25.852 99.9729 25.1631 100.896 24.5595 101.856C24.5447 101.879 24.5246 101.897 24.5008 101.91C24.4771 101.923 24.4505 101.929 24.4236 101.929L24.3731 101.923ZM24.6891 101.095C25.1947 100.336 25.7477 99.6032 26.2691 98.8827C28.6833 95.6216 30.9617 92.5374 29.5808 87.8006C26.4208 90.4392 25.0272 98.6489 24.6764 101.095H24.6891Z" fill="#E0E0E0"/>
<path id="Vector_24" d="M14.9721 85.9709C19.592 87.6773 23.9718 95.7006 23.9718 95.7006C19.9649 92.2246 14.912 92.5659 14.9721 85.9709Z" fill="#E0E0E0"/>
<path id="Vector_25" d="M23.8675 95.8206C22.6886 94.8553 21.3986 94.0342 20.0249 93.3748C17.2062 91.8864 14.7699 90.6035 14.8109 85.9709C14.8082 85.9542 14.8082 85.9371 14.8109 85.9204C14.8259 85.8808 14.8558 85.8486 14.8942 85.8309C14.9326 85.8131 14.9765 85.8112 15.0163 85.8256C19.6394 87.532 23.9212 95.3056 24.1013 95.6216C24.1194 95.6539 24.1254 95.6916 24.1185 95.728C24.1116 95.7644 24.0921 95.7972 24.0634 95.8206C24.0343 95.8428 23.9989 95.855 23.9623 95.8554C23.9277 95.8545 23.8944 95.8423 23.8675 95.8206ZM15.1301 86.2048C15.1743 90.455 17.4938 91.681 20.1861 93.0936C21.3154 93.6511 22.3967 94.3011 23.4188 95.037C22.218 93.0588 18.7451 87.6963 15.1333 86.2048H15.1301Z" fill="#E0E0E0"/>
<path id="Vector_26" d="M24.7144 74.813C22.5024 76.5447 21.9114 82.1916 21.9114 82.1916C23.4725 79.6067 25.912 78.368 24.7144 74.813Z" fill="#E0E0E0"/>
<path id="Vector_27" d="M21.8672 82.2737C21.8484 82.2668 21.8325 82.2536 21.8221 82.2363C21.8118 82.2191 21.8076 82.1989 21.8103 82.179C21.8419 81.9483 22.4423 76.4752 24.6543 74.7372C24.6657 74.7276 24.6792 74.7211 24.6938 74.7182C24.7083 74.7152 24.7233 74.716 24.7375 74.7204C24.7517 74.7248 24.7645 74.7327 24.7748 74.7434C24.7851 74.754 24.7926 74.7671 24.7965 74.7814C25.6845 77.4579 24.5816 78.8325 23.3018 80.4252C22.8227 80.9994 22.3815 81.6042 21.9809 82.2358C21.9738 82.2489 21.9633 82.2599 21.9505 82.2677C21.9378 82.2754 21.9232 82.2797 21.9083 82.2801C21.8943 82.2822 21.8799 82.28 21.8672 82.2737ZM22.0505 81.7997C22.4075 81.2625 22.7899 80.7791 23.1659 80.3146C24.3889 78.7883 25.4443 77.4706 24.6669 74.9647C22.9289 76.472 22.2337 80.5073 22.0505 81.7997Z" fill="#E0E0E0"/>
<path id="Vector_28" d="M20.8244 78.4438C20.2595 77.9885 19.6686 77.5665 19.0548 77.1798C17.3231 76.0517 15.8253 75.0752 15.8 72.2281C15.8006 72.2132 15.8046 72.1985 15.8117 72.1854C15.8189 72.1723 15.8289 72.1609 15.8411 72.1522C15.8539 72.1461 15.8679 72.1429 15.8821 72.1429C15.8964 72.1429 15.9104 72.1461 15.9232 72.1522C18.5745 73.0813 20.8655 78.1341 20.9792 78.349C20.9869 78.3676 20.9883 78.3881 20.9832 78.4075C20.978 78.4269 20.9666 78.4441 20.9508 78.4564C20.9346 78.4692 20.9145 78.4759 20.8939 78.4754C20.8807 78.4759 20.8675 78.4733 20.8554 78.4678C20.8433 78.4623 20.8327 78.4541 20.8244 78.4438Z" fill="#E0E0E0"/>
<path id="Vector_29" d="M101.537 84.4984H91.2671V88.7644H101.537V84.4984Z" fill="#E6E6E6"/>
<path id="Vector_30" d="M106.675 88.7612H96.4053V93.0272H106.675V88.7612Z" fill="#F5F5F5"/>
<path id="Vector_31" d="M66.5275 42.2239H56.2575V46.4899H66.5275V42.2239Z" fill="#E0E0E0"/>
<path id="Vector_32" d="M100.185 42.246H89.9147V46.512H100.185V42.246Z" fill="#E0E0E0"/>
<path id="Vector_33" d="M95.7069 38.1159H85.4369V42.3819H95.7069V38.1159Z" fill="#F5F5F5"/>
<path id="Vector_34" d="M99.4894 15.9833H89.2194V20.2493H99.4894V15.9833Z" fill="#E0E0E0"/>
<path id="Vector_35" d="M95.0117 11.85H84.7417V16.116H95.0117V11.85Z" fill="#F5F5F5"/>
<path id="Vector_36" d="M30.5288 62.688H20.2588V66.954H30.5288V62.688Z" fill="#E0E0E0"/>
<path id="Vector_37" d="M36.2357 58.4568H25.9657V62.7228H36.2357V58.4568Z" fill="#F0F0F0"/>
<path id="Vector_38" d="M147.126 71.1379H136.856V75.4039H147.126V71.1379Z" fill="#E0E0E0"/>
<path id="Vector_39" d="M152.837 66.9067H142.567V71.1727H152.837V66.9067Z" fill="#E6E6E6"/>
<path id="Vector_40" d="M153.175 75.3249H142.905V79.5909H153.175V75.3249Z" fill="#F5F5F5"/>
<path id="Vector_41" d="M70.9388 22.2084H60.6688V26.4744H70.9388V22.2084Z" fill="#F5F5F5"/>
<path id="Vector_42" d="M147.307 30.7436H137.037V35.0096H147.307V30.7436Z" fill="#F5F5F5"/>
<path id="Vector_43" d="M134.186 115.808C134.186 115.647 133.64 99.6411 131.026 97.1099C128.498 94.6483 125.588 97.0183 125.465 97.1099L125.206 96.7939C125.237 96.7655 128.517 94.089 131.311 96.7939C134.028 99.4389 134.562 115.106 134.584 115.773L134.186 115.808Z" fill="#E0E0E0"/>
<path id="Vector_44" d="M134.411 118.952C134.392 118.762 132.628 99.7391 139.577 91.7759L139.893 92.0413C133.061 99.8844 134.806 118.734 134.837 118.923L134.411 118.952Z" fill="#E0E0E0"/>
<path id="Vector_45" d="M134.151 116.939L133.747 116.914C133.747 116.699 135.106 95.2866 130.009 90.6003L130.284 90.3001C135.523 95.1159 134.212 116.051 134.151 116.939Z" fill="#E0E0E0"/>
<path id="Vector_46" d="M134.815 116.92H134.407C134.407 116.329 134.575 102.457 138.515 100.197C138.89 99.9552 139.317 99.8066 139.761 99.7637C140.204 99.7208 140.652 99.7849 141.066 99.9508C143.448 100.937 144.63 105.177 144.677 105.354L144.286 105.465C144.286 105.421 143.107 101.234 140.911 100.327C140.554 100.186 140.17 100.134 139.789 100.173C139.407 100.212 139.041 100.341 138.721 100.551C134.979 102.7 134.818 116.787 134.815 116.92Z" fill="#E0E0E0"/>
<path id="Vector_47" d="M133.282 116.939L132.875 116.914C132.875 116.806 133.469 105.952 130.54 102.128C129.829 101.202 129.061 100.76 128.245 100.817C126.327 100.953 124.719 103.762 124.7 103.787L124.346 103.588C124.416 103.465 126.078 100.561 128.217 100.412C129.165 100.343 130.066 100.839 130.862 101.882C133.883 105.825 133.308 116.487 133.282 116.939Z" fill="#E0E0E0"/>
<path id="Vector_48" d="M133.924 118.415C133.845 117.362 132.009 92.5817 135.239 88.2145L135.555 88.4547C132.417 92.7017 134.291 118.127 134.319 118.383L133.924 118.415Z" fill="#E0E0E0"/>
<path id="Vector_49" d="M141.944 102.469C141.944 102.469 140.007 103.18 140.582 104.868C141.157 106.555 147.284 109.336 147.284 109.336C147.284 109.336 149.85 106.985 147.493 103.161C145.136 99.3378 141.998 101.262 141.944 102.469Z" fill="#EBEBEB"/>
<path id="Vector_50" d="M133.526 99.2588C133.526 99.2588 135.586 99.1734 135.703 100.949C135.82 102.725 131.235 107.645 131.235 107.645C131.235 107.645 127.964 106.464 128.666 102.027C129.367 97.5903 133.011 98.1654 133.526 99.2588Z" fill="#EBEBEB"/>
<path id="Vector_51" d="M131.772 90.7488C131.772 90.7488 133.147 90.6035 133.036 89.7661C132.925 88.9287 127.689 86.7704 124.602 90.2559C124.602 90.2559 126.58 93.6529 129.44 93.7003C132.3 93.7477 131.772 90.7488 131.772 90.7488Z" fill="#EBEBEB"/>
<path id="Vector_52" d="M134.341 88.717C134.341 88.717 133.096 89.3174 132.745 88.5495C132.395 87.7817 135.7 83.1775 140.165 84.5047C140.165 84.5047 140.282 88.4358 137.88 89.9842C135.479 91.5326 134.341 88.717 134.341 88.717Z" fill="#EBEBEB"/>
<path id="Vector_53" d="M127.828 101.79C127.828 101.79 128.776 101.025 127.756 100.649C126.735 100.273 121.704 100.384 121.654 105.361C121.654 105.361 127.506 106.334 128.23 104.438C128.953 102.542 127.828 101.79 127.828 101.79Z" fill="#EBEBEB"/>
<path id="Vector_54" d="M139.764 90.6256C139.764 90.6256 138.816 89.8578 139.839 89.4849C140.863 89.112 145.891 89.2163 145.941 94.1964C145.941 94.1964 140.089 95.1666 139.365 93.2706C138.642 91.3746 139.764 90.6256 139.764 90.6256Z" fill="#EBEBEB"/>
<path id="Vector_55" d="M136.67 94.6356C136.67 94.6356 136.588 93.6876 137.34 94.07C138.092 94.4524 140.712 97.2616 137.994 99.9413C137.994 99.9413 134.341 97.2363 134.998 95.8333C135.656 94.4302 136.67 94.6356 136.67 94.6356Z" fill="#EBEBEB"/>
<path id="Vector_56" d="M126.981 95.9628C126.981 95.9628 127.55 95.2202 126.719 95.1254C125.888 95.0306 122.162 96.0292 123.031 99.7453C123.031 99.7453 127.566 99.4041 127.771 97.8493C127.977 96.2946 126.981 95.9628 126.981 95.9628Z" fill="#EBEBEB"/>
<path id="Vector_57" d="M138.629 124.109H129.478L127.045 112.885H140.832L138.629 124.109Z" fill="#F0F0F0"/>
<path id="Vector_58" d="M141.628 112.72H126.217V115.95H141.628V112.72Z" fill="#E6E6E6"/>
</g>
<g id="freepik--Shadow--inject-68">
<path id="Vector_59" d="M145.006 141.691C145.006 142.762 115.454 143.631 79 143.631C42.5462 143.631 12.9939 142.762 12.9939 141.691C12.9939 140.62 42.5462 139.754 79 139.754C115.454 139.754 145.006 140.62 145.006 141.691Z" fill="#F5F5F5"/>
</g>
<g id="freepik--speech-bubble-2--inject-68">
<path id="Vector_60" d="M111.706 35.1171H104.368C103.208 35.1171 102.267 36.0579 102.267 37.2185V42.2365C102.267 43.3971 103.208 44.3379 104.368 44.3379H111.706C112.867 44.3379 113.807 43.3971 113.807 42.2365V37.2185C113.807 36.0579 112.867 35.1171 111.706 35.1171Z" fill="#407BFF"/>
<path id="Vector_61" d="M110.644 40.3184C110.971 40.3184 111.235 40.0539 111.235 39.7275C111.235 39.4012 110.971 39.1366 110.644 39.1366C110.318 39.1366 110.053 39.4012 110.053 39.7275C110.053 40.0539 110.318 40.3184 110.644 40.3184Z" fill="white"/>
<path id="Vector_62" d="M107.44 39.7275C107.44 39.8444 107.475 39.9586 107.54 40.0558C107.605 40.153 107.697 40.2287 107.805 40.2735C107.913 40.3182 108.032 40.3299 108.146 40.3071C108.261 40.2843 108.366 40.228 108.449 40.1454C108.531 40.0627 108.588 39.9574 108.61 39.8428C108.633 39.7282 108.622 39.6094 108.577 39.5014C108.532 39.3934 108.456 39.3011 108.359 39.2362C108.262 39.1713 108.148 39.1366 108.031 39.1366C107.874 39.1366 107.724 39.1989 107.613 39.3097C107.502 39.4205 107.44 39.5708 107.44 39.7275Z" fill="white"/>
<path id="Vector_63" d="M105.43 40.3184C105.757 40.3184 106.021 40.0539 106.021 39.7275C106.021 39.4012 105.757 39.1366 105.43 39.1366C105.104 39.1366 104.839 39.4012 104.839 39.7275C104.839 40.0539 105.104 40.3184 105.43 40.3184Z" fill="white"/>
<path id="Vector_64" d="M109.905 44.1262L112.177 46.3983V43.6017L109.905 44.1262Z" fill="#407BFF"/>
</g>
<g id="freepik--speech-bubble-1--inject-68">
<path id="Vector_65" d="M58.7855 30.5635H51.448C50.2874 30.5635 49.3466 31.5044 49.3466 32.6649V37.683C49.3466 38.8436 50.2874 39.7844 51.448 39.7844H58.7855C59.946 39.7844 60.8869 38.8436 60.8869 37.683V32.6649C60.8869 31.5044 59.946 30.5635 58.7855 30.5635Z" fill="#407BFF"/>
<path id="Vector_66" d="M57.7237 35.7649C58.0501 35.7649 58.3146 35.5003 58.3146 35.174C58.3146 34.8476 58.0501 34.5831 57.7237 34.5831C57.3974 34.5831 57.1328 34.8476 57.1328 35.174C57.1328 35.5003 57.3974 35.7649 57.7237 35.7649Z" fill="white"/>
<path id="Vector_67" d="M54.5258 35.174C54.5265 35.2907 54.5616 35.4046 54.6269 35.5014C54.6923 35.5982 54.7848 35.6734 54.8928 35.7177C55.0008 35.7619 55.1195 35.7731 55.234 35.75C55.3484 35.7268 55.4534 35.6703 55.5357 35.5875C55.618 35.5048 55.674 35.3995 55.6965 35.2849C55.7191 35.1704 55.7072 35.0517 55.6624 34.944C55.6176 34.8362 55.5418 34.7441 55.4447 34.6793C55.3476 34.6145 55.2335 34.5799 55.1167 34.5799C55.0389 34.5799 54.9618 34.5953 54.8899 34.6252C54.818 34.6551 54.7527 34.6989 54.6978 34.7541C54.6429 34.8093 54.5994 34.8748 54.5699 34.9469C54.5404 35.0189 54.5254 35.0961 54.5258 35.174Z" fill="white"/>
<path id="Vector_68" d="M52.5097 35.7649C52.8361 35.7649 53.1007 35.5003 53.1007 35.174C53.1007 34.8476 52.8361 34.5831 52.5097 34.5831C52.1834 34.5831 51.9188 34.8476 51.9188 35.174C51.9188 35.5003 52.1834 35.7649 52.5097 35.7649Z" fill="white"/>
<path id="Vector_69" d="M51.9662 39.4084V41.6804L54.2351 38.8839L51.9662 39.4084Z" fill="#407BFF"/>
</g>
<g id="freepik--character-3--inject-68">
<path id="Vector_70" d="M103.405 67.4881C103.474 67.4881 106.429 68.9702 106.429 68.9702L107.848 65.5289L105.462 65.5479C105.462 65.5479 103.285 67.4439 103.345 67.466" fill="#B97964"/>
<path id="Vector_71" d="M105.585 65.589C105.585 65.589 105.538 64.483 104.861 63.8731C104.185 63.2633 103.803 62.6091 103.281 62.1762C102.76 61.7433 102.924 62.6565 103.114 63.1242C103.304 63.5919 103.518 64.107 103.149 64.1955C102.779 64.2839 99.6538 63.3612 99.1545 63.5413C98.6552 63.7215 99.1166 64.028 99.1166 64.028C99.1166 64.028 98.415 63.8257 98.1875 64.107C97.96 64.3882 98.3645 64.6442 98.3645 64.6442C98.3645 64.6442 97.8873 64.5273 97.8431 64.8717C97.7988 65.2161 100.197 66.3569 100.276 66.4517C100.276 66.4517 99.0691 65.529 98.7279 65.8197C98.3866 66.1104 99.2271 66.6413 99.8907 67.0837C100.567 67.5412 101.381 67.7501 102.194 67.6746C102.997 67.5798 104.406 67.8389 104.89 67.0426C105.173 66.5846 105.407 66.0973 105.585 65.589Z" fill="#B97964"/>
<g id="Group" opacity="0.2">
<path id="Vector_72" d="M98.4308 64.7389C99.2303 64.9759 100.011 65.2382 100.801 65.5258C100.733 65.7326 100.679 65.9437 100.64 66.1578C100.624 66.2652 100.788 66.2494 100.81 66.1578C100.936 65.4913 101.205 64.8604 101.6 64.3092C101.667 64.2175 101.528 64.148 101.461 64.2396C101.363 64.3802 101.272 64.5258 101.19 64.6757C101.183 64.6625 101.172 64.6523 101.158 64.6473C100.56 64.3737 99.9324 64.1722 99.2872 64.0469C99.1861 64.0469 99.126 64.1891 99.2303 64.2112C99.8616 64.3297 100.476 64.5249 101.06 64.7926C101.082 64.7926 100.975 65.036 100.997 65.0296C100.937 65.1406 100.89 65.2583 100.858 65.3804C100.08 65.0918 99.2893 64.8295 98.4846 64.5936C98.3898 64.5525 98.3329 64.7105 98.4308 64.7389Z" fill="black"/>
</g>
<g id="Group_2" opacity="0.2">
<path id="Vector_73" d="M101.79 65.3077C102.213 65.1834 102.666 65.2046 103.077 65.3678C103.487 65.531 103.83 65.827 104.052 66.2083C104.1 66.2968 104.255 66.2083 104.207 66.1198C103.746 65.2856 102.804 64.919 101.761 65.1529C101.751 65.1539 101.74 65.1572 101.731 65.1626C101.721 65.1679 101.713 65.1752 101.706 65.1839C101.699 65.1927 101.695 65.2027 101.692 65.2133C101.69 65.224 101.689 65.235 101.691 65.2458C101.693 65.2565 101.698 65.2668 101.704 65.2758C101.71 65.2849 101.718 65.2926 101.727 65.2984C101.736 65.3042 101.747 65.308 101.758 65.3097C101.768 65.3113 101.779 65.3106 101.79 65.3077Z" fill="black"/>
</g>
<path id="Vector_74" d="M117.628 52.1779C117.669 52.2474 117.71 52.3138 117.757 52.3802C116.323 53.4956 117.786 54.9619 118.228 55.1894C118.565 55.3694 118.926 55.4993 119.299 55.5749C121.069 55.9541 122.583 55.0188 123.407 54.5606C124.577 53.8938 124.523 51.5396 125.19 50.3167C126.062 48.7367 127.528 44.774 126.204 41.8131C125.916 41.0995 125.501 40.4434 124.981 39.876C124.254 39.1682 123.152 39.0544 122.181 39.3673C121.215 39.7357 120.36 40.3461 119.698 41.14C118.425 42.4845 117.496 44.1174 116.993 45.899C116.538 47.577 117.075 48.1331 117.438 49.1949V49.2296C117.125 50.2061 117.132 51.331 117.628 52.1779Z" fill="#263238"/>
<path id="Vector_75" d="M121.028 55.7361C121.028 55.7361 123.496 55.4548 126.065 55.4517C127.547 55.4517 127.124 53.8306 128.909 55.0693C129.541 53.8875 129.225 52.4181 128.524 51.2773C128.374 51.0342 128.196 50.8103 127.993 50.6106C127.841 50.4624 127.676 50.3291 127.5 50.2124C127.404 50.1495 127.305 50.0925 127.203 50.0418C126.936 49.8975 126.651 49.7911 126.356 49.7258C125.864 49.6032 125.351 49.586 124.852 49.6752C124.135 49.8232 123.466 50.1492 122.908 50.6232C122.639 50.8438 122.393 51.0916 122.175 51.3626C122.061 51.4983 121.956 51.6408 121.859 51.7892C121.733 51.9803 121.618 52.1787 121.515 52.3833C121.513 52.4033 121.513 52.4234 121.515 52.4434C121.265 53.1052 121.173 53.816 121.246 54.5195C121.265 54.9398 120.965 55.3727 121.028 55.7361Z" fill="#263238"/>
<path id="Vector_76" d="M122.437 58.7254C122.959 59.2658 123.436 59.0857 124.134 58.7981C128.296 57.3035 127.06 55.3 127.06 55.3C126.274 54.3741 126.239 53.2681 126.526 51.5807C126.526 51.5333 126.526 51.4827 126.526 51.4322C126.524 51.2049 126.451 50.984 126.318 50.8002C126.235 50.6792 126.13 50.5758 126.007 50.4957C125.885 50.4156 125.748 50.3604 125.604 50.3334C125.46 50.3064 125.312 50.3081 125.169 50.3383C125.026 50.3685 124.89 50.4266 124.769 50.5094L122.924 51.0498C122.924 51.0751 122.924 51.1004 122.908 51.1288C122.908 52.0515 122.93 52.7657 122.924 53.3408C122.918 53.4081 122.918 53.4758 122.924 53.543C122.918 53.6124 122.918 53.6822 122.924 53.7516C122.88 54.5227 121.571 55.6476 121.028 55.9257C120.712 56.0995 120.661 56.9053 122.437 58.7254Z" fill="#B97964"/>
<path id="Vector_77" d="M127.929 45.188C127.857 48.3702 127.898 49.7132 126.387 51.4385C124.112 54.0329 120.301 53.3345 119.435 50.2188C118.671 47.4095 118.898 42.6885 121.897 41.2286C124.896 39.7686 127.999 41.987 127.929 45.188Z" fill="#B97964"/>
<path id="Vector_78" d="M124.365 45.4503C125.173 45.9056 125.843 46.5705 126.305 47.3747L126.387 47.5043C126.492 47.6844 126.59 47.8709 126.684 48.0636C126.84 48.3936 126.974 48.7335 127.086 49.0812C127.146 49.2644 127.196 49.4512 127.234 49.6405C127.275 49.8459 127.335 50.1113 127.373 50.3515L127.402 50.5885C127.551 51.9519 127.338 53.3305 126.786 54.5859C126.787 54.5953 126.787 54.6049 126.786 54.6143L126.849 54.5827C126.849 56.2133 127.724 55.3695 127.724 55.3695C127.724 55.3695 130.012 56.2386 130.846 56.5862C133.911 57.8502 134.9 54.9619 133.58 52.7625C133.459 52.5603 132.704 51.7798 132.632 51.7103C132.863 51.7072 133.091 51.6481 133.295 51.5378C133.499 51.4276 133.673 51.2696 133.803 51.0773C133.932 50.885 134.013 50.6642 134.039 50.4338C134.064 50.2034 134.034 49.9702 133.949 49.7542C133.655 48.7557 132.941 47.9309 132.205 47.2262C132.069 47.0998 131.921 46.9829 131.794 46.866C131.894 46.9072 132.002 46.9286 132.11 46.9292C132.326 46.935 132.539 46.8785 132.723 46.7664C132.907 46.6543 133.056 46.4914 133.15 46.2972C133.766 44.7804 130.938 45.4598 129.016 40.5081C128.283 38.6121 126.438 39.1682 124.719 39.5285L124.63 39.5474C122.829 39.9424 121.843 40.7198 121.584 41.6267C121.205 42.8686 122.213 44.3601 124.365 45.4503Z" fill="#263238"/>
<path id="Vector_79" d="M126.773 45.2544C126.141 45.5704 126.236 48.5661 127.768 48.4428C129.301 48.3196 128.881 44.1926 126.773 45.2544Z" fill="#263238"/>
<path id="Vector_80" d="M129.339 47.8961C129.052 48.5173 128.53 48.9992 127.888 49.236C127.06 49.5172 126.511 48.1963 126.725 47.3242C126.828 46.931 127.068 46.5875 127.402 46.3557C127.736 46.1239 128.141 46.0191 128.546 46.0602C129.37 46.1581 129.705 47.1125 129.339 47.8961Z" fill="#B97964"/>
<path id="Vector_81" opacity="0.2" d="M127.538 47.9562C127.517 47.9562 127.498 47.9483 127.483 47.9342C127.468 47.92 127.459 47.9007 127.459 47.8803C127.453 47.5515 127.577 47.2337 127.805 46.9968C128.034 46.7598 128.346 46.623 128.675 46.6163C128.696 46.617 128.715 46.625 128.73 46.6389C128.745 46.6528 128.755 46.6718 128.757 46.6922C128.757 46.7134 128.749 46.7339 128.734 46.7492C128.72 46.7645 128.7 46.7735 128.678 46.7743C128.391 46.7801 128.119 46.8995 127.919 47.1062C127.72 47.313 127.611 47.5902 127.617 47.8772C127.617 47.8981 127.608 47.9182 127.593 47.933C127.579 47.9479 127.559 47.9562 127.538 47.9562Z" fill="black"/>
<path id="Vector_82" d="M126.476 40.764C126.811 41.8068 127.74 41.7562 128.328 42.6853C128.915 43.6143 129.253 44.8815 128.603 45.7631C128.389 45.995 128.188 46.2387 128.002 46.4931C127.572 47.2515 128.062 48.1932 128.078 49.0685C128.094 49.8806 128.138 50.8412 127.484 51.2805C127.215 51.4596 126.993 51.7012 126.838 51.9846C126.683 52.268 126.599 52.5848 126.593 52.9079C126.593 53.1133 127.225 54.51 127.26 54.7122C127.301 55.0061 126.473 54.0802 126.179 54.1308C126.074 54.1465 125.966 54.1305 125.87 54.085C125.774 54.0394 125.693 53.9663 125.638 53.8748C125.619 53.8438 125.604 53.811 125.591 53.7769C125.342 53.2906 125.203 52.7556 125.183 52.2095C125.163 51.6635 125.264 51.1198 125.477 50.6169C125.73 50.0386 126.008 49.4761 126.261 48.8978C126.547 48.3312 126.658 47.6917 126.577 47.0619C126.302 45.6462 122.937 42.4514 125.629 39.8602C125.646 39.842 125.666 39.8275 125.689 39.8177C125.712 39.8079 125.737 39.803 125.762 39.8034C125.876 39.8099 125.987 39.8456 126.084 39.907C126.18 39.9683 126.26 40.0534 126.315 40.1541C126.389 40.3514 126.443 40.5558 126.476 40.764Z" fill="#263238"/>
<path id="Vector_83" d="M123.787 46.5405C123.787 46.8818 123.638 47.1725 123.43 47.1946C123.221 47.2168 123.038 46.9608 123.025 46.6227C123.012 46.2846 123.174 45.9907 123.382 45.9686C123.591 45.9464 123.771 46.2024 123.787 46.5405Z" fill="#263238"/>
<path id="Vector_84" d="M120.636 46.7996C120.636 47.1156 120.488 47.4127 120.279 47.4316C120.071 47.4506 119.89 47.2041 119.878 46.8755C119.865 46.5468 120.026 46.2624 120.235 46.2435C120.443 46.2245 120.624 46.471 120.636 46.7996Z" fill="#263238"/>
<path id="Vector_85" d="M124.352 45.3081C124.332 45.3126 124.311 45.3127 124.291 45.3084C124.271 45.304 124.252 45.2953 124.235 45.2828C124.087 45.1621 123.911 45.0801 123.722 45.0442C123.534 45.0084 123.34 45.0198 123.158 45.0774C123.139 45.0849 123.119 45.0884 123.099 45.0878C123.079 45.0871 123.059 45.0824 123.041 45.0738C123.023 45.0651 123.007 45.0529 122.994 45.0378C122.981 45.0226 122.971 45.0049 122.965 44.9858C122.953 44.9451 122.957 44.9016 122.976 44.8636C122.995 44.8257 123.027 44.796 123.066 44.7804C123.296 44.7032 123.541 44.685 123.78 44.7275C124.018 44.77 124.242 44.8719 124.431 45.0237C124.462 45.0511 124.481 45.0894 124.485 45.1305C124.488 45.1717 124.476 45.2126 124.45 45.2449C124.439 45.2614 124.424 45.2754 124.408 45.2863C124.391 45.2971 124.372 45.3046 124.352 45.3081Z" fill="#263238"/>
<path id="Vector_86" d="M119.448 45.286C119.431 45.2822 119.415 45.2746 119.401 45.2636C119.387 45.2527 119.376 45.2387 119.369 45.2228C119.353 45.1856 119.351 45.1442 119.363 45.1056C119.374 45.067 119.399 45.0335 119.432 45.0111C119.612 44.8707 119.825 44.7792 120.05 44.7454C120.275 44.7116 120.506 44.7368 120.718 44.8183C120.751 44.838 120.775 44.87 120.785 44.9074C120.794 44.9447 120.789 44.9843 120.769 45.0174C120.753 45.0527 120.724 45.0808 120.688 45.096C120.653 45.1112 120.613 45.1125 120.576 45.0995C120.407 45.037 120.224 45.0193 120.046 45.0481C119.868 45.0769 119.7 45.1512 119.559 45.2639C119.543 45.2756 119.525 45.2837 119.506 45.2876C119.487 45.2914 119.467 45.2909 119.448 45.286Z" fill="#263238"/>
<path id="Vector_87" d="M121.48 46.5721C121.25 47.2774 120.948 47.9573 120.579 48.6008C120.56 48.6338 120.549 48.6707 120.546 48.7089C120.543 48.747 120.549 48.7852 120.563 48.8206C120.578 48.856 120.6 48.8877 120.629 48.9131C120.657 48.9386 120.691 48.9571 120.728 48.9674C121.013 49.0268 121.31 49.006 121.584 48.9073L121.48 46.5721Z" fill="#A24E3F"/>
<path id="Vector_88" d="M123.502 45.9717L122.757 45.8611C122.757 45.8611 123.202 46.373 123.502 45.9717Z" fill="#263238"/>
<path id="Vector_89" d="M120.311 46.2435L119.565 46.1329C119.565 46.1329 120.011 46.6448 120.311 46.2435Z" fill="#263238"/>
<path id="Vector_90" d="M118.971 55.616C118.216 55.9873 117.542 56.5047 116.989 57.1383C116.436 57.7719 116.014 58.509 115.748 59.3069C114.781 62.1983 114.228 66.6381 114.228 66.6381C114.228 66.6381 107.614 65.1182 106.094 64.897L104.83 68.4204C104.83 68.4204 113.561 72.4999 114.417 72.7274C116.945 73.4037 118.25 69.0239 118.25 69.0239L119.132 55.5212L118.971 55.616Z" fill="#407BFF"/>
<path id="Vector_91" d="M132.48 136.31L132.148 136.771L131.497 136.487L131.089 138.503L128.331 142.355C128.331 142.355 127.282 142.526 128.106 140.336C128.147 140.228 128.177 140.117 128.195 140.004C128.441 138.696 127.901 136.183 127.901 136.183L129.415 134.069C129.558 134.076 129.7 134.092 129.841 134.117C130.467 134.221 131.721 134.528 132.48 136.31Z" fill="#407BFF"/>
<path id="Vector_92" opacity="0.2" d="M132.48 136.31L132.148 136.771L131.497 136.487L131.089 138.503L128.331 142.355C128.331 142.355 127.282 142.526 128.106 140.336C128.147 140.228 128.177 140.117 128.195 140.004C128.441 138.696 127.901 136.183 127.901 136.183L129.415 134.069C129.558 134.076 129.7 134.092 129.841 134.117C130.467 134.221 131.721 134.528 132.48 136.31Z" fill="black"/>
<path id="Vector_93" d="M129.841 134.117C129.333 134.17 129.778 136.427 129.573 137.691C129.389 138.822 128.903 139.887 128.189 139.997C128.435 138.689 127.557 135.703 127.557 135.703L128.773 134.003C128.773 134.003 129.56 134.072 129.841 134.117Z" fill="#A24E3F"/>
<path id="Vector_94" d="M128.258 142.2H127.696L127.541 141.499L125.679 142.345H120.968C120.968 142.345 120.219 141.587 122.463 140.98C122.572 140.952 122.678 140.911 122.779 140.86C123.976 140.295 125.679 138.383 125.679 138.383H128.264C128.344 138.503 128.415 138.629 128.476 138.759C128.76 139.356 129.244 140.547 128.258 142.2Z" fill="#407BFF"/>
<path id="Vector_95" d="M128.476 138.771C128.135 138.389 126.58 140.073 125.446 140.649C124.428 141.157 123.287 141.385 122.779 140.867C123.976 140.301 125.875 137.707 125.875 137.707L127.955 137.773C127.955 137.773 128.356 138.525 128.476 138.771Z" fill="#B97964"/>
<path id="Vector_96" d="M123.973 115.997C122.69 112.464 121.129 108.985 119.233 106.173C126.947 84.056 126.716 74.1526 126.716 74.1526H117.432L116.44 77.8529C116.44 77.8529 114.12 87.0643 113.444 92.351L111.507 104.106V104.138C111.372 106.575 111.912 109.003 113.068 111.153C114.332 113.498 116.563 116.282 117.786 118.81C119.397 122.147 120.921 125.49 122.21 128.482C123.578 131.642 124.694 134.392 125.37 136.307C126.03 136.382 128.015 135.188 128.587 134.095C128.612 134.098 127.193 124.871 123.973 115.997Z" fill="#263238"/>
<path id="Vector_97" opacity="0.2" d="M121.382 99.5906C122.513 95.8302 123.777 93.6877 124.355 90.8943C124.355 90.2433 122.194 87.453 121.091 86.3281C121.091 86.3281 119.764 91.6621 121.382 99.5906Z" fill="black"/>
<path id="Vector_98" opacity="0.2" d="M122.207 128.473C123.575 131.633 124.69 134.382 125.367 136.297C126.027 136.373 128.012 135.179 128.584 134.085C128.584 134.085 127.177 124.858 123.957 115.985C123.319 119.663 122.589 124.292 122.207 128.473Z" fill="black"/>
<path id="Vector_99" d="M119.764 74.3548C119.764 74.3548 123.297 98.7911 123.708 104.293C123.708 104.293 125.891 130.982 125.503 137.691L130.372 137.928C130.372 137.928 133.646 117.704 131.99 104.748C131.848 103.057 133.355 92.0255 133.595 87.6331C134.167 77.0629 129.879 74.1589 129.879 74.1589L119.764 74.3548Z" fill="#263238"/>
<path id="Vector_100" opacity="0.2" d="M125.929 74.7214L126.703 86.8589L133.646 86.031V84.7828L125.929 74.7214Z" fill="black"/>
<path id="Vector_101" d="M129.288 75.0247C129.56 71.9437 130.653 66.3031 132.537 60.375C133.15 58.4474 132.11 56.267 132.11 56.267C132.11 56.267 129.547 56.2006 129.288 56.1722C129.029 56.1437 128.713 56.109 128.422 56.0837C126.442 55.8719 124.449 55.8043 122.459 55.8814C121.967 55.9099 121.461 55.951 120.965 55.992C120.804 56.011 119.764 56.0236 119.606 56.0426C119.606 56.0426 116.787 59.3416 116.636 61.6706C116.553 62.9725 115.925 63.5318 116.004 66.6444C116.004 68.7584 117.549 71.8363 117.691 74.8098L129.288 75.0247Z" fill="white"/>
<path id="Vector_102" d="M127.095 85.8731L135.264 85.0198L130.088 70.5154C130.088 70.5154 130.517 70.3701 131.257 67.5956C131.617 66.2431 131.99 64.8085 132.306 63.5319C132.658 62.2621 132.936 60.9727 133.137 59.6703C133.219 58.1156 131.333 55.6508 131.333 55.6508L126.552 55.063C126.552 55.063 125.638 58.3652 125.446 64.6758C125.253 70.9863 127.095 85.8731 127.095 85.8731Z" fill="#407BFF"/>
<path id="Vector_103" d="M122.428 54.6965C122.428 54.6965 118.32 59.6545 117.309 63.2285C116.645 65.5795 117.941 72.3609 117.802 74.1526C117.549 77.1104 116.244 80.7254 114.55 86.0247L113.431 85.8667L116.515 74.1368C116.515 74.1368 115.087 65.2888 115.466 63.0768C115.846 60.8648 119.141 55.4928 119.141 55.4928L120.646 55.3917L122.428 54.6965Z" fill="#407BFF"/>
<path id="Vector_104" d="M126.678 54.3678C126.678 54.3678 124.829 58.0176 125.528 67.1974L128.612 60.5962L127.5 58.795L128.975 55.8467C128.975 55.8467 127.395 54.8324 126.735 54.2952L126.678 54.3678Z" fill="#407BFF"/>
<path id="Vector_105" opacity="0.2" d="M130.663 66.8435C130.775 67.1513 130.983 67.415 131.257 67.5956C131.617 66.2431 131.99 64.8084 132.306 63.5318C131.475 62.5206 130.773 61.6769 130.773 61.6769C130.773 61.6769 129.816 64.6726 130.663 66.8435Z" fill="black"/>
<path id="Vector_106" d="M123.998 69.046C124.017 67.782 123.701 67.5861 123.528 67.3586C123.349 67.1933 123.237 66.9686 123.212 66.7266C123.212 66.4548 123.101 65.2667 123.079 64.8875C123.057 64.5083 122.886 63.9395 122.937 63.7467V63.7088C122.757 63.6147 122.553 63.5793 122.352 63.6077L122.232 63.6298C122.13 63.6618 122.021 63.6683 121.916 63.6488L121.783 63.6203C121.692 63.5936 121.597 63.5819 121.502 63.5856C121.443 63.5899 121.386 63.6037 121.331 63.6266C121.331 63.6582 121.341 63.6993 121.36 63.7499C121.41 63.9426 121.243 64.5083 121.224 64.8906C121.205 65.273 121.107 66.4706 121.094 66.7329C121.069 66.9748 120.956 67.1993 120.778 67.3649C120.605 67.5924 120.289 67.7915 120.311 69.0524C120.333 70.3132 120.361 73.1193 120.361 73.1193C120.361 73.2488 120.361 73.391 120.361 73.5237C120.364 73.8076 120.468 74.081 120.655 74.2948C120.825 74.4252 121.036 74.4903 121.249 74.4781H123.038C123.237 74.4869 123.434 74.4327 123.6 74.3232C123.976 74.0072 123.916 73.5111 123.932 73.1129C123.964 73.1098 123.979 70.3069 123.998 69.046Z" fill="#407BFF"/>
<path id="Vector_107" d="M122.779 63.4623H121.508C121.379 63.4623 121.274 63.567 121.274 63.6961V63.7151C121.274 63.8442 121.379 63.9489 121.508 63.9489H122.779C122.908 63.9489 123.012 63.8442 123.012 63.7151V63.6961C123.012 63.567 122.908 63.4623 122.779 63.4623Z" fill="#407BFF"/>
<g id="Group_3" opacity="0.4">
<path id="Vector_108" d="M123.262 67.5734L123.196 67.4944C123.019 67.3112 122.913 67.0719 122.896 66.8182C122.896 66.676 122.854 66.262 122.826 65.8702C122.801 65.5289 122.772 65.1782 122.763 64.998C122.763 64.938 122.763 64.1101 122.741 64.05H121.66C121.66 64.1196 121.575 64.9506 121.572 64.998C121.572 65.175 121.537 65.5289 121.511 65.8702C121.48 66.2715 121.451 66.6823 121.445 66.8182C121.427 67.0719 121.321 67.3112 121.145 67.4944C121.123 67.5197 121.104 67.5482 121.082 67.5766L121.006 67.6682C120.854 67.8452 120.646 68.0917 120.665 69.1187C120.665 69.5737 120.68 70.0256 120.687 70.4806C120.687 71.2801 120.712 72.0796 120.712 72.8791C120.665 73.2014 120.739 73.5296 120.917 73.8018C121.12 74.0578 121.609 74.042 121.925 74.042C122.279 74.0504 122.632 74.0399 122.984 74.0104C123.162 74.0027 123.334 73.947 123.483 73.8492C123.717 73.6722 123.663 73.1982 123.667 72.9644C123.667 72.3672 123.667 71.7699 123.667 71.1758C123.667 70.487 123.667 69.8013 123.689 69.1124C123.689 68.0854 123.493 67.8484 123.341 67.6619C123.313 67.6341 123.287 67.6045 123.262 67.5734Z" fill="white"/>
</g>
<path id="Vector_109" d="M122.197 72.9676C122.038 72.968 121.881 72.9371 121.734 72.8766C121.587 72.8161 121.454 72.7273 121.342 72.6152C121.229 72.503 121.14 72.3698 121.079 72.2231C121.018 72.0765 120.987 71.9193 120.987 71.7605V70.0762C120.987 69.7552 121.114 69.4474 121.341 69.2204C121.568 68.9934 121.876 68.8659 122.197 68.8659C122.518 68.8667 122.825 68.9946 123.051 69.2215C123.277 69.4484 123.404 69.7557 123.404 70.0762V71.7605C123.404 72.0806 123.277 72.3877 123.051 72.614C122.824 72.8404 122.517 72.9676 122.197 72.9676Z" fill="#407BFF"/>
<path id="Vector_110" d="M121.682 69.106L124.359 69.8802L124.918 71.6656C124.662 73.1161 121.894 72.4967 121.894 72.4967L121.325 72.857C120.867 73.1508 119.77 72.8285 119.676 72.2882L119.612 70.9041C119.562 70.6229 119.928 70.0825 120.153 69.9087L121 69.2419C121.095 69.1674 121.206 69.1162 121.325 69.0926C121.443 69.069 121.566 69.0736 121.682 69.106Z" fill="#B97964"/>
<path id="Vector_111" d="M131.203 55.6413C133.004 55.5655 137.166 64.2302 138.787 68.4551C139.268 69.7191 138.209 71.2991 137.28 71.5677C135.194 72.1428 124.75 72.7179 124.75 72.7179L124.355 69.6085L133.235 67.7473L130.391 63.4623C130.391 63.4623 129.329 61.3009 129.525 59.2974C129.721 57.294 131.203 55.6413 131.203 55.6413Z" fill="#407BFF"/>
<path id="Vector_112" d="M121.793 49.7826C122.019 50.0644 122.225 50.3622 122.409 50.6738L122.589 50.6042C123.395 50.2882 123.66 49.8648 123.711 49.5014C123.732 49.324 123.711 49.144 123.648 48.9768C123.615 48.8805 123.569 48.7891 123.512 48.7051C123.196 49.1317 122.463 49.4919 122.064 49.6689C121.9 49.7416 121.793 49.7826 121.793 49.7826Z" fill="#263238"/>
<path id="Vector_113" d="M122.064 49.6689L122.254 49.9248C123.012 49.6088 123.502 49.2928 123.648 48.9768C123.615 48.8805 123.569 48.7891 123.512 48.7051C123.189 49.1317 122.463 49.4919 122.064 49.6689Z" fill="white"/>
<path id="Vector_114" d="M122.589 50.6042C123.395 50.2882 123.66 49.8648 123.711 49.5014C123.408 49.6315 123.13 49.8133 122.889 50.0386C122.733 50.1916 122.628 50.3892 122.589 50.6042Z" fill="#DE5753"/>
<g id="Group_4" opacity="0.2">
<path id="Vector_115" d="M126.678 54.3678C126.678 54.3678 124.829 58.0176 125.528 67.1974L128.612 60.5962L127.5 58.795L128.975 55.8467C128.975 55.8467 127.395 54.8324 126.735 54.2952L126.678 54.3678Z" fill="black"/>
</g>
<path id="Vector_116" opacity="0.2" d="M133.238 67.7473C133.238 67.7473 134.556 67.545 135.39 68.2402C135.39 68.2402 134.49 66.7993 132.862 67.1974L133.238 67.7473Z" fill="black"/>
<path id="Vector_117" d="M117.214 67.2511C116.807 65.9947 116.617 64.6782 116.651 63.358C116.775 61.4904 116.806 60.0937 116.806 60.0937L118.927 58.5295L118.645 56.6177C118.645 56.6177 119.669 55.9857 120.617 55.3537C121.268 54.9145 122.542 54.2509 122.709 54.3014C122.709 54.3014 117.293 61.1523 117.268 63.9552C117.236 66.6539 117.214 67.2511 117.214 67.2511Z" fill="#407BFF"/>
<path id="Vector_118" opacity="0.3" d="M117.214 67.2511C116.807 65.9947 116.617 64.6782 116.651 63.358C116.775 61.4904 116.806 60.0937 116.806 60.0937L118.927 58.5295L118.645 56.6177C118.645 56.6177 119.669 55.9857 120.617 55.3537C121.268 54.9145 122.542 54.2509 122.709 54.3014C122.709 54.3014 117.293 61.1523 117.268 63.9552C117.236 66.6539 117.214 67.2511 117.214 67.2511Z" fill="black"/>
<path id="Vector_119" opacity="0.3" d="M116.237 72.3167L115.432 65.134V72.7875C115.709 72.6458 115.978 72.4886 116.237 72.3167Z" fill="black"/>
<path id="Vector_120" opacity="0.2" d="M125.762 72.6579L130.732 72.3198L131.026 73.1414L125.853 73.7986L125.762 72.6579Z" fill="black"/>
<path id="Vector_121" d="M121.344 56.1216L122.801 54.1213L123.493 55.3127L125.594 53.7611L126.725 54.2951L125.705 57.2908C125.705 57.2908 123.152 58.3336 123.016 58.3336C122.88 58.3336 121.344 56.1216 121.344 56.1216Z" fill="white"/>
<path id="Vector_122" opacity="0.3" d="M121.274 56.2164L121.869 57.689L123.351 56.2164L124.359 57.945L125.866 57.2087L124.261 58.479L123.332 56.583L121.632 58.182L121.274 56.2164Z" fill="black"/>
<path id="Vector_123" d="M123.998 69.046C124.017 67.782 123.701 67.5861 123.528 67.3586C123.349 67.1933 123.237 66.9686 123.212 66.7266C123.212 66.4548 123.101 65.2667 123.079 64.8875C123.057 64.5083 122.886 63.9395 122.937 63.7467V63.7088C122.757 63.6147 122.553 63.5793 122.352 63.6077L122.232 63.6298C122.13 63.6618 122.021 63.6683 121.916 63.6488L121.783 63.6203C121.692 63.5936 121.597 63.5819 121.502 63.5856C121.443 63.5899 121.386 63.6037 121.331 63.6266C121.331 63.6582 121.341 63.6993 121.36 63.7499C121.41 63.9426 121.243 64.5083 121.224 64.8906C121.205 65.273 121.107 66.4706 121.094 66.7329C121.069 66.9748 120.956 67.1993 120.778 67.3649C120.605 67.5924 120.289 67.7915 120.311 69.0524C120.333 70.3132 120.361 73.1193 120.361 73.1193C120.361 73.2488 120.361 73.391 120.361 73.5237C120.364 73.8076 120.468 74.081 120.655 74.2948C120.825 74.4252 121.036 74.4903 121.249 74.4781H123.038C123.237 74.4869 123.434 74.4327 123.6 74.3232C123.976 74.0072 123.916 73.5111 123.932 73.1129C123.964 73.1098 123.979 70.3069 123.998 69.046Z" fill="white"/>
<path id="Vector_124" d="M122.779 63.4623H121.508C121.379 63.4623 121.274 63.567 121.274 63.6961V63.7151C121.274 63.8442 121.379 63.9489 121.508 63.9489H122.779C122.908 63.9489 123.012 63.8442 123.012 63.7151V63.6961C123.012 63.567 122.908 63.4623 122.779 63.4623Z" fill="white"/>
</g>
<g id="freepik--character-2--inject-68">
<path id="Vector_125" d="M103.872 76.1307C104.413 76.5889 105.497 79.4108 105.19 79.8469C104.947 80.1977 104.372 78.5513 104.372 78.5513L103.872 76.1307Z" fill="#895555"/>
<path id="Vector_126" d="M101.054 73.8018C101.054 73.8018 103.967 75.486 104.011 76.2508C104.056 77.0155 105.019 80.4125 103.986 80.3935C103.853 80.3935 103.449 79.2212 103.338 79.2338C103.228 79.2464 103.49 79.9922 103.338 80.3682C103.133 80.8549 101.679 80.6305 101.471 80.0522C101.198 79.3175 100.976 78.5646 100.807 77.7992C100.807 77.7992 99.1703 76.7248 98.9112 75.5872C98.652 74.4496 101.054 73.8018 101.054 73.8018Z" fill="#895555"/>
<path id="Vector_127" opacity="0.2" d="M102.943 79.2876C102.9 79.2864 102.858 79.2789 102.817 79.2655C102.729 79.2221 102.652 79.1595 102.592 79.0824C102.532 79.0052 102.49 78.9155 102.469 78.8199C102.251 78.2165 102.116 77.586 102.068 76.946C101.64 76.9789 101.212 76.8808 100.841 76.6646C100.47 76.4484 100.174 76.1244 99.9919 75.7357C99.9842 75.7164 99.9842 75.6949 99.9919 75.6755C99.9995 75.6561 100.014 75.6404 100.033 75.6315C100.052 75.6228 100.073 75.6219 100.093 75.629C100.112 75.6361 100.128 75.6506 100.137 75.6694C100.31 76.0412 100.596 76.3488 100.954 76.548C101.312 76.7473 101.724 76.828 102.131 76.7785C102.142 76.777 102.153 76.7776 102.163 76.7803C102.173 76.783 102.183 76.7878 102.191 76.7943C102.209 76.8084 102.22 76.8288 102.223 76.8512C102.258 77.5056 102.387 78.1515 102.605 78.7693C102.659 78.9147 102.728 79.0695 102.858 79.1169C102.927 79.1312 102.999 79.1229 103.063 79.0933C103.128 79.0638 103.181 79.0145 103.215 78.9526C103.292 78.8075 103.335 78.6462 103.338 78.4818C103.408 77.6804 103.376 76.8735 103.244 76.0802C103.241 76.07 103.241 76.0594 103.243 76.0491C103.245 76.0389 103.249 76.0291 103.255 76.0205C103.261 76.0119 103.269 76.0047 103.278 75.9991C103.286 75.9936 103.296 75.99 103.307 75.9885C103.327 75.9848 103.348 75.9894 103.366 76.0013C103.383 76.0131 103.395 76.0312 103.398 76.0517C103.534 76.8596 103.566 77.6816 103.493 78.4976C103.491 78.6871 103.441 78.8729 103.348 79.0379C103.305 79.1086 103.246 79.1681 103.176 79.2115C103.105 79.2549 103.026 79.281 102.943 79.2876Z" fill="black"/>
<path id="Vector_128" d="M91.6052 64.5588L90.6383 62.2141H90.6699C89.8514 59.8251 87.8512 54.0802 86.3249 50.7938C85.2568 47.163 82.1663 48.3227 82.1663 48.3227C80.087 49.6467 79.0063 53.9159 83.9327 62.5143L86.682 67.8483C86.9129 68.4283 87.3097 68.9273 87.8227 69.283L98.3866 76.5984L101.888 72.996L91.6052 64.5588Z" fill="#263238"/>
<path id="Vector_129" d="M73.1003 46.8249C73.1003 46.8249 73.5774 44.8057 72.7053 41.1369L72.9012 41.0547C72.7811 40.5428 72.6515 40.0688 72.5251 39.658C72.5247 39.6528 72.5247 39.6475 72.5251 39.6422L77.3094 42.9318C77.1387 44.0789 77.4421 46.3256 77.6443 47.2799C77.6443 47.2799 78.1847 49.0148 75.9127 48.9769C74.26 48.98 73.1003 46.8249 73.1003 46.8249Z" fill="#895555"/>
<path id="Vector_130" d="M71.4697 31.284C71.4697 31.284 72.9423 27.9186 77.0503 29.3153C79.6383 30.1938 81.4743 31.3503 81.2025 33.6887C81.0224 35.2403 79.5214 36.4 78.5671 36.3337C77.6127 36.2673 70.6481 33.8625 70.6481 33.8625C70.6481 33.8625 69.0807 31.9539 71.4697 31.284Z" fill="#263238"/>
<g id="Group_5" opacity="0.2">
<path id="Vector_131" d="M74.7371 43.7723C75.0717 44.1137 75.4709 44.385 75.9114 44.5706C76.352 44.7561 76.825 44.8521 77.303 44.853C77.303 44.7709 77.303 44.6445 77.2841 44.5591C77.2651 44.4738 77.2841 44.2432 77.262 44.0883C77.2525 43.9115 77.2525 43.7343 77.262 43.5574C77.262 43.4879 77.2999 43.5005 77.3062 43.4279L77.322 43.2857L74.4622 42.3156C74.2252 42.483 74.26 43.2225 74.7371 43.7723Z" fill="black"/>
</g>
<path id="Vector_132" d="M70.863 36.7508C70.6968 36.0389 70.7153 35.2964 70.9166 34.5937C71.1178 33.8909 71.4953 33.2513 72.0131 32.7353C72.531 32.2194 73.172 31.8443 73.8755 31.6456C74.579 31.4469 75.3215 31.4312 76.0328 31.6C79.2655 32.3489 80.4252 36.8866 80.204 39.7812C79.948 42.976 76.3551 45.0173 73.628 42.9981C71.8079 41.6551 71.5614 39.8381 70.8757 36.7508H70.863Z" fill="#895555"/>
<path id="Vector_133" d="M73.0718 31.916C73.0718 31.916 75.8116 34.463 78.4881 33.1484C81.1646 31.8339 75.2617 29.2111 73.0718 31.916Z" fill="#263238"/>
<path id="Vector_134" d="M73.628 37.841C73.1287 38.4193 72.6958 37.841 71.5076 37.209C71.3278 37.1082 71.126 37.0528 70.9198 37.0478C71.1979 38.0748 71.4665 38.9438 71.6846 39.5411C71.7436 39.7138 71.8132 39.8826 71.8931 40.0467C71.0629 39.0914 70.2925 38.0856 69.5863 37.0352C69.5234 36.9227 69.4696 36.8054 69.4252 36.6844C69.4441 36.6434 69.4599 36.6023 69.4821 36.5644C69.5667 36.3906 69.6728 36.2281 69.7981 36.0809C69.9993 35.8452 70.2334 35.6398 70.4933 35.471C71.2927 34.9727 72.1888 34.6495 73.1224 34.523C73.195 35.4931 74.0293 37.367 73.628 37.841Z" fill="#263238"/>
<path id="Vector_135" d="M73.8302 32.6934C73.8302 32.6934 73.0876 33.3032 73.0971 34.0427C73.115 34.5514 73.1925 35.0562 73.3278 35.5468C73.3278 35.5468 71.0747 36.2484 70.5217 36.0935C69.9687 35.9387 69.6938 34.3144 69.6938 34.3144C69.6938 34.3144 72.4651 31.6253 73.451 31.7864C74.4369 31.9476 73.8302 32.6934 73.8302 32.6934Z" fill="#263238"/>
<path id="Vector_136" d="M71.5614 31.7927C71.1487 31.7089 70.7201 31.7583 70.3373 31.9338C69.9545 32.1093 69.6373 32.4018 69.4315 32.7692C68.572 34.0964 68.9101 35.7996 69.4315 36.6781C69.9529 37.5566 73.075 34.76 71.5614 31.7927Z" fill="#263238"/>
<path id="Vector_137" d="M70.0067 38.9849C70.164 39.358 70.3936 39.6963 70.682 39.9805C70.9705 40.2647 71.3123 40.489 71.6878 40.6407C72.699 41.0357 72.9518 39.9455 72.7843 38.9312C72.62 38.0179 72.2534 36.9214 71.2043 36.9593C70.1552 36.9973 69.6243 38.0559 70.0067 38.9849Z" fill="#895555"/>
<path id="Vector_138" d="M75.3091 37.4302C75.3376 37.7462 75.5303 37.9927 75.742 37.9737C75.9537 37.9548 76.0959 37.6767 76.058 37.3417C76.0201 37.0068 75.84 36.7761 75.6283 36.7982C75.4165 36.8203 75.2807 37.1111 75.3091 37.4302Z" fill="#263238"/>
<path id="Vector_139" d="M78.4154 37.2216C78.4438 37.5376 78.6366 37.7841 78.8451 37.7652C79.0537 37.7462 79.2022 37.4681 79.1611 37.1332C79.1201 36.7982 78.9399 36.5707 78.7314 36.5928C78.5228 36.6149 78.3869 36.8993 78.4154 37.2216Z" fill="#263238"/>
<path id="Vector_140" d="M77.4895 36.8361C77.4895 36.8361 78.6461 38.3371 79.0284 38.9565C78.6176 39.3989 77.8339 39.2725 77.8339 39.2725L77.4895 36.8361Z" fill="#773737"/>
<path id="Vector_141" d="M74.4875 35.708C74.5131 35.7158 74.5404 35.7167 74.5665 35.7106C74.5926 35.7045 74.6166 35.6916 74.636 35.6732C74.7696 35.5379 74.9339 35.4367 75.1148 35.3784C75.2958 35.3201 75.4882 35.3063 75.6757 35.3383C75.7146 35.347 75.7554 35.3403 75.7895 35.3197C75.8237 35.2991 75.8485 35.2662 75.859 35.2277C75.8637 35.2086 75.8645 35.1887 75.8615 35.1693C75.8584 35.1499 75.8516 35.1313 75.8413 35.1145C75.831 35.0977 75.8175 35.0832 75.8015 35.0717C75.7856 35.0602 75.7675 35.052 75.7484 35.0475C75.5121 35.0055 75.2693 35.0205 75.04 35.0914C74.8108 35.1623 74.6018 35.2871 74.4306 35.4552C74.4166 35.469 74.4054 35.4855 74.3978 35.5037C74.3902 35.5218 74.3863 35.5413 74.3863 35.561C74.3863 35.5808 74.3902 35.6003 74.3978 35.6184C74.4054 35.6366 74.4166 35.6531 74.4306 35.6669C74.4452 35.6858 74.465 35.7001 74.4875 35.708Z" fill="#263238"/>
<path id="Vector_142" opacity="0.2" d="M72.2344 38.9438C72.2165 38.9435 72.1992 38.937 72.1854 38.9255C72.1716 38.914 72.1622 38.8982 72.1586 38.8806C72.1047 38.6159 71.9827 38.3697 71.8047 38.1665C71.6636 38.0037 71.4724 37.8925 71.2611 37.8505C71.161 37.8328 71.0579 37.8449 70.9646 37.8853C70.8714 37.9258 70.7921 37.9928 70.7366 38.078C70.7314 38.0871 70.7245 38.0951 70.7162 38.1016C70.7079 38.108 70.6984 38.1128 70.6883 38.1156C70.6782 38.1184 70.6676 38.1191 70.6572 38.1178C70.6467 38.1165 70.6367 38.1132 70.6276 38.108C70.6184 38.1028 70.6104 38.0959 70.604 38.0876C70.5975 38.0793 70.5928 38.0698 70.59 38.0597C70.5872 38.0496 70.5864 38.039 70.5877 38.0286C70.589 38.0182 70.5924 38.0081 70.5975 37.999C70.6677 37.8835 70.7708 37.7917 70.8935 37.7354C71.0163 37.6791 71.1532 37.6608 71.2864 37.683C71.5343 37.7352 71.7571 37.87 71.9184 38.0653C72.1145 38.2896 72.2495 38.5606 72.3103 38.8522C72.314 38.8727 72.3094 38.8939 72.2975 38.911C72.2857 38.9282 72.2676 38.94 72.2471 38.9438H72.2344Z" fill="black"/>
<path id="Vector_143" d="M79.8184 35.4489C79.8457 35.4403 79.8699 35.4238 79.8879 35.4015C79.9008 35.3864 79.9106 35.369 79.9166 35.3501C79.9226 35.3312 79.9248 35.3113 79.923 35.2916C79.9213 35.2719 79.9156 35.2527 79.9063 35.2352C79.897 35.2177 79.8843 35.2023 79.869 35.1898C79.6888 35.0344 79.4738 34.9245 79.2423 34.8695C79.0108 34.8146 78.7694 34.816 78.5386 34.8738C78.5006 34.8861 78.469 34.9129 78.4506 34.9484C78.4323 34.9839 78.4287 35.0252 78.4406 35.0634C78.4461 35.0823 78.4552 35.1001 78.4676 35.1155C78.48 35.1309 78.4953 35.1437 78.5126 35.1531C78.53 35.1625 78.5491 35.1683 78.5687 35.1703C78.5884 35.1723 78.6082 35.1703 78.6271 35.1645C78.8103 35.1179 79.0021 35.1171 79.1857 35.1623C79.3692 35.2075 79.5388 35.2973 79.6794 35.4236C79.6985 35.4393 79.7213 35.4498 79.7456 35.4543C79.7699 35.4587 79.795 35.4568 79.8184 35.4489Z" fill="#263238"/>
<path id="Vector_144" d="M75.524 39.9518C76.181 40.2922 76.9143 40.4587 77.6538 40.4353C77.6538 40.4353 77.4074 41.3644 76.5384 41.2885C75.4956 41.1937 75.524 39.9518 75.524 39.9518Z" fill="white"/>
<path id="Vector_145" d="M76.5131 39.5474C77.0114 39.553 77.4911 39.7369 77.8656 40.0656C78.0069 40.1798 78.1159 40.3291 78.1816 40.4985C78.3396 41.0041 76.551 40.6502 75.8147 40.369C75.0785 40.0877 75.2523 39.8002 75.6662 39.6295C75.9413 39.5518 76.2282 39.524 76.5131 39.5474Z" fill="#263238"/>
<path id="Vector_146" opacity="0.3" d="M73.1603 34.76C73.1603 34.76 71.8552 35.6006 70.5502 35.3604C69.2451 35.1203 68.9038 34.8295 68.9038 34.8295L68.9986 35.5405C69.751 35.9451 70.597 36.1435 71.4508 36.1157C72.8001 36.043 73.372 35.7048 73.372 35.7048L73.1603 34.76Z" fill="white"/>
<path id="Vector_147" d="M89.9368 131.494L92.6891 138.926L95.1855 138.12L94.326 130.274L89.9368 131.494Z" fill="#263238"/>
<path id="Vector_148" d="M92.4205 142.055L94.683 142.036C94.906 141.91 95.1545 141.837 95.4098 141.821C95.6753 141.852 96.6106 142.023 96.6106 142.023L102.615 141.976C102.57 141.747 102.51 141.523 102.435 141.303C102.361 141.082 102.263 140.87 102.144 140.671C101.998 140.417 101.789 140.206 101.537 140.057C101.285 139.909 100.998 139.828 100.706 139.824C99.8623 139.776 97.2016 138.029 97.2016 138.029C96.92 137.924 96.6741 137.741 96.4928 137.502C96.3114 137.262 96.2021 136.976 96.1777 136.676C96.1556 136.294 95.5868 135.829 95.315 135.795C94.7652 135.719 94.4618 136.07 94.386 136.619L94.3007 137.251L93.0367 137.062C93.0367 137.062 91.7379 136.43 91.8074 137.062C91.8454 137.422 92.0729 139.027 92.2182 140.298C92.253 140.595 92.2846 140.876 92.313 141.122C92.3762 141.679 92.4205 142.055 92.4205 142.055Z" fill="#263238"/>
<g id="Group_6" opacity="0.2">
<path id="Vector_149" d="M102.621 141.976L96.617 142.023C96.617 142.023 95.669 141.852 95.4162 141.821C95.1608 141.837 94.9124 141.91 94.6894 142.036L92.4268 142.055C92.4268 142.055 92.3826 141.679 92.3194 141.132L102.447 141.303C102.52 141.523 102.578 141.748 102.621 141.976Z" fill="white"/>
</g>
<path id="Vector_150" d="M98.5319 138.686C98.517 138.675 98.4987 138.668 98.4798 138.668C98.4609 138.668 98.4426 138.675 98.4276 138.686C98.2731 138.79 98.1497 138.934 98.0706 139.103C98.0263 139.195 98.1622 139.283 98.2064 139.189C98.277 139.04 98.3862 138.914 98.5224 138.822C98.5317 138.814 98.5392 138.805 98.5443 138.794C98.5495 138.783 98.5521 138.771 98.5521 138.759C98.5521 138.747 98.5495 138.735 98.5443 138.724C98.5392 138.713 98.5317 138.703 98.5224 138.696L98.5319 138.686Z" fill="#407BFF"/>
<path id="Vector_151" d="M98.0516 138.408C98.0367 138.396 98.0184 138.39 97.9995 138.39C97.9806 138.39 97.9623 138.396 97.9474 138.408C97.7934 138.513 97.6702 138.657 97.5903 138.825C97.546 138.917 97.6819 139.005 97.7262 138.91C97.7968 138.762 97.9059 138.635 98.0422 138.544C98.0515 138.536 98.0589 138.526 98.064 138.516C98.0692 138.505 98.0718 138.493 98.0718 138.481C98.0718 138.469 98.0692 138.457 98.064 138.446C98.0589 138.435 98.0515 138.425 98.0422 138.417L98.0516 138.408Z" fill="#407BFF"/>
<path id="Vector_152" d="M97.5555 138.149C97.5406 138.137 97.5222 138.131 97.5034 138.131C97.4845 138.131 97.4662 138.137 97.4512 138.149C97.2982 138.254 97.1761 138.398 97.0973 138.566C97.0531 138.658 97.1889 138.746 97.2332 138.651C97.3027 138.502 97.4121 138.375 97.5492 138.285C97.558 138.277 97.5651 138.267 97.5699 138.256C97.5747 138.245 97.5772 138.233 97.5772 138.222C97.5772 138.21 97.5747 138.198 97.5699 138.187C97.5651 138.176 97.558 138.166 97.5492 138.158L97.5555 138.149Z" fill="#407BFF"/>
<path id="Vector_153" d="M71.9627 130.514L70.8599 138.604L68.2244 138.737L67.3712 130.938L71.9627 130.514Z" fill="#263238"/>
<path id="Vector_154" d="M65.9808 142.358H71.8774C71.8774 142.358 72.0037 142.111 71.8584 141.451C71.8363 141.35 71.8047 141.236 71.7668 141.113C71.7668 141.113 71.7668 141.113 71.7668 141.094C71.7099 140.914 71.6467 140.689 71.5803 140.446C71.3086 139.457 70.9926 138.168 70.9926 138.168C70.9926 138.168 70.0098 136.07 68.8627 136.588C67.8578 137.046 68.0948 138.364 68.0948 138.364C67.9783 138.931 67.6745 139.443 67.2321 139.817C66.7613 140.238 66.2842 140.563 66.0661 141.081C66.0216 141.183 65.9877 141.289 65.965 141.397C65.9665 141.411 65.9665 141.425 65.965 141.438C65.9112 141.743 65.9166 142.055 65.9808 142.358Z" fill="#263238"/>
<g id="Group_7" opacity="0.2">
<path id="Vector_155" d="M71.8584 141.451C72.0038 142.111 71.8774 142.358 71.8774 142.358H65.9808C65.9151 142.06 65.9065 141.752 65.9555 141.451H71.8584Z" fill="white"/>
</g>
<path id="Vector_156" d="M68.3286 138.699C68.4829 138.576 68.6772 138.515 68.8739 138.527C69.0706 138.539 69.2557 138.624 69.3936 138.765C69.4757 138.844 69.599 138.721 69.5168 138.642C69.346 138.469 69.1167 138.366 68.874 138.354C68.6313 138.342 68.3928 138.421 68.2054 138.575C68.1169 138.645 68.2433 138.768 68.3286 138.699Z" fill="#407BFF"/>
<path id="Vector_157" d="M68.1643 139.252C68.318 139.128 68.5126 139.066 68.7097 139.078C68.9068 139.09 69.0922 139.176 69.2293 139.318C69.3083 139.394 69.4315 139.271 69.3525 139.195C69.182 139.021 68.9526 138.918 68.7097 138.906C68.4668 138.894 68.2282 138.973 68.0411 139.128C67.9526 139.195 68.0759 139.318 68.1643 139.252Z" fill="#407BFF"/>
<path id="Vector_158" d="M67.9969 139.757C68.1508 139.634 68.3452 139.572 68.5421 139.585C68.7391 139.597 68.9243 139.682 69.0618 139.824C69.0788 139.836 69.0995 139.841 69.1202 139.839C69.141 139.838 69.1604 139.828 69.1751 139.814C69.1898 139.799 69.1989 139.78 69.2007 139.759C69.2025 139.738 69.197 139.717 69.185 139.7C69.0142 139.528 68.7849 139.425 68.5422 139.413C68.2995 139.4 68.061 139.479 67.8736 139.634C67.7851 139.704 67.9084 139.824 67.9969 139.757Z" fill="#407BFF"/>
<path id="Vector_159" d="M65.8702 79.2054L78.5987 79.3128L86.0026 78.0172C86.0026 78.0172 91.7885 102.536 92.2499 106.953C92.7112 111.371 97.584 136.272 97.584 136.272L91.1249 137.302C91.1249 137.302 83.8064 111.074 83.3102 108.691C82.8805 106.609 78.1215 93.2547 76.9049 89.8609C76.7817 90.5561 76.6584 91.2545 76.5289 91.9465C76.2129 95.0781 75.2364 105.06 74.8067 108.773C74.8067 108.773 73.1919 131.235 72.9644 137.605L66.8972 137.289C66.1483 128.555 65.8955 96.696 65.8955 96.696C65.4752 90.0157 65.8702 79.2054 65.8702 79.2054Z" fill="#407BFF"/>
<g id="Group_8" opacity="0.5">
<path id="Vector_160" d="M83.168 82.5866C83.5349 83.7597 84.1848 84.8244 85.0605 85.6869C85.9362 86.5493 87.0107 87.183 88.1892 87.532C88.2127 87.5419 88.2318 87.56 88.2428 87.583C88.2538 87.606 88.256 87.6322 88.249 87.6567C88.242 87.6812 88.2263 87.7023 88.2048 87.716C88.1833 87.7297 88.1575 87.7351 88.1324 87.7311C86.9184 87.3705 85.8122 86.7162 84.9115 85.826C84.0109 84.9358 83.3436 83.8373 82.9689 82.6277C82.9278 82.5013 83.1301 82.4444 83.168 82.574V82.5866Z" fill="black"/>
<path id="Vector_161" d="M76.7027 82.5866L77.1198 88.796C77.1198 88.9287 77.3347 88.9287 77.3283 88.796C77.2525 87.7343 77.183 86.6693 77.1135 85.6044C77.6254 85.9994 78.2226 85.5223 78.3775 84.9945C78.6062 84.0978 78.5909 83.1563 78.3332 82.2675C78.3232 82.2446 78.3053 82.2261 78.2828 82.2154C78.2603 82.2046 78.2347 82.2022 78.2106 82.2087C78.1865 82.2152 78.1655 82.2302 78.1515 82.2508C78.1375 82.2714 78.1313 82.2964 78.1341 82.3212C78.2859 82.9195 78.3424 83.538 78.3016 84.154C78.302 84.4852 78.2353 84.813 78.1057 85.1178C77.9414 85.4338 77.5274 85.7087 77.1988 85.418C77.1843 85.4043 77.166 85.3951 77.1463 85.3917C77.1267 85.3884 77.1064 85.3909 77.0882 85.399C77.025 84.451 76.9618 83.522 76.8986 82.5835C76.9017 82.4507 76.6963 82.4507 76.7027 82.5866Z" fill="black"/>
<path id="Vector_162" d="M70.6133 82.9374C70.6262 84.2604 70.1366 85.539 69.2433 86.515C68.35 87.491 67.1196 88.0916 65.8007 88.1956C65.6679 88.1956 65.6679 88.0028 65.8007 87.9934C67.0657 87.8888 68.2443 87.3094 69.0995 86.3715C69.9548 85.4335 70.4234 84.2066 70.4111 82.9374C70.4111 82.9105 70.4217 82.8848 70.4407 82.8659C70.4597 82.8469 70.4854 82.8362 70.5122 82.8362C70.539 82.8362 70.5648 82.8469 70.5837 82.8659C70.6027 82.8848 70.6133 82.9105 70.6133 82.9374Z" fill="black"/>
</g>
<path id="Vector_163" opacity="0.6" d="M84.9261 79.5882L80.5616 79.9893L80.7356 81.8836L85.1002 81.4826L84.9261 79.5882Z" fill="black"/>
<path id="Vector_164" opacity="0.6" d="M75.4557 80.5002L71.0762 80.6738L71.1516 82.5746L75.5311 82.401L75.4557 80.5002Z" fill="black"/>
<path id="Vector_165" opacity="0.6" d="M80.1084 80.0714L75.7438 80.4724L75.9179 82.3668L80.2824 81.9657L80.1084 80.0714Z" fill="black"/>
<path id="Vector_166" d="M81.1045 47.5169C75.7618 47.3118 70.4129 47.7093 65.1592 48.7019L66.8055 72.4398C66.8646 74.5515 66.759 76.6646 66.4895 78.7598C73.8839 81.6038 81.6196 81.0255 86.3312 78.0899C86.3312 78.0551 86.4323 78.0678 85.9741 73.7291C85.162 66.0882 84.2803 55.1736 83.0195 48.3006C82.9721 48.1331 81.2752 47.5264 81.1045 47.5169Z" fill="white"/>
<path id="Vector_167" d="M73.8523 62.0687C73.4447 54.9587 71.2422 46.5847 71.2422 46.5847C65.5068 48.2943 65.1592 48.4523 65.1592 48.4523C65.1592 48.4523 64.7389 55.1704 64.7926 60.6878C64.7926 62.4606 66.4737 70.8851 66.4737 72.1523L63.9141 87.0485C63.971 88.2398 71.6593 87.8101 74.5286 87.4972C75.4987 87.3835 74.26 69.1787 73.8523 62.0687Z" fill="#263238"/>
<path id="Vector_168" d="M78.2068 46.67C78.2068 46.67 81.528 54.2793 81.7744 66.044C82.0209 77.8087 82.2927 86.3596 82.2927 86.3596C82.2927 86.3596 87.731 86.9126 88.2967 85.8319C88.6127 85.2441 86.6124 73.549 86.6124 73.549C86.6124 73.549 85.1272 49.7763 84.6627 48.4491C84.6595 48.4333 78.0899 46.6416 78.2068 46.67Z" fill="#263238"/>
<path id="Vector_169" d="M73.2267 44.853L70.9294 46.7332L70.468 50.3641C70.414 51.6034 70.8039 52.8214 71.5677 53.799L72.1239 54.51L71.1348 55.36C70.9823 55.4907 70.873 55.6645 70.8211 55.8585C70.7692 56.0525 70.7772 56.2577 70.8441 56.4471L73.9377 65.1687C73.8777 62.8745 74.0546 58.7475 73.1793 52.6993C72.857 50.3198 73.2678 47.4505 73.2267 44.853Z" fill="#263238"/>
<path id="Vector_170" opacity="0.1" d="M73.2267 44.853L70.9294 46.7332L70.468 50.3641C70.414 51.6034 70.8039 52.8214 71.5677 53.799L72.1239 54.51L71.1348 55.36C70.9823 55.4907 70.873 55.6645 70.8211 55.8585C70.7692 56.0525 70.7772 56.2577 70.8441 56.4471L73.9377 65.1687C73.8777 62.8745 74.0546 58.7475 73.1793 52.6993C72.857 50.3198 73.2678 47.4505 73.2267 44.853Z" fill="white"/>
<path id="Vector_171" d="M77.5685 46.5942C77.5685 46.5942 78.7251 47.6559 79.3981 50.1681C80.0712 52.6803 81.7144 63.734 81.7492 65.1276L81.8882 65.0138L83.0037 55.42C82.9689 55.1873 82.8853 54.9645 82.7584 54.7663C82.6315 54.5681 82.4642 54.3989 82.2674 54.2698L81.1899 53.5683C81.5528 53.0429 81.7842 52.4379 81.8645 51.8044C81.9448 51.1709 81.8716 50.5273 81.6512 49.928C81.2183 48.7524 80.6779 47.4221 80.3493 47.084C79.613 46.373 78.2353 45.643 77.3062 45.1532L77.5685 46.5942Z" fill="#263238"/>
<path id="Vector_172" d="M75.4355 50.067L76.2918 51.3531L77.4168 51.2931L77.7233 49.8111L76.3708 48.3669L75.4355 50.067Z" fill="#407BFF"/>
<path id="Vector_173" opacity="0.2" d="M76.2918 51.3531L75.2396 75.2491L78.5133 78.763L80.185 75.0152L77.085 51.489L76.2918 51.3531Z" fill="black"/>
<path id="Vector_174" d="M76.2919 51.3531L76.1276 75.2175L78.5134 78.763L80.5516 75.0152L77.4232 51.2646L76.2919 51.3531Z" fill="#407BFF"/>
<path id="Vector_175" opacity="0.1" d="M77.5685 46.5942C77.5685 46.5942 78.7251 47.6559 79.3981 50.1681C80.0712 52.6803 81.7144 63.734 81.7492 65.1276L81.8882 65.0138L83.0037 55.42C82.9689 55.1873 82.8853 54.9645 82.7584 54.7663C82.6315 54.5681 82.4642 54.3989 82.2674 54.2698L81.1899 53.5683C81.5528 53.0429 81.7842 52.4379 81.8645 51.8044C81.9448 51.1709 81.8716 50.5273 81.6512 49.928C81.2183 48.7524 80.6779 47.4221 80.3493 47.084C79.613 46.373 78.2353 45.643 77.3062 45.1532L77.5685 46.5942Z" fill="white"/>
<path id="Vector_176" opacity="0.2" d="M73.0466 50.1618L75.0405 51.3531L76.4372 48.8251L77.9951 50.6485L78.2669 47.9909C78.2669 47.9909 77.4958 49.4729 77.4737 49.4066C77.4516 49.3402 76.4499 48.4207 76.4499 48.4207L74.576 49.6373L73.0971 48.8125C73.1035 48.8315 73.0466 50.1618 73.0466 50.1618Z" fill="black"/>
<path id="Vector_177" d="M73.2267 45.2038L76.1781 47.4569L77.3031 45.1343L78.3396 47.6149L77.8624 50.1871L76.3709 48.367C76.3709 48.367 75.0026 50.8254 74.892 50.8728C74.7814 50.9202 73.1003 48.841 73.1003 48.841L73.2267 45.2038Z" fill="white"/>
<path id="Vector_178" d="M73.2172 53.9033H76.7248C76.7248 53.9033 76.5889 57.3603 76.3519 58.0934C76.1149 58.8265 75.84 60.04 75.84 62.9819H72.4461C72.4461 60.0242 72.1554 58.8297 71.9247 58.0934C71.694 57.3571 71.5582 53.9033 71.5582 53.9033H73.2172Z" fill="#407BFF"/>
<path id="Vector_179" opacity="0.4" d="M73.2172 53.9033H76.7248C76.7248 53.9033 76.5889 57.3603 76.3519 58.0934C76.1149 58.8265 75.84 60.04 75.84 62.9819H72.4461C72.4461 60.0242 72.1554 58.8297 71.9247 58.0934C71.694 57.3571 71.5582 53.9033 71.5582 53.9033H73.2172Z" fill="white"/>
<path id="Vector_180" opacity="0.4" d="M76.2445 57.0127C76.2223 57.3451 76.1715 57.6749 76.0928 57.9986C75.8305 58.8139 75.5682 60.0084 75.5682 62.7102H72.7242C72.7242 60.0242 72.4367 58.8297 72.1744 57.9986C72.1018 57.6737 72.0511 57.3444 72.0227 57.0127H76.2445Z" fill="white"/>
<path id="Vector_181" d="M72.0227 57.4235C72.0227 57.4235 74.2347 56.387 74.4338 56.6145C74.6329 56.842 74.9426 57.3129 74.26 57.9196C74.26 57.9196 75.0784 58.1566 74.7593 59.4996L74.674 59.7682C74.674 59.7682 75.4798 60.3212 74.8636 61.4335C74.2474 62.5458 72.8854 63.2663 71.9026 63.5981C70.9199 63.9299 69.1408 61.4146 69.1629 61.2313L70.0793 60.416C70.3764 58.6401 71.7099 56.4944 71.7099 56.4944L72.0227 57.4235Z" fill="#895555"/>
<path id="Vector_182" opacity="0.2" d="M65.4657 64.1859L66.2525 63.3548L67.6113 56.5766L69.599 61.5789L65.7659 65.3993L65.4657 64.1859Z" fill="black"/>
<path id="Vector_183" opacity="0.2" d="M66.2115 70.0477L71.7699 63.6203C72.2888 63.4791 72.7855 63.2664 73.2456 62.9883H73.6659L66.4453 71.732L66.2115 70.0477Z" fill="black"/>
<path id="Vector_184" d="M69.0713 60.988L65.5226 64.0405L66.36 60.3907L67.1974 55.3347L66.3157 48.2279C66.3157 48.2279 62.8397 48.348 62.0055 52.219C61.8159 53.0975 61.3925 54.4499 61.1902 55.932C60.672 59.6924 59.6513 63.5792 59.6513 67.94C59.6513 70.9641 62.865 72.0922 63.7119 71.8363C65.946 71.16 72.0322 63.8731 72.0322 63.8731L69.0713 60.988Z" fill="#263238"/>
<path id="Vector_185" opacity="0.2" d="M66.2462 63.3422C65.6883 63.5305 65.1838 63.8501 64.7752 64.2741C64.3666 64.6981 64.0659 65.214 63.8983 65.7785C63.8983 65.7785 63.6898 64.979 64.3565 63.9331C65.0233 62.8871 66.4516 62.5048 66.4516 62.5048L66.2462 63.3422Z" fill="black"/>
</g>
<g id="freepik--Table--inject-68">
<path id="Vector_186" d="M88.2146 83.029H78.0678V140.999H88.2146V83.029Z" fill="#263238"/>
<path id="Vector_187" opacity="0.3" d="M88.2146 83.029H78.0678V140.999H88.2146V83.029Z" fill="white"/>
<path id="Vector_188" d="M98.6204 80.1724H67.6619V83.6452H98.6204V80.1724Z" fill="#263238"/>
<path id="Vector_189" opacity="0.3" d="M98.6204 80.1724H67.6619V83.6452H98.6204V80.1724Z" fill="white"/>
<path id="Vector_190" d="M105.275 78.6303H61.007V80.58H105.275V78.6303Z" fill="#263238"/>
<path id="Vector_191" opacity="0.3" d="M105.275 78.6303H61.007V80.58H105.275V78.6303Z" fill="white"/>
<path id="Vector_192" opacity="0.2" d="M67.6619 80.58H98.6299V81.231C98.4372 81.2468 67.6619 81.231 67.6619 81.231C67.6816 81.0144 67.6816 80.7966 67.6619 80.58Z" fill="black"/>
<path id="Vector_193" opacity="0.2" d="M88.2146 83.6452H78.0678V84.2582H88.2146V83.6452Z" fill="black"/>
<path id="Vector_194" d="M100.554 142.358H69.027C69.0266 142.18 69.0615 142.003 69.1296 141.838C69.1978 141.673 69.2978 141.523 69.4241 141.396C69.5504 141.27 69.7003 141.17 69.8654 141.102C70.0304 141.034 70.2073 140.999 70.3858 140.999H99.1924C99.3711 140.999 99.5481 141.034 99.7134 141.102C99.8786 141.17 100.029 141.27 100.155 141.396C100.282 141.522 100.382 141.672 100.451 141.837C100.519 142.002 100.554 142.179 100.554 142.358Z" fill="#263238"/>
<path id="Vector_195" opacity="0.3" d="M100.554 142.358H69.027C69.0266 142.18 69.0615 142.003 69.1296 141.838C69.1978 141.673 69.2978 141.523 69.4241 141.396C69.5504 141.27 69.7003 141.17 69.8654 141.102C70.0304 141.034 70.2073 140.999 70.3858 140.999H99.1924C99.3711 140.999 99.5481 141.034 99.7134 141.102C99.8786 141.17 100.029 141.27 100.155 141.396C100.282 141.522 100.382 141.672 100.451 141.837C100.519 142.002 100.554 142.179 100.554 142.358Z" fill="white"/>
<path id="Vector_196" d="M91.8833 73.1635C91.9023 71.8995 91.5863 71.7036 91.4093 71.476C91.2323 71.2485 91.0933 71.1221 91.0933 70.844C91.0933 70.566 90.9795 69.3841 90.9574 69.0018C90.9353 68.6194 90.7647 68.0538 90.8152 67.861V67.8262C90.6375 67.7304 90.4338 67.6939 90.2338 67.722L90.1137 67.7472C90.0112 67.7775 89.9031 67.7839 89.7977 67.7662L89.6618 67.7378C89.572 67.7094 89.4778 67.6976 89.3837 67.703C89.3254 67.7077 89.268 67.7204 89.2131 67.7409C89.2194 67.7827 89.2289 67.8239 89.2415 67.8642C89.2921 68.0601 89.1246 68.6257 89.1025 69.0049C89.0804 69.3841 88.9856 70.5849 88.9761 70.8472C88.9502 71.089 88.838 71.3134 88.6601 71.4792C88.4863 71.7067 88.1703 71.9058 88.1956 73.1666C88.2209 74.4275 88.2461 77.2304 88.2461 77.2304C88.2461 77.36 88.2461 77.5022 88.2461 77.638C88.2485 77.921 88.3528 78.1937 88.54 78.4059C88.7081 78.5393 88.9201 78.6047 89.1341 78.5892H90.06H90.9543C91.1536 78.5998 91.3509 78.5455 91.5167 78.4344C91.8896 78.1184 91.8327 77.6222 91.8327 77.2272C91.8454 77.2272 91.8643 74.4243 91.8833 73.1635Z" fill="#407BFF"/>
<path id="Vector_197" d="M90.6636 67.5798H89.3933C89.2641 67.5798 89.1594 67.6845 89.1594 67.8136V67.8326C89.1594 67.9617 89.2641 68.0664 89.3933 68.0664H90.6636C90.7927 68.0664 90.8974 67.9617 90.8974 67.8326V67.8136C90.8974 67.6845 90.7927 67.5798 90.6636 67.5798Z" fill="#407BFF"/>
<g id="Group_9" opacity="0.4">
<path id="Vector_198" d="M91.8833 73.1635C91.9023 71.8995 91.5863 71.7036 91.4093 71.476C91.2323 71.2485 91.0933 71.1221 91.0933 70.844C91.0933 70.566 90.9795 69.3841 90.9574 69.0018C90.9353 68.6194 90.7647 68.0538 90.8152 67.861V67.8262C90.6375 67.7304 90.4338 67.6939 90.2338 67.722L90.1137 67.7472C90.0112 67.7775 89.9031 67.7839 89.7977 67.7662L89.6618 67.7378C89.572 67.7094 89.4778 67.6976 89.3837 67.703C89.3254 67.7077 89.268 67.7204 89.2131 67.7409C89.2194 67.7827 89.2289 67.8239 89.2415 67.8642C89.2921 68.0601 89.1246 68.6257 89.1025 69.0049C89.0804 69.3841 88.9856 70.5849 88.9761 70.8472C88.9502 71.089 88.838 71.3134 88.6601 71.4792C88.4863 71.7067 88.1703 71.9058 88.1956 73.1666C88.2209 74.4275 88.2461 77.2304 88.2461 77.2304C88.2461 77.36 88.2461 77.5022 88.2461 77.638C88.2485 77.921 88.3528 78.1937 88.54 78.4059C88.7081 78.5393 88.9201 78.6047 89.1341 78.5892H90.06H90.9543C91.1536 78.5998 91.3509 78.5455 91.5167 78.4344C91.8896 78.1184 91.8327 77.6222 91.8327 77.2272C91.8454 77.2272 91.8643 74.4243 91.8833 73.1635Z" fill="white"/>
<path id="Vector_199" d="M90.6635 67.5798H89.3932C89.2641 67.5798 89.1594 67.6845 89.1594 67.8136V67.8326C89.1594 67.9617 89.2641 68.0664 89.3932 68.0664H90.6635C90.7927 68.0664 90.8974 67.9617 90.8974 67.8326V67.8136C90.8974 67.6845 90.7927 67.5798 90.6635 67.5798Z" fill="white"/>
</g>
<g id="Group_10" opacity="0.4">
<path id="Vector_200" d="M91.1439 71.6909C91.1218 71.6625 91.1028 71.634 91.0807 71.6088C90.8984 71.428 90.7864 71.1883 90.7647 70.9325C90.7647 70.7903 90.7268 70.3764 90.6952 69.9845C90.6699 69.6432 90.6415 69.2893 90.632 69.1124C90.632 69.0523 90.632 68.2244 90.6099 68.1644H89.5133C89.5133 68.2339 89.4312 69.0618 89.428 69.1124C89.428 69.2925 89.3901 69.6464 89.3648 69.9877C89.3364 70.3858 89.3048 70.7998 89.3016 70.9357C89.2793 71.1922 89.1675 71.4328 88.9856 71.6151L88.9224 71.6941C88.9003 71.7257 88.875 71.7541 88.8497 71.7857C88.6949 71.9658 88.4863 72.2123 88.5053 73.2393C88.5053 73.6912 88.5243 74.1462 88.5274 74.6013C88.5274 75.3976 88.5559 76.2002 88.5527 76.9966C88.5089 77.3192 88.5829 77.6468 88.7613 77.9193C88.9635 78.1752 89.4501 78.1594 89.7693 78.1626C90.0885 78.1658 90.4771 78.1626 90.8279 78.131C91.0057 78.1229 91.1782 78.0672 91.3272 77.9698C91.561 77.7897 91.5073 77.3189 91.5073 77.0819C91.5073 76.4878 91.5073 75.8906 91.5073 75.2933C91.5073 74.6076 91.5073 73.9187 91.5294 73.233C91.5452 72.206 91.3367 71.969 91.1818 71.7826L91.1439 71.6909Z" fill="white"/>
</g>
<path id="Vector_201" d="M90.0789 77.085C89.7588 77.085 89.4518 76.9578 89.2254 76.7315C88.999 76.5051 88.8718 76.198 88.8718 75.8779V74.1905C88.8718 73.8703 88.999 73.5633 89.2254 73.3369C89.4518 73.1105 89.7588 72.9833 90.0789 72.9833C90.2377 72.9829 90.395 73.0138 90.5419 73.0743C90.6887 73.1348 90.8221 73.2236 90.9346 73.3358C91.047 73.4479 91.1362 73.5811 91.197 73.7278C91.2579 73.8744 91.2892 74.0317 91.2892 74.1905V75.8779C91.2892 76.0367 91.2579 76.1939 91.197 76.3406C91.1362 76.4872 91.047 76.6204 90.9346 76.7326C90.8221 76.8447 90.6887 76.9336 90.5419 76.994C90.395 77.0545 90.2377 77.0854 90.0789 77.085Z" fill="#407BFF"/>
<path id="Vector_202" d="M78.4059 73.2267C78.4249 71.9627 78.1089 71.7668 77.9319 71.5393C77.7549 71.3117 77.6159 71.1853 77.6159 70.9073C77.6159 70.6292 77.5021 69.4473 77.48 69.065C77.4579 68.6826 77.2904 68.117 77.341 67.9242C77.3425 67.9127 77.3425 67.901 77.341 67.8895C77.1629 67.7947 76.9592 67.7593 76.7595 67.7883C76.7189 67.7921 76.6787 67.7995 76.6395 67.8105C76.5372 67.8424 76.4288 67.8489 76.3235 67.8294L76.1907 67.801C76.0995 67.7743 76.0045 67.7626 75.9095 67.7662C75.8511 67.7709 75.7937 67.7837 75.7389 67.8041C75.7389 67.8378 75.7483 67.8789 75.7673 67.9274C75.8179 68.1233 75.6504 68.6889 75.6283 69.0713C75.6061 69.4537 75.5113 70.6513 75.5019 70.9104C75.4759 71.1522 75.3638 71.3766 75.1859 71.5424C75.0121 71.7699 74.6961 71.969 74.7213 73.2299C74.7466 74.4907 74.7719 77.2936 74.7719 77.2936C74.7719 77.4263 74.7719 77.5685 74.7719 77.7013C74.7737 77.9844 74.8781 78.2572 75.0658 78.4691C75.2339 78.6025 75.4459 78.6679 75.6599 78.6524H76.5541H77.4484C77.6477 78.663 77.8451 78.6087 78.0109 78.4976C78.3838 78.1816 78.3269 77.6855 78.3269 77.2905C78.368 77.2905 78.3869 74.4875 78.4059 73.2267Z" fill="#407BFF"/>
<path id="Vector_203" d="M77.1862 67.6429H75.9158C75.7867 67.6429 75.682 67.7476 75.682 67.8768V67.8957C75.682 68.0249 75.7867 68.1296 75.9158 68.1296H77.1862C77.3153 68.1296 77.42 68.0249 77.42 67.8957V67.8768C77.42 67.7476 77.3153 67.6429 77.1862 67.6429Z" fill="#407BFF"/>
<g id="Group_11" opacity="0.4">
<path id="Vector_204" d="M78.4059 73.2266C78.4249 71.9626 78.1089 71.7667 77.9319 71.5392C77.7549 71.3117 77.6159 71.1853 77.6159 70.9072C77.6159 70.6291 77.5021 69.4473 77.48 69.0649C77.4579 68.6826 77.2904 68.1169 77.341 67.9242C77.3425 67.9126 77.3425 67.9009 77.341 67.8894C77.1629 67.7947 76.9592 67.7593 76.7595 67.7883C76.7189 67.792 76.6787 67.7994 76.6395 67.8104C76.5372 67.8424 76.4288 67.8489 76.3235 67.8294L76.1907 67.8009C76.0995 67.7742 76.0045 67.7625 75.9095 67.7662C75.8511 67.7708 75.7937 67.7836 75.7389 67.8041C75.7389 67.8378 75.7483 67.8789 75.7673 67.9273C75.8179 68.1232 75.6504 68.6889 75.6283 69.0712C75.6061 69.4536 75.5113 70.6512 75.5019 70.9104C75.4759 71.1522 75.3638 71.3765 75.1859 71.5424C75.0121 71.7699 74.6961 71.969 74.7213 73.2298C74.7466 74.4906 74.7719 77.2936 74.7719 77.2936C74.7719 77.4263 74.7719 77.5685 74.7719 77.7012C74.7737 77.9843 74.8781 78.2571 75.0658 78.4691C75.2339 78.6024 75.4459 78.6678 75.6599 78.6524H76.5541H77.4484C77.6477 78.6629 77.8451 78.6086 78.0109 78.4975C78.3838 78.1815 78.3269 77.6854 78.3269 77.2904C78.368 77.2904 78.3869 74.4875 78.4059 73.2266Z" fill="white"/>
<path id="Vector_205" d="M77.1862 67.6429H75.9158C75.7867 67.6429 75.682 67.7476 75.682 67.8768V67.8957C75.682 68.0249 75.7867 68.1296 75.9158 68.1296H77.1862C77.3153 68.1296 77.42 68.0249 77.42 67.8957V67.8768C77.42 67.7476 77.3153 67.6429 77.1862 67.6429Z" fill="white"/>
</g>
<g id="Group_12" opacity="0.4">
<path id="Vector_206" d="M77.6697 71.7541L77.6033 71.6719C77.421 71.4912 77.309 71.2515 77.2873 70.9957C77.2873 70.8535 77.2494 70.4395 77.2178 70.0477C77.1925 69.7064 77.1641 69.3525 77.1546 69.1755C77.1546 69.1155 77.1546 68.2876 77.1325 68.2275H76.0391C76.0391 68.2971 75.9538 69.1281 75.9506 69.1755C75.9506 69.3557 75.9159 69.7096 75.8906 70.0509C75.8621 70.449 75.8305 70.863 75.8274 70.9989C75.8064 71.2558 75.6944 71.4967 75.5114 71.6783L75.4482 71.7573C75.4261 71.7889 75.4008 71.8173 75.3755 71.8489C75.2207 72.029 75.0121 72.2755 75.0342 73.3025C75.0342 73.7544 75.0342 74.2094 75.0563 74.6645C75.0563 75.4639 75.0816 76.2634 75.0785 77.0629C75.0348 77.3845 75.1089 77.7111 75.287 77.9825C75.4893 78.2416 75.9759 78.2258 76.2951 78.2258C76.6482 78.2342 77.0016 78.2236 77.3537 78.1942C77.5316 78.1865 77.7041 78.1308 77.8529 78.033C78.0868 77.8529 78.0331 77.3821 78.0331 77.1482C78.0331 76.551 78.0331 75.9537 78.0331 75.3565C78.0331 74.6708 78.0331 73.9819 78.0552 73.2962C78.0552 72.2692 77.8624 72.0322 77.7076 71.8457C77.7171 71.8141 77.6918 71.7857 77.6697 71.7541Z" fill="white"/>
</g>
<path id="Vector_207" d="M77.8118 74.2569C77.8118 73.5884 77.2707 73.0466 76.6031 73.0466C75.9356 73.0466 75.3944 73.5884 75.3944 74.2569V75.938C75.3944 76.6064 75.9356 77.1482 76.6031 77.1482C77.2707 77.1482 77.8118 76.6064 77.8118 75.938V74.2569Z" fill="#407BFF"/>
<path id="Vector_208" d="M82.2169 69.52H85.7276C85.7276 69.52 85.5917 72.9771 85.3547 73.7102C85.1177 74.4433 84.8302 75.6409 84.8302 78.5987H81.449C81.449 75.6409 81.1551 74.4465 80.9244 73.7102C80.6937 72.9739 80.5579 69.52 80.5579 69.52H82.2169Z" fill="#407BFF"/>
<path id="Vector_209" opacity="0.4" d="M82.2169 69.52H85.7276C85.7276 69.52 85.5917 72.9771 85.3547 73.7102C85.1177 74.4433 84.8302 75.6409 84.8302 78.5987H81.449C81.449 75.6409 81.1551 74.4465 80.9244 73.7102C80.6937 72.9739 80.5579 69.52 80.5579 69.52H82.2169Z" fill="white"/>
<path id="Vector_210" opacity="0.4" d="M85.2442 72.6263C85.2222 72.9587 85.1714 73.2886 85.0925 73.6122C84.8302 74.4275 84.5679 75.622 84.5679 78.3238H81.7239C81.7239 75.6378 81.4364 74.4433 81.1741 73.6122C81.0984 73.2879 81.0477 72.9583 81.0224 72.6263H85.2442Z" fill="white"/>
</g>
<g id="freepik--character-1--inject-68">
<path id="Vector_211" d="M44.872 80.3683L38.0496 109.336L30.4087 134.736L27.492 133.845C27.492 133.845 28.0576 122.832 30.02 114.392C30.4719 112.449 31.6 110.357 31.8275 108.783C32.0392 107.405 31.758 106.422 31.916 103.206C32.1024 99.3188 32.6207 94.1838 33.9826 90.474C33.9826 90.474 31.3093 85.2663 33.9447 80.046L44.872 80.3683Z" fill="#FFB573"/>
<path id="Vector_212" d="M51.5554 108.533L51.2931 136.218L51.1983 139.11L49.078 138.989L48.2564 133.933C48.2564 133.933 45.8232 124.337 45.3081 115.688C45.1912 113.694 45.662 111.371 45.444 109.797C45.2512 108.416 44.7045 107.551 43.9335 104.425C43.0013 100.633 42.0375 95.5774 42.2776 91.6305C42.2776 91.6305 38.2297 87.4024 39.2662 81.6386L49.8206 78.8325L51.5554 108.533Z" fill="#FFB573"/>
<path id="Vector_213" d="M55.3885 141.786C54.9507 141.527 54.4752 141.337 53.9791 141.224C53.9791 141.224 52.4465 140.108 51.6534 136.698L49.6594 136.329C49.3407 136.268 49.0119 136.286 48.7021 136.383C48.3923 136.479 48.1111 136.651 47.8835 136.882C47.8314 136.942 47.7897 137.01 47.7602 137.084C47.6698 137.444 47.6085 137.811 47.577 138.18C47.4948 139.433 47.5106 140.691 47.6244 141.941H47.9972L48.0857 139.58C48.0857 138.778 48.9547 139.71 49.2044 140.566C49.454 141.423 49.9659 142.358 52.2854 142.358C54.9556 142.367 56.0805 142.279 55.3885 141.786Z" fill="#263238"/>
<path id="Vector_214" d="M51.2742 135.472C51.6103 136.588 52.0059 137.685 52.4592 138.759C52.7834 139.686 53.3114 140.528 54.0044 141.223C54.0044 141.223 52.2696 141.479 51.4985 140.591C50.7275 139.704 49.6404 136.708 47.8835 136.888C48.0208 136.657 48.1875 136.444 48.3796 136.256C48.664 135.953 51.2742 135.472 51.2742 135.472Z" fill="#FFB573"/>
<path id="Vector_215" d="M31.8812 141.596C31.5721 141.192 31.2035 140.838 30.7879 140.544C30.7879 140.544 29.7893 138.933 30.3455 135.488L28.6359 134.395C28.3644 134.217 28.0533 134.11 27.7303 134.082C27.4072 134.054 27.0822 134.106 26.7842 134.234C26.7135 134.27 26.6494 134.318 26.5946 134.376C26.3741 134.675 26.1786 134.992 26.01 135.324C25.4664 136.449 25.011 137.614 24.648 138.809L24.9924 138.951L25.9689 136.796C26.2849 136.054 26.7241 137.245 26.6325 138.133C26.5408 139.021 26.6609 140.08 28.8097 140.955C31.2619 141.972 32.3363 142.314 31.8812 141.596Z" fill="#263238"/>
<path id="Vector_216" d="M30.4561 134.199C30.3447 135.354 30.2962 136.514 30.3107 137.675C30.2616 138.656 30.4322 139.635 30.81 140.541C30.81 140.541 29.1099 140.124 28.7276 139.024C28.3452 137.925 28.4716 134.723 26.7778 134.227C26.9971 134.068 27.2375 133.939 27.492 133.845C27.8586 133.668 30.4561 134.199 30.4561 134.199Z" fill="#FFB573"/>
<path id="Vector_217" d="M52.7278 102.643V103.079C52.7278 103.079 45.9812 104.918 41.5129 104.931C37.0447 104.944 29.8399 103.202 29.8399 103.202C29.8399 103.202 29.7798 88.5495 32.0519 82.2769C34.3239 76.0043 37.2564 73.2361 37.2564 73.2361L49.394 76.2034C50.5537 78.7314 51.0182 83.8759 51.4227 89.2384C52.17 93.6707 52.6061 98.1499 52.7278 102.643Z" fill="#407BFF"/>
<path id="Vector_218" d="M32.9272 56.1058C32.1246 51.9219 34.7316 52.693 33.8404 47.3652C32.8608 41.4971 37.0478 40.6471 37.0478 40.6471C37.0478 40.6471 37.5408 37.7209 40.2742 37.8757C43.0076 38.0306 49.8458 39.4747 48.4712 46.7237C47.6718 50.9518 49.0748 51.2615 49.7953 53.1701C50.8128 55.8656 47.5833 58.283 49.6878 60.1221C49.6878 60.1221 44.2684 61.7021 36.3558 61.1839C36.3558 61.1997 33.417 58.6591 32.9272 56.1058Z" fill="#263238"/>
<path id="Vector_219" d="M49.217 58.3431C49.0653 58.441 51.606 65.6111 51.8082 65.7533C52.5445 66.2873 58.9309 59.5944 58.9309 59.5944L60.9849 61.5663C59.3326 64.0195 57.441 66.3027 55.3379 68.3824C52.0863 71.4887 50.4968 71.7857 48.7778 69.3146C47.1978 67.052 43.5796 59.2026 43.5796 59.2026L49.217 58.3431Z" fill="#FFB573"/>
<path id="Vector_220" d="M47.7476 56.0173C49.4419 57.9047 50.6569 60.1721 51.29 62.6281L45.2101 64.0817C45.2101 64.0817 43.529 59.6577 44.2116 58.0176C44.9226 56.327 46.0223 54.6996 47.7476 56.0173Z" fill="#407BFF"/>
<path id="Vector_221" opacity="0.3" d="M47.7476 56.0173C49.4419 57.9047 50.6569 60.1721 51.29 62.6281L45.2101 64.0817C45.2101 64.0817 43.529 59.6577 44.2116 58.0176C44.9226 56.327 46.0223 54.6996 47.7476 56.0173Z" fill="black"/>
<g id="Group_13" opacity="0.3">
<path id="Vector_222" d="M48.1268 58.9024C48.4237 59.406 48.6522 59.9469 48.8062 60.5108C49.0138 61.3505 49.145 62.2072 49.1981 63.0704L48.0289 63.4086C48.0731 61.8444 48.0794 60.4634 48.1268 58.9024Z" fill="black"/>
</g>
<path id="Vector_223" d="M32.864 63.5539L31.1956 56.9969C32.4122 55.1799 38.176 53.7864 38.176 53.7864L42.1418 54.0013C42.1418 54.0013 43.6681 54.3425 44.9858 54.7691C46.727 55.3348 47.6686 55.793 48.0858 56.7599C48.0858 56.7599 48.8126 58.9024 48.3765 63.3169C48.2564 64.5304 47.9815 70.9357 48.3196 73.0213L50.4463 78.308C43.1972 83.9517 33.85 77.676 33.85 77.676C34.166 76.6806 35.3004 74.6519 35.43 73.6786C35.3257 72.4367 34.9749 71.6183 34.4504 69.4442C34.3366 69.0113 33.0252 63.9616 32.864 63.5539Z" fill="#407BFF"/>
<path id="Vector_224" opacity="0.3" d="M32.864 63.5539L31.1956 56.9969C32.4122 55.1799 38.176 53.7864 38.176 53.7864L42.1418 54.0013C42.1418 54.0013 43.6681 54.3425 44.9858 54.7691C46.727 55.3348 47.6686 55.793 48.0858 56.7599C48.0858 56.7599 48.8126 58.9024 48.3765 63.3169C48.2564 64.5304 47.9815 70.9357 48.3196 73.0213L50.4463 78.308C43.1972 83.9517 33.85 77.676 33.85 77.676C34.166 76.6806 35.3004 74.6519 35.43 73.6786C35.3257 72.4367 34.9749 71.6183 34.4504 69.4442C34.3366 69.0113 33.0252 63.9616 32.864 63.5539Z" fill="black"/>
<path id="Vector_225" d="M57.7206 61.0986C57.7206 61.0986 57.354 59.9705 57.8059 59.1015C58.2578 58.2325 58.3905 57.4172 58.7728 56.7947C59.1552 56.1722 59.3132 57.1454 59.2942 57.6795C59.2753 58.2135 59.2563 58.8202 59.6608 58.7697C60.0653 58.7191 62.865 56.6177 63.4338 56.6114C64.0026 56.6051 63.655 57.0886 63.655 57.0886C63.655 57.0886 64.3471 56.5956 64.6188 56.8168C64.6884 56.8737 64.7579 57.1328 64.4766 57.3982C63.8446 58.0302 62.4511 59.2374 62.4511 59.2374C62.5301 59.1678 64.3471 57.7774 64.6631 57.6036C65.0549 57.3793 65.3551 57.4741 65.4784 57.7048C65.6553 58.0208 63.4465 59.8378 63.4054 59.9768C63.4054 59.9768 65.036 59.1457 65.4878 59.3132C65.9397 59.4807 64.8558 60.0906 64.0943 60.6025C63.3864 61.0733 62.0529 62.0434 61.285 62.4479C60.337 62.9504 59.5913 63.0799 58.795 62.4479C58.3268 62.098 57.9568 61.6332 57.7206 61.0986Z" fill="#FFB573"/>
<path id="Vector_226" opacity="0.3" d="M61.9708 58.46C61.9664 58.4622 61.9615 58.4634 61.9566 58.4634C61.9516 58.4634 61.9468 58.4622 61.9423 58.46C61.9383 58.4564 61.9351 58.4521 61.9329 58.4472C61.9307 58.4423 61.9295 58.4369 61.9295 58.4316C61.9295 58.4262 61.9307 58.4209 61.9329 58.416C61.9351 58.4111 61.9383 58.4067 61.9423 58.4031C62.4479 57.9481 62.9788 57.512 63.5223 57.1044C63.5259 57.1008 63.5301 57.098 63.5347 57.0961C63.5393 57.0942 63.5442 57.0932 63.5492 57.0932C63.5542 57.0932 63.5591 57.0942 63.5637 57.0961C63.5684 57.098 63.5725 57.1008 63.5761 57.1044C63.5828 57.1123 63.5864 57.1224 63.5864 57.1328C63.5864 57.1432 63.5828 57.1533 63.5761 57.1612C63.0325 57.5657 62.5017 58.0018 61.9961 58.4568C61.9883 58.4611 61.9793 58.4622 61.9708 58.46Z" fill="black"/>
<path id="Vector_227" opacity="0.3" d="M62.9378 60.454C62.9296 60.454 62.9217 60.4516 62.915 60.4471C62.9082 60.4426 62.903 60.4362 62.8998 60.4287C62.5749 59.6117 62.0179 58.9075 61.2977 58.4031C61.2942 58.3996 61.2914 58.3954 61.2895 58.3908C61.2875 58.3862 61.2866 58.3813 61.2866 58.3763C61.2866 58.3713 61.2875 58.3663 61.2895 58.3617C61.2914 58.3571 61.2942 58.3529 61.2977 58.3494C61.3012 58.3459 61.3054 58.3431 61.31 58.3412C61.3146 58.3392 61.3196 58.3383 61.3246 58.3383C61.3296 58.3383 61.3345 58.3392 61.3391 58.3412C61.3437 58.3431 61.3479 58.3459 61.3514 58.3494C62.0842 58.8619 62.6519 59.5767 62.9852 60.4066C62.9884 60.4171 62.9875 60.4284 62.9829 60.4383C62.9782 60.4482 62.97 60.4561 62.9599 60.4603L62.9378 60.454Z" fill="black"/>
<path id="Vector_228" opacity="0.3" d="M59.2721 61.1966C59.2676 61.1986 59.2628 61.1996 59.2579 61.1996C59.253 61.1996 59.2481 61.1986 59.2437 61.1966C59.2363 61.1889 59.2322 61.1787 59.2322 61.1681C59.2322 61.1575 59.2363 61.1473 59.2437 61.1397C59.5169 60.9165 59.7054 60.6065 59.7777 60.2612C59.8472 59.9137 59.7936 59.5528 59.626 59.2405C59.6214 59.2313 59.6207 59.2206 59.6239 59.2108C59.6272 59.2011 59.6342 59.193 59.6434 59.1884C59.6526 59.1838 59.6633 59.183 59.6731 59.1863C59.6829 59.1895 59.6909 59.1965 59.6956 59.2057C59.8742 59.5322 59.9318 59.9111 59.8584 60.2759C59.785 60.6407 59.5852 60.9678 59.2942 61.1997C59.2867 61.2011 59.2789 61.2 59.2721 61.1966Z" fill="black"/>
<path id="Vector_229" opacity="0.3" d="M48.4902 68.888C48.4902 68.888 51.271 67.4186 51.4827 66.7866C51.6945 66.1546 51.982 64.4671 50.0513 63.6929C49.4193 63.4338 48.2785 64.0089 48.2785 64.0089V68.572L48.4902 68.888Z" fill="black"/>
<path id="Vector_230" d="M35.8092 62.4258C35.6385 62.4763 35.6922 70.0667 35.8439 70.2626C36.4064 70.9799 44.3759 66.3126 44.3759 66.3126L45.8042 68.7742C43.5384 70.6759 41.0889 72.3474 38.492 73.7639C34.5104 75.8495 32.1151 75.3439 31.1482 72.4999C30.2602 69.8865 30.6173 62.9883 30.6173 62.9883L35.8092 62.4258Z" fill="#FFB573"/>
<path id="Vector_231" d="M43.3268 67.7725C43.3268 67.7725 43.0645 66.6159 43.5986 65.7943C44.1326 64.9727 44.338 64.1733 44.7741 63.5823C45.2102 62.9914 45.2828 63.9805 45.2133 64.5114C45.1438 65.0423 45.068 65.6427 45.4756 65.63C45.8832 65.6174 48.8663 63.7877 49.4351 63.8351C50.0039 63.8825 49.6089 64.3281 49.6089 64.3281C49.6089 64.3281 50.3452 63.9047 50.5948 64.148C50.658 64.2143 50.7054 64.464 50.3989 64.7136C49.7132 65.2666 48.2122 66.3568 48.2122 66.3568C48.2975 66.2936 50.2472 65.0928 50.56 64.938C50.974 64.7484 51.2647 64.8716 51.3658 65.1149C51.508 65.4594 49.1538 67.0457 49.0906 67.1816C49.0906 67.1816 50.421 66.2336 50.8571 66.4327C51.2932 66.6317 50.4873 67.289 49.6689 67.7283C48.9168 68.1296 47.5485 69.1123 46.7459 69.4441C45.7568 69.8549 45.0016 69.9087 44.2685 69.2261C43.8349 68.8305 43.5106 68.3299 43.3268 67.7725Z" fill="#FFB573"/>
<path id="Vector_232" d="M31.0723 57.0854C29.8873 58.1693 29.467 64.0816 29.467 64.0816H35.708C35.708 64.0816 36.5391 59.468 35.2972 57.8185C34.5325 56.7947 32.9778 55.3411 31.0723 57.0854Z" fill="#407BFF"/>
<g id="Group_14" opacity="0.3">
<path id="Vector_233" d="M31.0723 57.0854C29.8873 58.1693 29.467 64.0816 29.467 64.0816H35.708C35.708 64.0816 36.5391 59.468 35.2972 57.8185C34.5325 56.7947 32.9778 55.3411 31.0723 57.0854Z" fill="black"/>
</g>
<path id="Vector_234" d="M37.1458 54.2193C37.1458 54.2193 38.3466 55.142 39.8887 56.4723C40.2115 56.7501 40.5645 56.9907 40.941 57.1897C41.9522 57.7269 42.8749 58.0334 43.1245 57.5467C43.1799 57.4358 43.2233 57.3193 43.2541 57.1991C43.4658 56.3839 43.3773 55.2368 42.7169 54.7091C41.9743 54.1181 41.6141 53.6094 41.7499 52.8131C41.8353 52.3371 41.9786 51.8734 42.1765 51.4321L41.317 50.9171L38.2518 47.8234C38.6026 49.7163 38.7606 53.088 37.1458 54.2193Z" fill="#FFB573"/>
<path id="Vector_235" opacity="0.2" d="M41.712 52.9837C40.8683 52.4844 39.9456 51.6186 40.0562 50.6264C40.0927 50.2619 40.1733 49.9033 40.2963 49.5583L42.028 51.824C41.8817 52.1982 41.7757 52.587 41.712 52.9837Z" fill="black"/>
<path id="Vector_236" d="M37.6609 44.3348C37.9485 47.4948 38.0054 48.8188 39.6296 50.4684C42.0723 52.9521 45.8295 52.1147 46.4773 48.9958C47.0588 46.1866 46.4773 41.5129 43.3995 40.1889C42.7455 39.8821 42.0214 39.7559 41.3023 39.8233C40.5831 39.8907 39.8951 40.1493 39.3096 40.5723C38.7241 40.9954 38.2624 41.5673 37.9725 42.2289C37.6826 42.8905 37.575 43.6176 37.6609 44.3348Z" fill="#FFB573"/>
<path id="Vector_237" d="M41.7373 45.3586C41.7373 45.6936 41.9332 45.9654 42.1386 45.9717C42.344 45.978 42.502 45.7094 42.4862 45.3744C42.4704 45.0395 42.2903 44.7677 42.0849 44.7646C41.8795 44.7614 41.712 45.0268 41.7373 45.3586Z" fill="#263238"/>
<path id="Vector_238" d="M44.8404 45.3491C44.8404 45.6651 45.0363 45.9401 45.2417 45.9432C45.4471 45.9464 45.6051 45.6904 45.5893 45.3649C45.5735 45.0395 45.3934 44.7772 45.188 44.774C44.9826 44.7709 44.8246 45.0268 44.8404 45.3491Z" fill="#263238"/>
<path id="Vector_239" d="M41.08 44.1989C41.0999 44.2021 41.1202 44.2006 41.1394 44.1946C41.1586 44.1885 41.1762 44.1781 41.1906 44.1641C41.3269 44.0343 41.493 43.9399 41.6742 43.8892C41.8555 43.8385 42.0464 43.8331 42.2303 43.8734C42.2489 43.8796 42.2687 43.8818 42.2883 43.8798C42.3078 43.8778 42.3268 43.8716 42.3438 43.8618C42.3608 43.8519 42.3755 43.8386 42.387 43.8226C42.3985 43.8066 42.4065 43.7884 42.4104 43.7691C42.4193 43.7286 42.4125 43.6861 42.3914 43.6504C42.3703 43.6146 42.3364 43.5882 42.2966 43.5764C42.0652 43.5189 41.823 43.5209 41.5926 43.5822C41.3622 43.6435 41.1511 43.7622 40.9789 43.9271C40.9501 43.9561 40.934 43.9953 40.934 44.0361C40.934 44.077 40.9501 44.1162 40.9789 44.1452C40.9912 44.1605 41.0066 44.1732 41.024 44.1824C41.0413 44.1916 41.0604 44.1972 41.08 44.1989Z" fill="#263238"/>
<path id="Vector_240" d="M45.8864 43.7723C45.9023 43.7664 45.9168 43.7572 45.9288 43.7452C45.9408 43.7332 45.9501 43.7187 45.9559 43.7028C45.9685 43.6655 45.9679 43.625 45.9541 43.5881C45.9402 43.5513 45.9141 43.5203 45.8801 43.5005C45.6939 43.3804 45.4802 43.3096 45.2591 43.2947C45.038 43.2797 44.8167 43.3212 44.6161 43.4152C44.5887 43.4398 44.5707 43.4732 44.5654 43.5097C44.56 43.5461 44.5675 43.5833 44.5866 43.6147C44.6057 43.6462 44.6352 43.67 44.67 43.6821C44.7048 43.6941 44.7428 43.6936 44.7772 43.6806C44.9386 43.6067 45.1161 43.5751 45.2931 43.5889C45.47 43.6027 45.6405 43.6615 45.7884 43.7596C45.8188 43.7747 45.8532 43.7791 45.8864 43.7723Z" fill="#263238"/>
<path id="Vector_241" d="M43.9967 45.188C44.2799 45.8595 44.6315 46.5002 45.0458 47.0998C45.0676 47.1305 45.082 47.1658 45.088 47.2029C45.094 47.2401 45.0914 47.2781 45.0804 47.3141C45.0694 47.3501 45.0503 47.3831 45.0246 47.4106C44.9989 47.4381 44.9673 47.4593 44.9321 47.4727C44.656 47.5491 44.3644 47.5491 44.0883 47.4727L43.9967 45.188Z" fill="#D58745"/>
<path id="Vector_242" d="M41.9648 44.7772L42.6884 44.6066C42.6884 44.6066 42.2934 45.1469 41.9648 44.7772Z" fill="#263238"/>
<path id="Vector_243" d="M45.1122 44.7803L45.8358 44.6097C45.8358 44.6097 45.4408 45.15 45.1122 44.7803Z" fill="#263238"/>
<path id="Vector_244" d="M38.7511 45.4218C38.7511 45.4218 40.3753 42.9791 40.2932 40.9978C40.2932 40.9978 43.3995 40.1889 45.8801 43.5005C46.2751 44.0283 46.5121 44.9067 46.8628 45.6651C46.8628 45.6651 47.4569 39.6769 42.1418 39.1871C36.8267 38.6973 35.7933 46.1391 38.3814 48.6671C38.3814 48.664 37.7462 46.9513 38.7511 45.4218Z" fill="#263238"/>
<path id="Vector_245" d="M36.7066 46.9007C37.0391 47.4841 37.5889 47.9123 38.236 48.092C39.0702 48.3006 39.5 46.9607 39.2156 46.1265C39.0821 45.7483 38.8173 45.4306 38.4693 45.2311C38.1214 45.0316 37.7134 44.9636 37.3196 45.0394C36.5328 45.188 36.2831 46.1612 36.7066 46.9007Z" fill="#FFB573"/>
<path id="Vector_246" opacity="0.2" d="M38.4667 46.8122C38.4569 46.8126 38.4471 46.8111 38.4379 46.8076C38.4287 46.8041 38.4203 46.7989 38.4132 46.7921C38.4061 46.7853 38.4005 46.7771 38.3967 46.7681C38.3928 46.7591 38.3908 46.7493 38.3908 46.7395C38.3722 46.458 38.2426 46.1954 38.0305 46.0094C37.8184 45.8233 37.5411 45.7291 37.2596 45.7473C37.2493 45.7481 37.2391 45.7469 37.2293 45.7437C37.2196 45.7405 37.2106 45.7353 37.2029 45.7285C37.1953 45.7217 37.189 45.7134 37.1846 45.7042C37.1803 45.6949 37.1778 45.6848 37.1774 45.6746C37.1765 45.6642 37.1777 45.6538 37.1809 45.6439C37.1841 45.6339 37.1892 45.6247 37.196 45.6168C37.2027 45.6089 37.211 45.6024 37.2203 45.5976C37.2296 45.5929 37.2397 45.5901 37.2501 45.5893C37.5728 45.5707 37.8901 45.6783 38.1349 45.8895C38.3768 46.1036 38.5244 46.4045 38.5457 46.7269C38.5465 46.7373 38.5453 46.7477 38.5422 46.7576C38.539 46.7675 38.5338 46.7767 38.5271 46.7847C38.5203 46.7926 38.5121 46.7991 38.5028 46.8038C38.4935 46.8086 38.4834 46.8114 38.473 46.8122H38.4667Z" fill="black"/>
<path id="Vector_247" d="M43.7565 48.1521C43.5366 48.4257 43.337 48.7151 43.1593 49.0179L42.9855 48.9484C42.2081 48.6324 41.949 48.2342 41.8984 47.8803C41.8738 47.6089 41.9417 47.3371 42.0912 47.1093C42.4867 47.5169 42.9651 47.8349 43.4942 48.0415C43.6522 48.1141 43.7565 48.1521 43.7565 48.1521Z" fill="#263238"/>
<path id="Vector_248" d="M43.4943 48.032L43.311 48.2816C42.5779 47.9846 42.1007 47.6781 41.9617 47.3621C41.9927 47.2692 42.0363 47.1809 42.0912 47.0998C42.4867 47.5075 42.9652 47.8254 43.4943 48.032Z" fill="white"/>
<path id="Vector_249" d="M42.976 48.9484C42.1987 48.6324 41.9395 48.2342 41.889 47.8803C42.1838 48.0045 42.4536 48.1811 42.6853 48.4017C42.838 48.5483 42.9399 48.7398 42.976 48.9484Z" fill="#DE5753"/>
</g>
</g>
</svg>
