<svg width="162" height="162" viewBox="0 0 162 162" fill="none" xmlns="http://www.w3.org/2000/svg">
<g id="Enter OTP-rafiki 1">
<g id="freepik--background-complete--inject-24">
<path id="Vector" d="M162 123.898H0V123.979H162V123.898Z" fill="#EBEBEB"/>
<path id="Vector_2" d="M145.768 129.111H135.037V129.192H145.768V129.111Z" fill="#EBEBEB"/>
<path id="Vector_3" d="M107.315 129.992H104.5V130.073H107.315V129.992Z" fill="#EBEBEB"/>
<path id="Vector_4" d="M134.713 126.104H128.495V126.185H134.713V126.104Z" fill="#EBEBEB"/>
<path id="Vector_5" d="M30.9906 126.648H16.9971V126.729H30.9906V126.648Z" fill="#EBEBEB"/>
<path id="Vector_6" d="M35.9284 126.648H33.8774V126.729H35.9284V126.648Z" fill="#EBEBEB"/>
<path id="Vector_7" d="M72.9486 128.016H42.5963V128.097H72.9486V128.016Z" fill="#EBEBEB"/>
<path id="Vector_8" d="M76.788 109.447H14.2268C13.7367 109.446 13.267 109.251 12.9207 108.904C12.5745 108.557 12.38 108.087 12.38 107.597V19.6538C12.3843 19.1666 12.5806 18.7006 12.9264 18.3573C13.2722 18.0139 13.7395 17.8208 14.2268 17.82H76.788C77.2786 17.82 77.7492 18.0149 78.0961 18.3619C78.4431 18.7088 78.638 19.1794 78.638 19.67V107.597C78.638 108.088 78.4431 108.558 78.0961 108.905C77.7492 109.252 77.2786 109.447 76.788 109.447ZM14.2268 17.8848C13.7582 17.8857 13.3091 18.0724 12.978 18.4041C12.6469 18.7358 12.461 19.1852 12.461 19.6538V107.597C12.461 108.066 12.6469 108.515 12.978 108.847C13.3091 109.179 13.7582 109.365 14.2268 109.366H76.788C77.2569 109.365 77.7063 109.179 78.0379 108.847C78.3695 108.516 78.5562 108.066 78.557 107.597V19.6538C78.5562 19.1849 78.3695 18.7355 78.0379 18.4039C77.7063 18.0723 77.2569 17.8857 76.788 17.8848H14.2268Z" fill="#EBEBEB"/>
<path id="Vector_9" d="M146.872 109.447H84.308C83.8176 109.446 83.3476 109.251 83.0008 108.904C82.6541 108.558 82.4589 108.088 82.458 107.597V19.6538C82.4631 19.1663 82.6602 18.7003 83.0065 18.3571C83.3528 18.0138 83.8204 17.8208 84.308 17.82H146.872C147.359 17.8217 147.826 18.0151 148.171 18.3584C148.516 18.7017 148.712 19.1671 148.716 19.6538V107.597C148.716 108.087 148.522 108.556 148.176 108.903C147.831 109.25 147.362 109.445 146.872 109.447ZM84.308 17.8848C83.8391 17.8857 83.3897 18.0723 83.0581 18.4039C82.7265 18.7355 82.5399 19.1849 82.539 19.6538V107.597C82.5399 108.066 82.7265 108.516 83.0581 108.847C83.3897 109.179 83.8391 109.365 84.308 109.366H146.872C147.341 109.365 147.791 109.179 148.122 108.847C148.454 108.516 148.641 108.066 148.641 107.597V19.6538C148.641 19.1849 148.454 18.7355 148.122 18.4039C147.791 18.0723 147.341 17.8857 146.872 17.8848H84.308Z" fill="#EBEBEB"/>
<path id="Vector_10" d="M72.1516 59.5285H21.4326V123.752H72.1516V59.5285Z" fill="#F0F0F0"/>
<path id="Vector_11" d="M70.3566 61.871H23.2244V75.6054H70.3566V61.871Z" fill="#E0E0E0"/>
<path id="Vector_12" d="M25.9006 64.0937H23.2244V75.6022H25.9006V64.0937Z" fill="#EBEBEB"/>
<path id="Vector_13" d="M38.8476 64.0937H36.1714V75.6022H38.8476V64.0937Z" fill="#EBEBEB"/>
<path id="Vector_14" d="M53.5442 63.8015L50.9069 64.2561L52.8618 75.5973L55.4991 75.1427L53.5442 63.8015Z" fill="#EBEBEB"/>
<path id="Vector_15" d="M29.2184 65.61H26.5421V75.6021H29.2184V65.61Z" fill="#EBEBEB"/>
<path id="Vector_16" d="M35.3711 65.61H32.6948V75.6021H35.3711V65.61Z" fill="#EBEBEB"/>
<path id="Vector_17" d="M50.9037 65.61H48.2274V75.6021H50.9037V65.61Z" fill="#EBEBEB"/>
<path id="Vector_18" d="M42.3635 65.2656L39.751 65.8462L41.9188 75.6004L44.5313 75.0197L42.3635 65.2656Z" fill="#EBEBEB"/>
<path id="Vector_19" d="M31.5349 63.5202H30.1968V75.6022H31.5349V63.5202Z" fill="#EBEBEB"/>
<path id="Vector_20" d="M47.4596 63.5202H46.1215V75.6022H47.4596V63.5202Z" fill="#EBEBEB"/>
<path id="Vector_21" d="M23.2243 91.5106H70.3566V77.7762H23.2243V91.5106Z" fill="#E0E0E0"/>
<path id="Vector_22" d="M67.6803 91.5106H70.3566V80.0021H67.6803V91.5106Z" fill="#EBEBEB"/>
<path id="Vector_23" d="M54.7333 91.5106H57.4095V80.0021H54.7333V91.5106Z" fill="#EBEBEB"/>
<path id="Vector_24" d="M38.0823 91.0575L40.7196 91.5121L42.6745 80.1709L40.0372 79.7163L38.0823 91.0575Z" fill="#EBEBEB"/>
<path id="Vector_25" d="M64.3594 91.5106H67.0356V81.5184H64.3594V91.5106Z" fill="#EBEBEB"/>
<path id="Vector_26" d="M58.2099 91.5106H60.8861V81.5184H58.2099V91.5106Z" fill="#EBEBEB"/>
<path id="Vector_27" d="M42.674 91.5106H45.3502V81.5184H42.674V91.5106Z" fill="#EBEBEB"/>
<path id="Vector_28" d="M49.0534 90.9276L51.6659 91.5082L53.8337 81.7541L51.2212 81.1735L49.0534 90.9276Z" fill="#EBEBEB"/>
<path id="Vector_29" d="M62.046 91.5106H63.3842V79.4286H62.046V91.5106Z" fill="#EBEBEB"/>
<path id="Vector_30" d="M46.1214 91.5106H47.4595V79.4286H46.1214V91.5106Z" fill="#EBEBEB"/>
<path id="Vector_31" d="M25.9006 80.0021H23.2244V91.5106H25.9006V80.0021Z" fill="#EBEBEB"/>
<path id="Vector_32" d="M29.2184 81.5184H26.5421V91.5106H29.2184V81.5184Z" fill="#EBEBEB"/>
<path id="Vector_33" d="M35.3711 81.5184H32.6948V91.5106H35.3711V81.5184Z" fill="#EBEBEB"/>
<path id="Vector_34" d="M31.5349 79.4286H30.1968V91.5106H31.5349V79.4286Z" fill="#EBEBEB"/>
<path id="Vector_35" d="M70.3566 93.6846H23.2244V107.419H70.3566V93.6846Z" fill="#E0E0E0"/>
<path id="Vector_36" d="M52.9513 95.9072H50.275V107.416H52.9513V95.9072Z" fill="#EBEBEB"/>
<path id="Vector_37" d="M67.6505 95.6173L65.0132 96.0719L66.9681 107.413L69.6054 106.959L67.6505 95.6173Z" fill="#EBEBEB"/>
<path id="Vector_38" d="M43.322 97.4268H40.6458V107.419H43.322V97.4268Z" fill="#EBEBEB"/>
<path id="Vector_39" d="M49.478 97.4268H46.8018V107.419H49.478V97.4268Z" fill="#EBEBEB"/>
<path id="Vector_40" d="M65.0106 97.4268H62.3344V107.419H65.0106V97.4268Z" fill="#EBEBEB"/>
<path id="Vector_41" d="M56.4728 97.0808L53.8604 97.6614L56.0282 107.416L58.6407 106.835L56.4728 97.0808Z" fill="#EBEBEB"/>
<path id="Vector_42" d="M45.6387 95.337H44.3005V107.419H45.6387V95.337Z" fill="#EBEBEB"/>
<path id="Vector_43" d="M61.5632 95.337H60.2251V107.419H61.5632V95.337Z" fill="#EBEBEB"/>
<path id="Vector_44" d="M36.8484 95.6203L34.2111 96.0749L36.166 107.416L38.8033 106.962L36.8484 95.6203Z" fill="#EBEBEB"/>
<path id="Vector_45" d="M34.208 97.4268H31.5317V107.419H34.208V97.4268Z" fill="#EBEBEB"/>
<path id="Vector_46" d="M25.6684 97.0826L23.0559 97.6632L25.2237 107.417L27.8362 106.837L25.6684 97.0826Z" fill="#EBEBEB"/>
<path id="Vector_47" d="M30.7606 95.337H29.4225V107.419H30.7606V95.337Z" fill="#EBEBEB"/>
<path id="Vector_48" d="M98.9107 85.4161H127.494C128.232 85.4161 128.963 85.5618 129.645 85.8448C130.327 86.1279 130.947 86.5427 131.468 87.0655C131.989 87.5883 132.402 88.2088 132.683 88.8915C132.964 89.5743 133.108 90.3057 133.106 91.044V113.361H93.312V91.044C93.3086 89.5554 93.8964 88.1264 94.9463 87.071C95.9962 86.0157 97.4221 85.4204 98.9107 85.4161Z" fill="#E6E6E6"/>
<path id="Vector_49" d="M84.8492 101.96H89.9619C90.4015 101.958 90.8371 102.043 91.2437 102.21C91.6503 102.377 92.0199 102.623 92.3312 102.934C92.6425 103.244 92.8894 103.613 93.0577 104.019C93.226 104.425 93.3125 104.86 93.312 105.3V123.768H81.512V105.3C81.5115 104.861 81.5975 104.427 81.7651 104.022C81.9326 103.617 82.1783 103.248 82.4883 102.938C82.7982 102.628 83.1662 102.382 83.5713 102.214C83.9764 102.046 84.4106 101.96 84.8492 101.96Z" fill="#E0E0E0"/>
<path id="Vector_50" d="M84.8492 101.96H84.9561C85.3946 101.96 85.8288 102.046 86.2339 102.214C86.639 102.382 87.0071 102.628 87.317 102.938C87.6269 103.248 87.8727 103.617 88.0402 104.022C88.2077 104.427 88.2937 104.862 88.2933 105.3V123.768H81.512V105.3C81.5115 104.862 81.5975 104.427 81.7651 104.022C81.9326 103.617 82.1783 103.248 82.4883 102.938C82.7982 102.628 83.1662 102.382 83.5713 102.214C83.9764 102.046 84.4106 101.96 84.8492 101.96Z" fill="#EBEBEB"/>
<path id="Vector_51" d="M128.942 115.273H89.7189V123.752H128.942V115.273Z" fill="#E6E6E6"/>
<path id="Vector_52" d="M127.491 107.519H89.6638C87.7903 107.519 86.2715 109.038 86.2715 110.912V113.021C86.2715 114.894 87.7903 116.413 89.6638 116.413H127.491C129.364 116.413 130.883 114.894 130.883 113.021V110.912C130.883 109.038 129.364 107.519 127.491 107.519Z" fill="#F5F5F5"/>
<path id="Vector_53" d="M127.426 107.519H122.738C120.864 107.519 119.345 109.038 119.345 110.912V113.021C119.345 114.894 120.864 116.413 122.738 116.413H127.426C129.3 116.413 130.818 114.894 130.818 113.021V110.912C130.818 109.038 129.3 107.519 127.426 107.519Z" fill="#E0E0E0"/>
<path id="Vector_54" d="M127.935 101.96H133.051C133.489 101.96 133.923 102.046 134.328 102.214C134.733 102.382 135.101 102.628 135.41 102.938C135.72 103.249 135.966 103.617 136.133 104.022C136.3 104.427 136.385 104.862 136.385 105.3V123.768H124.601V105.3C124.6 104.862 124.685 104.427 124.853 104.022C125.02 103.617 125.265 103.249 125.575 102.938C125.885 102.628 126.252 102.382 126.657 102.214C127.062 102.046 127.496 101.96 127.935 101.96Z" fill="#E0E0E0"/>
<path id="Vector_55" d="M127.935 101.96H128.045C128.483 101.96 128.917 102.046 129.322 102.214C129.727 102.382 130.095 102.628 130.405 102.938C130.714 103.249 130.96 103.617 131.127 104.022C131.294 104.427 131.38 104.862 131.379 105.3V123.768H124.601V105.3C124.6 104.862 124.685 104.427 124.853 104.022C125.02 103.617 125.265 103.249 125.575 102.938C125.885 102.628 126.252 102.382 126.657 102.214C127.062 102.046 127.496 101.96 127.935 101.96Z" fill="#F0F0F0"/>
<path id="Vector_56" d="M48.6828 51.7213C52.8424 51.0461 55.667 47.1267 54.9919 42.9671C54.3167 38.8075 50.3973 35.9829 46.2377 36.6581C42.0781 37.3333 39.2534 41.2526 39.9286 45.4122C40.6038 49.5718 44.5232 52.3965 48.6828 51.7213Z" fill="#E0E0E0"/>
<path id="Vector_57" d="M48.5 50.5955C52.0379 50.0213 54.4404 46.6877 53.8661 43.1498C53.2918 39.612 49.9583 37.2095 46.4204 37.7838C42.8825 38.3581 40.4801 41.6916 41.0543 45.2295C41.6286 48.7673 44.9622 51.1698 48.5 50.5955Z" fill="#F0F0F0"/>
<path id="Vector_58" d="M47.1517 48.6454V44.1094L44.1482 45.8104" fill="#F0F0F0"/>
<path id="Vector_59" d="M47.1517 48.9694C47.0658 48.9694 46.9834 48.9353 46.9226 48.8745C46.8618 48.8137 46.8277 48.7313 46.8277 48.6454V44.6634L44.307 46.0923C44.2322 46.1342 44.1438 46.1449 44.0612 46.1218C43.9786 46.0987 43.9085 46.0438 43.8663 45.9692C43.8241 45.8948 43.813 45.8067 43.8355 45.7241C43.8579 45.6416 43.9121 45.5713 43.9862 45.5285L46.9929 43.8275C47.0422 43.7998 47.0979 43.7855 47.1544 43.786C47.2109 43.7864 47.2663 43.8017 47.3151 43.8302C47.3639 43.8586 47.4044 43.8994 47.4326 43.9484C47.4607 43.9974 47.4756 44.0529 47.4757 44.1094V48.6454C47.4757 48.7313 47.4416 48.8137 47.3808 48.8745C47.32 48.9353 47.2376 48.9694 47.1517 48.9694Z" fill="#E0E0E0"/>
<path id="Vector_60" d="M138.87 34.5643H90.0266V77.9058H138.87V34.5643Z" fill="#E6E6E6"/>
<path id="Vector_61" d="M137.583 35.7534H91.2482V76.7427H137.583V35.7534Z" fill="#F0F0F0"/>
<path id="Vector_62" d="M102.122 35.7534L91.2482 76.6519V57.4355L96.9894 35.7534H102.122Z" fill="white"/>
<path id="Vector_63" d="M105.974 35.7534L95.0033 76.7427H93.2537L104.224 35.7534H105.974Z" fill="white"/>
<path id="Vector_64" d="M137.583 61.6183V68.1664L135.364 76.7427H133.614L137.583 61.6183Z" fill="white"/>
<path id="Vector_65" d="M107.409 35.0179H106.628V77.6596H107.409V35.0179Z" fill="#E6E6E6"/>
<path id="Vector_66" d="M122.537 35.0179H121.756V77.6596H122.537V35.0179Z" fill="#E6E6E6"/>
</g>
<g id="freepik--Shadow--inject-24">
<path id="freepik--path--inject-24" d="M81 138.529C115.695 138.529 143.82 136.887 143.82 134.862C143.82 132.836 115.695 131.194 81 131.194C46.3053 131.194 18.1797 132.836 18.1797 134.862C18.1797 136.887 46.3053 138.529 81 138.529Z" fill="#F5F5F5"/>
</g>
<g id="freepik--Plant--inject-24">
<path id="Vector_67" d="M130.216 126.759C130.216 126.759 131.755 123.402 129.995 120.091C128.236 116.779 127.727 116.002 128.848 115.321C129.969 114.641 130.485 117.972 130.485 117.972C131.039 116.468 131.096 114.825 130.647 113.287C129.869 110.892 129.38 106.991 130.442 106.573C131.505 106.155 130.647 111.433 131.573 113.241C132.043 111.976 132.347 110.655 132.477 109.311C132.603 107.387 132.406 104.315 133.245 103.528C134.084 102.74 134.625 103.285 133.799 107.529C133.302 110.066 133.028 112.642 132.979 115.227C132.979 115.227 134.803 109.658 136.031 109.496C137.259 109.334 137.256 111.135 136.206 112.7C135.157 114.265 133.132 117.068 132.801 118.509C132.801 118.509 134.807 114.317 136.608 115.593C138.41 116.87 135.04 119.407 133.537 120.324C132.033 121.241 130.99 126.969 130.99 126.969L130.216 126.759Z" fill="#407BFF"/>
<path id="Vector_68" opacity="0.2" d="M130.216 126.759C130.216 126.759 131.755 123.402 129.995 120.091C128.236 116.779 127.727 116.002 128.848 115.321C129.969 114.641 130.485 117.972 130.485 117.972C131.039 116.468 131.096 114.825 130.647 113.287C129.869 110.892 129.38 106.991 130.442 106.573C131.505 106.155 130.647 111.433 131.573 113.241C132.043 111.976 132.347 110.655 132.477 109.311C132.603 107.387 132.406 104.315 133.245 103.528C134.084 102.74 134.625 103.285 133.799 107.529C133.302 110.066 133.028 112.642 132.979 115.227C132.979 115.227 134.803 109.658 136.031 109.496C137.259 109.334 137.256 111.135 136.206 112.7C135.157 114.265 133.132 117.068 132.801 118.509C132.801 118.509 134.807 114.317 136.608 115.593C138.41 116.87 135.04 119.407 133.537 120.324C132.033 121.241 130.99 126.969 130.99 126.969L130.216 126.759Z" fill="black"/>
<path id="Vector_69" d="M131.431 128.136C131.431 128.136 129.93 124.756 131.729 121.471C133.527 118.185 134.045 117.414 132.934 116.721C131.823 116.028 131.265 119.345 131.265 119.345C130.728 117.836 130.691 116.193 131.158 114.66C131.965 112.276 132.503 108.381 131.444 107.947C130.384 107.513 131.181 112.807 130.235 114.599C129.78 113.327 129.491 112.002 129.376 110.656C129.273 108.731 129.509 105.663 128.677 104.863C127.844 104.062 127.3 104.6 128.077 108.858C128.543 111.4 128.786 113.978 128.803 116.562C128.803 116.562 127.044 110.967 125.822 110.789C124.601 110.61 124.578 112.409 125.608 113.99C126.639 115.571 128.628 118.403 128.952 119.848C128.952 119.848 127.008 115.636 125.181 116.886C123.353 118.137 126.703 120.722 128.194 121.662C129.684 122.602 130.663 128.346 130.663 128.346L131.431 128.136Z" fill="#407BFF"/>
<path id="Vector_70" d="M124.516 125.725H136.897L135.895 134.586H125.518L124.516 125.725Z" fill="#263238"/>
</g>
<g id="freepik--Device--inject-24">
<path id="Vector_71" d="M78.6025 133.164V134.327C78.6025 134.362 78.5957 134.396 78.5825 134.428C78.5694 134.459 78.55 134.488 78.5257 134.513C78.5013 134.537 78.4723 134.556 78.4405 134.57C78.4087 134.583 78.3745 134.59 78.3401 134.59H45.48C45.1997 134.59 44.9237 134.521 44.6762 134.39C44.4286 134.258 44.2171 134.068 44.0601 133.836C43.9031 133.604 43.8054 133.337 43.7756 133.058C43.7458 132.779 43.7848 132.497 43.8892 132.237L54.3025 106.447L71.1311 106.56L70.5576 109.907L66.8446 131.567C66.8168 131.731 66.8251 131.899 66.869 132.06C66.9128 132.22 66.9911 132.37 67.0984 132.497C67.2057 132.624 67.3394 132.727 67.4903 132.797C67.6412 132.868 67.8056 132.904 67.9721 132.905H78.3401C78.3744 132.904 78.4084 132.911 78.4403 132.924C78.4721 132.936 78.501 132.955 78.5255 132.98C78.5499 133.004 78.5693 133.032 78.5825 133.064C78.5957 133.096 78.6025 133.13 78.6025 133.164Z" fill="#263238"/>
<path id="Vector_72" opacity="0.5" d="M78.6025 133.164V134.327C78.6025 134.362 78.5957 134.396 78.5825 134.428C78.5694 134.459 78.55 134.488 78.5257 134.513C78.5013 134.537 78.4723 134.556 78.4405 134.57C78.4087 134.583 78.3745 134.59 78.3401 134.59H45.48C45.1997 134.59 44.9237 134.521 44.6762 134.39C44.4286 134.258 44.2171 134.068 44.0601 133.836C43.9031 133.604 43.8054 133.337 43.7756 133.058C43.7458 132.779 43.7848 132.497 43.8892 132.237L50.3465 116.248L54.3025 106.447L71.1311 106.56L70.5576 109.907L68.9376 119.326L66.8413 131.567C66.8136 131.731 66.8219 131.899 66.8657 132.06C66.9096 132.22 66.9878 132.37 67.0951 132.497C67.2024 132.624 67.3362 132.727 67.487 132.797C67.6379 132.868 67.8023 132.904 67.9688 132.905H78.3368C78.3714 132.904 78.4058 132.91 78.438 132.923C78.4702 132.935 78.4996 132.954 78.5243 132.978C78.5491 133.003 78.5688 133.031 78.5822 133.063C78.5956 133.095 78.6025 133.129 78.6025 133.164Z" fill="white"/>
<path id="Vector_73" opacity="0.2" d="M67.972 132.902H46.588C46.4648 132.901 46.3436 132.871 46.235 132.812C46.1264 132.754 46.0338 132.67 45.9653 132.568C45.8969 132.465 45.8546 132.348 45.8423 132.225C45.8299 132.103 45.8479 131.979 45.8947 131.865L55.025 109.904H70.5543L66.8413 131.563C66.8135 131.728 66.8219 131.896 66.8659 132.057C66.9099 132.218 66.9885 132.368 67.0961 132.495C67.2038 132.622 67.3379 132.725 67.4892 132.795C67.6405 132.865 67.8053 132.902 67.972 132.902Z" fill="black"/>
<path id="Vector_74" opacity="0.1" d="M71.131 106.557L70.5576 109.904L68.9408 119.323L50.3464 116.248L54.3025 106.444L71.131 106.557Z" fill="black"/>
<path id="Vector_75" d="M103.852 58.4821H25.946C25.6843 58.4821 25.4252 58.5336 25.1834 58.6337C24.9417 58.7339 24.722 58.8806 24.537 59.0657C24.352 59.2507 24.2052 59.4704 24.105 59.7121C24.0049 59.9539 23.9534 60.213 23.9534 60.4747V113.219C23.9534 113.747 24.1633 114.254 24.537 114.628C24.9107 115.001 25.4175 115.211 25.946 115.211H103.852C104.381 115.211 104.888 115.001 105.262 114.628C105.636 114.254 105.847 113.747 105.848 113.219V60.4747C105.847 59.9459 105.636 59.4391 105.262 59.0655C104.888 58.6919 104.381 58.4821 103.852 58.4821Z" fill="#263238"/>
<path id="Vector_76" opacity="0.6" d="M103.852 58.4821H25.946C25.6843 58.4821 25.4252 58.5336 25.1834 58.6337C24.9417 58.7339 24.722 58.8806 24.537 59.0657C24.352 59.2507 24.2052 59.4704 24.105 59.7121C24.0049 59.9539 23.9534 60.213 23.9534 60.4747V113.219C23.9534 113.747 24.1633 114.254 24.537 114.628C24.9107 115.001 25.4175 115.211 25.946 115.211H103.852C104.381 115.211 104.888 115.001 105.262 114.628C105.636 114.254 105.847 113.747 105.848 113.219V60.4747C105.847 59.9459 105.636 59.4391 105.262 59.0655C104.888 58.6919 104.381 58.4821 103.852 58.4821Z" fill="white"/>
<path id="Vector_77" opacity="0.2" d="M27.5984 115.208H25.946C25.4181 115.208 24.9117 114.998 24.5381 114.625C24.1645 114.252 23.9542 113.746 23.9534 113.219V60.4779C23.9529 60.2159 24.0042 59.9565 24.1041 59.7143C24.2041 59.4722 24.3508 59.2522 24.5358 59.0668C24.7209 58.8814 24.9407 58.7343 25.1827 58.634C25.4247 58.5337 25.684 58.482 25.946 58.482H27.5984C27.3356 58.4807 27.0752 58.5314 26.8321 58.6312C26.589 58.731 26.3681 58.8778 26.182 59.0633C25.9959 59.2488 25.8483 59.4693 25.7477 59.7121C25.6472 59.9548 25.5956 60.2151 25.5961 60.4779V113.219C25.596 113.481 25.6479 113.741 25.7487 113.983C25.8495 114.225 25.9972 114.445 26.1833 114.63C26.3694 114.815 26.5902 114.961 26.8331 115.06C27.076 115.159 27.336 115.21 27.5984 115.208Z" fill="black"/>
<path id="Vector_78" d="M104.053 60.196H27.4039V111.054H104.053V60.196Z" fill="#407BFF"/>
<path id="Vector_79" opacity="0.4" d="M64.6705 79.555C68.3459 79.555 71.3254 76.5754 71.3254 72.9C71.3254 69.2246 68.3459 66.2451 64.6705 66.2451C60.995 66.2451 58.0155 69.2246 58.0155 72.9C58.0155 76.5754 60.995 79.555 64.6705 79.555Z" fill="white"/>
<path id="Vector_80" d="M63.0828 71.8891V71.28C63.0828 70.9896 63.1982 70.711 63.4036 70.5057C63.609 70.3003 63.8875 70.1849 64.178 70.1849H65.15C65.2949 70.1832 65.4386 70.2103 65.573 70.2645C65.7074 70.3188 65.8296 70.3992 65.9327 70.501C66.0358 70.6029 66.1176 70.7242 66.1734 70.8579C66.2293 70.9916 66.258 71.1351 66.258 71.28V71.9021H66.9676V71.28C66.9667 70.8017 66.7763 70.3431 66.4381 70.0049C66.0998 69.6666 65.6413 69.4762 65.1629 69.4753H64.1909C63.7125 69.4762 63.254 69.6666 62.9158 70.0049C62.5775 70.3431 62.3871 70.8017 62.3862 71.28V71.9021L63.0828 71.8891Z" fill="white"/>
<path id="Vector_81" d="M61.479 72.7088V75.978C61.479 76.0256 61.4884 76.0728 61.5066 76.1169C61.5249 76.1609 61.5516 76.2009 61.5853 76.2346C61.619 76.2683 61.659 76.295 61.703 76.3132C61.747 76.3315 61.7942 76.3409 61.8419 76.3409H67.4989C67.5466 76.3409 67.5938 76.3315 67.6378 76.3132C67.6818 76.295 67.7218 76.2683 67.7555 76.2346C67.7892 76.2009 67.8159 76.1609 67.8342 76.1169C67.8524 76.0728 67.8618 76.0256 67.8618 75.978V72.7088C67.8618 72.6126 67.8236 72.5203 67.7555 72.4522C67.6875 72.3842 67.5952 72.3459 67.4989 72.3459H61.8419C61.7942 72.3459 61.747 72.3553 61.703 72.3736C61.659 72.3918 61.619 72.4185 61.5853 72.4522C61.5516 72.4859 61.5249 72.5259 61.5066 72.57C61.4884 72.614 61.479 72.6612 61.479 72.7088ZM64.8745 74.5589V75.2069H64.476V74.5589C64.4177 74.5264 64.3687 74.4796 64.3335 74.4229C64.2984 74.3662 64.2783 74.3015 64.2751 74.2349C64.2751 74.1275 64.3178 74.0244 64.3937 73.9485C64.4697 73.8725 64.5727 73.8299 64.6801 73.8299C64.7875 73.8299 64.8906 73.8725 64.9665 73.9485C65.0425 74.0244 65.0851 74.1275 65.0851 74.2349C65.081 74.3025 65.0594 74.3678 65.0225 74.4246C64.9856 74.4814 64.9346 74.5277 64.8745 74.5589Z" fill="white"/>
<path id="Vector_82" d="M48.4348 85.0662H42.1492C41.7752 85.0662 41.472 85.3694 41.472 85.7434V92.029C41.472 92.403 41.7752 92.7061 42.1492 92.7061H48.4348C48.8088 92.7061 49.112 92.403 49.112 92.029V85.7434C49.112 85.3694 48.8088 85.0662 48.4348 85.0662Z" fill="white"/>
<path id="Vector_83" d="M58.1256 85.0565H51.84C51.466 85.0565 51.1628 85.3597 51.1628 85.7337V92.0193C51.1628 92.3933 51.466 92.6964 51.84 92.6964H58.1256C58.4996 92.6964 58.8028 92.3933 58.8028 92.0193V85.7337C58.8028 85.3597 58.4996 85.0565 58.1256 85.0565Z" fill="white"/>
<path id="Vector_84" d="M67.8132 85.0468H61.5276C61.1536 85.0468 60.8505 85.3499 60.8505 85.7239V92.0095C60.8505 92.3835 61.1536 92.6867 61.5276 92.6867H67.8132C68.1872 92.6867 68.4904 92.3835 68.4904 92.0095V85.7239C68.4904 85.3499 68.1872 85.0468 67.8132 85.0468Z" fill="white"/>
<path id="Vector_85" d="M77.5008 85.0338H71.2152C70.8413 85.0338 70.5381 85.337 70.5381 85.711V91.9966C70.5381 92.3706 70.8413 92.6737 71.2152 92.6737H77.5008C77.8748 92.6737 78.178 92.3706 78.178 91.9966V85.711C78.178 85.337 77.8748 85.0338 77.5008 85.0338Z" fill="white"/>
<path id="Vector_86" d="M87.1885 85.0241H80.9029C80.5289 85.0241 80.2257 85.3273 80.2257 85.7013V91.9869C80.2257 92.3609 80.5289 92.664 80.9029 92.664H87.1885C87.5625 92.664 87.8656 92.3609 87.8656 91.9869V85.7013C87.8656 85.3273 87.5625 85.0241 87.1885 85.0241Z" fill="white"/>
<path id="Vector_87" d="M82.3641 88.9931C82.3641 87.6485 83.0834 86.8839 84.0489 86.8839C85.0145 86.8839 85.7305 87.6485 85.7305 88.9931C85.7305 90.3377 85.0112 91.1023 84.0489 91.1023C83.0867 91.1023 82.3641 90.3377 82.3641 88.9931ZM85.1408 88.9931C85.1408 87.9369 84.6905 87.4087 84.0489 87.4087C83.4074 87.4087 82.9538 87.9369 82.9538 88.9931C82.9538 90.0493 83.4009 90.5774 84.0489 90.5774C84.6969 90.5774 85.1408 90.0461 85.1408 88.9931Z" fill="#263238"/>
<path id="Vector_88" d="M46.8278 88.9413C46.8278 90.3474 46.0308 91.1023 44.8838 91.1023C44.5259 91.1151 44.171 91.0312 43.8568 90.8593L44.0641 90.396C44.3048 90.5352 44.5802 90.6026 44.8579 90.5904C45.6938 90.5904 46.2252 90.0655 46.2252 89.032V88.8862C46.0869 89.0672 45.9059 89.211 45.6984 89.3049C45.4909 89.3988 45.2633 89.4397 45.0361 89.424C44.2164 89.424 43.6267 88.9348 43.6267 88.1766C43.6267 87.4185 44.2747 86.8806 45.0815 86.8806C46.2025 86.8839 46.8278 87.6258 46.8278 88.9413ZM46.1021 88.1572C46.1021 87.7327 45.7781 87.3601 45.1301 87.3601C45.0166 87.3464 44.9016 87.3569 44.7925 87.3908C44.6834 87.4247 44.5827 87.4813 44.497 87.5569C44.4113 87.6324 44.3426 87.7253 44.2954 87.8293C44.2481 87.9333 44.2234 88.0462 44.2229 88.1604C44.2229 88.6464 44.5825 88.9575 45.1625 88.9575C45.7424 88.9575 46.1021 88.6108 46.1021 88.1572Z" fill="#263238"/>
<path id="Vector_89" d="M53.2981 88.9931C53.2981 87.6485 54.0174 86.8839 54.9829 86.8839C55.9484 86.8839 56.6645 87.6485 56.6645 88.9931C56.6645 90.3377 55.9452 91.1023 54.9829 91.1023C54.0206 91.1023 53.2981 90.3377 53.2981 88.9931ZM56.0748 88.9931C56.0748 87.9369 55.6277 87.4087 54.9829 87.4087C54.3381 87.4087 53.8878 87.9369 53.8878 88.9931C53.8878 90.0493 54.3349 90.5774 54.9829 90.5774C55.6309 90.5774 56.0748 90.0493 56.0748 88.9931Z" fill="#263238"/>
<path id="Vector_90" d="M66.1609 90.5418V91.044H63.1963V90.6552L64.8746 89.0352C65.312 88.6108 65.393 88.3516 65.393 88.0924C65.393 87.6679 65.0949 87.4087 64.5149 87.4087C64.3169 87.3977 64.119 87.4323 63.9364 87.5098C63.7539 87.5873 63.5915 87.7057 63.4619 87.8558L63.0602 87.5092C63.2497 87.2995 63.4835 87.1345 63.7446 87.0264C64.0058 86.9182 64.2877 86.8695 64.57 86.8838C65.4286 86.8838 65.9827 87.3245 65.9827 88.0308C65.9827 88.4326 65.866 88.7922 65.3055 89.3268L64.0451 90.5386L66.1609 90.5418Z" fill="#263238"/>
<path id="Vector_91" d="M74.8441 86.9292V91.044H74.2609V87.4444H73.3278V86.9292H74.8441Z" fill="#263238"/>
<g id="Group" opacity="0.6">
<path id="Vector_92" d="M57.4226 83.2V83.3458H56.2983V81.7549H57.387V81.9007H56.4668V82.4677H57.2865V82.62H56.4668V83.2097L57.4226 83.2Z" fill="white"/>
<path id="Vector_93" d="M58.8806 82.6524V83.3458H58.7186V82.6686C58.7282 82.6183 58.7258 82.5664 58.7115 82.5172C58.6972 82.4681 58.6715 82.423 58.6364 82.3856C58.6013 82.3483 58.5578 82.3199 58.5096 82.3026C58.4614 82.2853 58.4097 82.2797 58.3589 82.2863C58.3019 82.2822 58.2446 82.2907 58.1912 82.3111C58.1377 82.3315 58.0894 82.3633 58.0496 82.4044C58.0098 82.4455 57.9794 82.4947 57.9606 82.5488C57.9419 82.6028 57.9352 82.6603 57.941 82.7172V83.3458H57.7822V82.1502H57.9345V82.3705C57.9832 82.2959 58.0509 82.2355 58.1306 82.1957C58.2103 82.1558 58.2992 82.1379 58.3881 82.1437C58.4556 82.138 58.5236 82.1473 58.5871 82.1711C58.6506 82.1949 58.708 82.2325 58.7551 82.2812C58.8023 82.3299 58.838 82.3884 58.8597 82.4527C58.8814 82.5169 58.8885 82.5851 58.8806 82.6524Z" fill="white"/>
<path id="Vector_94" d="M59.9401 83.268C59.8689 83.3258 59.7791 83.3557 59.6874 83.3523C59.6408 83.3562 59.5938 83.3499 59.5498 83.3339C59.5058 83.3179 59.4658 83.2925 59.4326 83.2596C59.3993 83.2266 59.3736 83.1868 59.3572 83.143C59.3408 83.0992 59.3341 83.0523 59.3375 83.0056V82.296H59.1237V82.16H59.3375V81.9008H59.4995V82.16H59.8624V82.296H59.4995V83.0088C59.4995 83.1514 59.5708 83.2259 59.7036 83.2259C59.768 83.2279 59.8311 83.2073 59.8818 83.1676L59.9401 83.268Z" fill="white"/>
<path id="Vector_95" d="M61.2362 82.7982H60.2382C60.2457 82.9154 60.2994 83.0249 60.3875 83.1026C60.4755 83.1804 60.5908 83.22 60.708 83.2129C60.7767 83.2151 60.845 83.2024 60.9082 83.1755C60.9715 83.1487 61.0281 83.1084 61.0742 83.0574L61.1649 83.1611C61.0765 83.2441 60.9666 83.3006 60.8477 83.3242C60.7288 83.3478 60.6057 83.3377 60.4923 83.2948C60.3789 83.2519 60.2798 83.1781 60.2062 83.0817C60.1327 82.9854 60.0876 82.8703 60.0762 82.7496C60.0718 82.6708 60.0836 82.5919 60.111 82.5179C60.1385 82.4438 60.1809 82.3763 60.2356 82.3194C60.2904 82.2625 60.3563 82.2176 60.4292 82.1873C60.5021 82.1571 60.5805 82.1423 60.6594 82.1437C60.7381 82.1422 60.8162 82.157 60.8888 82.1873C60.9614 82.2176 61.027 82.2627 61.0812 82.3197C61.1354 82.3767 61.1772 82.4443 61.2039 82.5183C61.2306 82.5924 61.2416 82.6711 61.2362 82.7496C61.2362 82.7496 61.2362 82.7788 61.2362 82.7982ZM60.2382 82.6783H61.0839C61.0746 82.5726 61.0261 82.4741 60.9478 82.4024C60.8695 82.3307 60.7672 82.2909 60.6611 82.2909C60.5549 82.2909 60.4526 82.3307 60.3743 82.4024C60.2961 82.4741 60.2475 82.5726 60.2382 82.6783Z" fill="white"/>
<path id="Vector_96" d="M62.1659 82.1437V82.296H62.1271C62.0701 82.293 62.0132 82.3027 61.9604 82.3244C61.9076 82.346 61.8603 82.3791 61.8219 82.4213C61.7835 82.4634 61.7549 82.5136 61.7382 82.5681C61.7215 82.6226 61.7171 82.6802 61.7253 82.7367V83.3458H61.5601V82.1502H61.7156V82.3835C61.7572 82.3024 61.8227 82.2359 61.9032 82.1931C61.9837 82.1502 62.0754 82.133 62.1659 82.1437Z" fill="white"/>
<path id="Vector_97" d="M64.0711 82.1502L63.475 83.4883C63.3745 83.7216 63.2482 83.7961 63.0764 83.7961C63.0234 83.798 62.9706 83.7893 62.9211 83.7704C62.8715 83.7514 62.8263 83.7227 62.7881 83.686L62.8626 83.5661C62.8903 83.5958 62.9239 83.6192 62.9614 83.6349C62.9988 83.6505 63.0391 83.658 63.0797 83.6568C63.1866 83.6568 63.2579 83.6082 63.3259 83.4592L63.3778 83.3425L62.8561 82.1502H63.0246L63.4717 83.1643L63.9221 82.1502H64.0711Z" fill="white"/>
<path id="Vector_98" d="M64.1521 82.7496C64.1514 82.629 64.1866 82.5109 64.2531 82.4103C64.3197 82.3097 64.4146 82.2312 64.5258 82.1846C64.6371 82.138 64.7597 82.1254 64.878 82.1486C64.9964 82.1717 65.1052 82.2295 65.1907 82.3145C65.2763 82.3996 65.3346 82.5081 65.3584 82.6264C65.3821 82.7446 65.3703 82.8672 65.3242 82.9787C65.2782 83.0902 65.2002 83.1855 65.0999 83.2526C64.9997 83.3197 64.8818 83.3555 64.7612 83.3555C64.6806 83.3587 64.6003 83.3452 64.5252 83.3159C64.45 83.2866 64.3818 83.2422 64.3246 83.1853C64.2674 83.1284 64.2226 83.0604 64.1929 82.9854C64.1632 82.9105 64.1493 82.8302 64.1521 82.7496ZM65.2018 82.7496C65.198 82.6626 65.1687 82.5787 65.1175 82.5082C65.0663 82.4378 64.9956 82.3839 64.914 82.3534C64.8325 82.3228 64.7437 82.317 64.6589 82.3365C64.574 82.356 64.4967 82.4001 64.4367 82.4632C64.3767 82.5263 64.3366 82.6056 64.3213 82.6914C64.3061 82.7771 64.3164 82.8654 64.351 82.9454C64.3856 83.0253 64.4429 83.0933 64.5159 83.1408C64.5888 83.1884 64.6741 83.2135 64.7612 83.2129C64.8205 83.2126 64.8791 83.2002 64.9333 83.1764C64.9876 83.1526 65.0365 83.1179 65.0768 83.0745C65.1172 83.0311 65.1483 82.9799 65.1681 82.924C65.1879 82.8681 65.1961 82.8088 65.1921 82.7496H65.2018Z" fill="white"/>
<path id="Vector_99" d="M66.7603 82.1502V83.3458H66.6081V83.1254C66.5637 83.1991 66.5002 83.2594 66.4243 83.2999C66.3485 83.3404 66.263 83.3596 66.1771 83.3555C66.1087 83.3623 66.0395 83.3536 65.9749 83.3301C65.9102 83.3066 65.8516 83.269 65.8034 83.2198C65.7552 83.1707 65.7187 83.1114 65.6964 83.0463C65.6742 82.9812 65.6669 82.9119 65.6749 82.8436V82.1502H65.8337V82.8274C65.8241 82.8777 65.8265 82.9296 65.8408 82.9787C65.8551 83.0279 65.8808 83.073 65.9159 83.1103C65.951 83.1476 65.9945 83.1761 66.0427 83.1934C66.0909 83.2106 66.1425 83.2162 66.1933 83.2097C66.2496 83.2129 66.306 83.2038 66.3583 83.1829C66.4107 83.162 66.4579 83.1299 66.4965 83.0888C66.5351 83.0477 66.5642 82.9987 66.5818 82.9451C66.5994 82.8915 66.6051 82.8348 66.5983 82.7788V82.1502H66.7603Z" fill="white"/>
<path id="Vector_100" d="M67.8133 82.1437V82.296H67.7745C67.7175 82.293 67.6606 82.3027 67.6078 82.3244C67.555 82.346 67.5077 82.3791 67.4693 82.4213C67.4309 82.4634 67.4023 82.5136 67.3856 82.5681C67.3689 82.6227 67.3645 82.6802 67.3727 82.7367V83.3458H67.2107V82.1502H67.3662V82.3835C67.4077 82.3029 67.4726 82.2369 67.5525 82.1941C67.6323 82.1513 67.7233 82.1337 67.8133 82.1437Z" fill="white"/>
<path id="Vector_101" d="M68.6071 82.552C68.6013 82.3855 68.6453 82.2211 68.7336 82.0799C68.8218 81.9386 68.9502 81.827 69.1024 81.7592C69.2545 81.6914 69.4234 81.6707 69.5875 81.6996C69.7515 81.7284 69.9031 81.8057 70.023 81.9213C70.1428 82.037 70.2254 82.1858 70.2601 82.3487C70.2948 82.5116 70.28 82.6811 70.2177 82.8356C70.1554 82.9901 70.0483 83.1224 69.9103 83.2156C69.7723 83.3088 69.6095 83.3586 69.443 83.3587C69.3345 83.3631 69.2263 83.3455 69.1248 83.3068C69.0233 83.2682 68.9307 83.2094 68.8526 83.134C68.7745 83.0586 68.7124 82.9682 68.6702 82.8681C68.628 82.7681 68.6066 82.6605 68.6071 82.552ZM70.1072 82.552C70.111 82.4184 70.0747 82.2867 70.0028 82.174C69.931 82.0613 69.827 81.9728 69.7043 81.9199C69.5816 81.867 69.4458 81.8521 69.3145 81.8773C69.1833 81.9024 69.0626 81.9664 68.9681 82.0609C68.8736 82.1554 68.8096 82.276 68.7845 82.4073C68.7594 82.5386 68.7742 82.6743 68.8271 82.797C68.88 82.9198 68.9686 83.0238 69.0813 83.0956C69.194 83.1675 69.3256 83.2038 69.4592 83.2C69.6311 83.2 69.7959 83.1317 69.9174 83.0102C70.0389 82.8887 70.1072 82.7238 70.1072 82.552Z" fill="white"/>
<path id="Vector_102" d="M70.9367 81.9007H70.3794V81.7549H71.6754V81.9007H71.1149V83.3458H70.9464L70.9367 81.9007Z" fill="white"/>
<path id="Vector_103" d="M73.1755 82.296C73.1755 82.62 72.9293 82.8371 72.5275 82.8371H72.1031V83.3393H71.9281V81.7485H72.521C72.9293 81.755 73.1755 81.972 73.1755 82.296ZM73.007 82.296C73.007 82.0401 72.8385 81.8943 72.521 81.8943H72.0998V82.6881H72.521C72.8385 82.6946 73.007 82.552 73.007 82.296Z" fill="white"/>
</g>
<g id="Group_2" opacity="0.6">
<path id="Vector_104" d="M58.3687 96.8404L58.4335 96.714C58.5789 96.8403 58.7658 96.9084 58.9583 96.9052C59.2532 96.9052 59.3828 96.7821 59.3828 96.6233C59.3828 96.1891 58.4108 96.4548 58.4108 95.8684C58.4108 95.6351 58.5922 95.4342 58.994 95.4342C59.1682 95.4319 59.3393 95.4803 59.4865 95.5736L59.4314 95.7064C59.3006 95.623 59.149 95.5781 58.994 95.5768C58.7056 95.5768 58.576 95.7064 58.576 95.8651C58.576 96.2993 59.548 96.0369 59.548 96.6136C59.548 96.8501 59.3633 97.0477 58.9583 97.0477C58.7426 97.0558 58.5318 96.9817 58.3687 96.8404Z" fill="white"/>
<path id="Vector_105" d="M60.912 96.4872H59.9141C59.9216 96.6045 59.9752 96.7139 60.0633 96.7917C60.1514 96.8694 60.2666 96.9091 60.3839 96.902C60.4525 96.9042 60.5209 96.8914 60.5841 96.8646C60.6473 96.8377 60.7039 96.7974 60.75 96.7464L60.8407 96.8501C60.7837 96.9153 60.7127 96.9669 60.6331 97.0012C60.5535 97.0354 60.4672 97.0513 60.3806 97.0478C60.2985 97.0527 60.2161 97.0406 60.1389 97.012C60.0617 96.9834 59.9913 96.939 59.9321 96.8817C59.873 96.8244 59.8264 96.7554 59.7955 96.6791C59.7645 96.6029 59.7497 96.5209 59.7521 96.4386C59.7481 96.3599 59.7603 96.2813 59.7879 96.2074C59.8155 96.1336 59.8579 96.0663 59.9126 96.0095C59.9672 95.9527 60.0329 95.9077 60.1056 95.8773C60.1783 95.8469 60.2565 95.8318 60.3353 95.8328C60.4142 95.8308 60.4927 95.8453 60.5657 95.8754C60.6387 95.9055 60.7046 95.9505 60.7592 96.0075C60.8138 96.0645 60.8559 96.1324 60.8827 96.2066C60.9096 96.2808 60.9207 96.3599 60.9152 96.4386C60.9152 96.4386 60.912 96.471 60.912 96.4872ZM59.9141 96.3674H60.7597C60.7505 96.2616 60.7019 96.1632 60.6236 96.0915C60.5454 96.0198 60.4431 95.98 60.3369 95.98C60.2308 95.98 60.1284 96.0198 60.0502 96.0915C59.9719 96.1632 59.9233 96.2616 59.9141 96.3674Z" fill="white"/>
<path id="Vector_106" d="M62.3474 96.3414V97.0348H62.1886V96.3576C62.1977 96.3075 62.1948 96.256 62.1803 96.2073C62.1657 96.1585 62.1399 96.1139 62.1049 96.077C62.0698 96.04 62.0266 96.0119 61.9787 95.9948C61.9308 95.9777 61.8795 95.9721 61.829 95.9785C61.7719 95.9745 61.7147 95.9829 61.6612 96.0033C61.6078 96.0237 61.5595 96.0556 61.5196 96.0966C61.4798 96.1377 61.4494 96.187 61.4307 96.241C61.4119 96.2951 61.4052 96.3525 61.411 96.4095V97.0348H61.2361V95.8425H61.3916V96.0628C61.4399 95.9875 61.5074 95.9265 61.5871 95.8861C61.6669 95.8456 61.756 95.8272 61.8452 95.8327C61.9135 95.8254 61.9826 95.8336 62.0473 95.8567C62.112 95.8798 62.1707 95.9171 62.2189 95.966C62.2672 96.0149 62.3038 96.0741 62.326 96.139C62.3483 96.204 62.3556 96.2732 62.3474 96.3414Z" fill="white"/>
<path id="Vector_107" d="M63.8799 95.35V97.0348H63.7244V96.7983C63.677 96.8771 63.6093 96.9419 63.5284 96.9858C63.4475 97.0296 63.3563 97.051 63.2643 97.0477C63.1109 97.0365 62.9673 96.9676 62.8626 96.855C62.7578 96.7423 62.6996 96.5941 62.6996 96.4402C62.6996 96.2864 62.7578 96.1382 62.8626 96.0255C62.9673 95.9128 63.1109 95.8439 63.2643 95.8327C63.3539 95.8296 63.4428 95.8497 63.5223 95.8911C63.6018 95.9326 63.6692 95.994 63.7179 96.0693V95.35H63.8799ZM63.7211 96.4386C63.7173 96.3517 63.6881 96.2679 63.6371 96.1975C63.586 96.1271 63.5155 96.0733 63.4341 96.0426C63.3527 96.012 63.2642 96.0059 63.1794 96.0252C63.0946 96.0445 63.0173 96.0882 62.9572 96.151C62.897 96.2138 62.8566 96.2928 62.841 96.3784C62.8254 96.4639 62.8353 96.5521 62.8694 96.6321C62.9035 96.7121 62.9603 96.7803 63.0328 96.8283C63.1053 96.8762 63.1903 96.9018 63.2773 96.9019C63.3375 96.9029 63.3973 96.8915 63.4529 96.8683C63.5085 96.8451 63.5587 96.8107 63.6004 96.7672C63.642 96.7237 63.6743 96.6721 63.6951 96.6155C63.7158 96.559 63.7247 96.4987 63.7211 96.4386Z" fill="white"/>
<path id="Vector_108" d="M65.8239 96.296V97.0348H65.6684V96.8501C65.6234 96.9165 65.5616 96.9697 65.4893 97.0044C65.417 97.0392 65.3368 97.0541 65.2569 97.0477C64.988 97.0477 64.8228 96.9052 64.8228 96.6978C64.8228 96.4905 64.9394 96.3738 65.2828 96.3738H65.6619V96.3025C65.6665 96.2589 65.6613 96.2147 65.6466 96.1733C65.6319 96.1319 65.6082 96.0943 65.5772 96.0633C65.5461 96.0322 65.5085 96.0085 65.4671 95.9938C65.4257 95.9792 65.3816 95.974 65.3379 95.9785C65.1922 95.9763 65.0506 96.027 64.9394 96.1211L64.8681 96.0012C65.0049 95.8919 65.1759 95.8346 65.3509 95.8392C65.4134 95.8318 65.4768 95.8384 65.5364 95.8584C65.5961 95.8785 65.6505 95.9116 65.6958 95.9554C65.7411 95.9991 65.7761 96.0524 65.7982 96.1113C65.8204 96.1702 65.8292 96.2333 65.8239 96.296ZM65.6619 96.6751V96.4807H65.2861C65.056 96.4807 64.9815 96.5715 64.9815 96.6946C64.9815 96.8177 65.0917 96.9181 65.2828 96.9181C65.3637 96.9235 65.4441 96.9027 65.5124 96.859C65.5806 96.8153 65.633 96.7508 65.6619 96.6751Z" fill="white"/>
<path id="Vector_109" d="M67.3693 95.8425V96.876C67.3821 96.9572 67.3754 97.0403 67.35 97.1184C67.3245 97.1966 67.281 97.2676 67.2228 97.3257C67.1647 97.3838 67.0937 97.4274 67.0156 97.4528C66.9374 97.4783 66.8544 97.4849 66.7732 97.4722C66.5717 97.4801 66.3741 97.4157 66.2159 97.2908L66.2969 97.1676C66.4297 97.275 66.5959 97.3323 66.7667 97.3296C67.0712 97.3296 67.2073 97.1936 67.2073 96.8987V96.7464C67.1561 96.8211 67.0866 96.8814 67.0055 96.9216C66.9245 96.9619 66.8344 96.9808 66.744 96.9765C66.6644 96.9824 66.5845 96.9719 66.5091 96.9455C66.4338 96.9192 66.3647 96.8776 66.3062 96.8233C66.2477 96.769 66.201 96.7032 66.1691 96.6301C66.1372 96.5569 66.1207 96.4779 66.1207 96.3981C66.1207 96.3183 66.1372 96.2394 66.1691 96.1662C66.201 96.0931 66.2477 96.0273 66.3062 95.973C66.3647 95.9187 66.4338 95.8771 66.5091 95.8507C66.5845 95.8244 66.6644 95.8138 66.744 95.8198C66.8361 95.8154 66.9277 95.8348 67.01 95.8763C67.0923 95.9177 67.1625 95.9797 67.2138 96.0563V95.8295L67.3693 95.8425ZM67.2138 96.4095C67.217 96.3191 67.1932 96.2299 67.1454 96.1532C67.0975 96.0765 67.0279 96.0159 66.9453 95.979C66.8628 95.9422 66.7711 95.9309 66.6821 95.9465C66.593 95.9621 66.5107 96.004 66.4456 96.0668C66.3806 96.1295 66.3357 96.2103 66.3169 96.2987C66.298 96.3871 66.306 96.4791 66.3398 96.5629C66.3736 96.6467 66.4317 96.7186 66.5066 96.7692C66.5815 96.8198 66.6698 96.8468 66.7602 96.8469C66.8193 96.8505 66.8786 96.8418 66.9342 96.8213C66.9898 96.8008 67.0405 96.769 67.0831 96.7279C67.1258 96.6867 67.1594 96.6372 67.1819 96.5824C67.2044 96.5276 67.2153 96.4687 67.2138 96.4095Z" fill="white"/>
<path id="Vector_110" d="M68.7204 96.296V97.0348H68.5681V96.8501C68.5229 96.9162 68.4611 96.9693 68.3888 97.004C68.3166 97.0387 68.2365 97.0538 68.1566 97.0477C67.8845 97.0477 67.7192 96.9052 67.7192 96.6978C67.7192 96.4904 67.8391 96.3738 68.1826 96.3738H68.5584V96.3025C68.5584 96.0984 68.445 95.9785 68.2344 95.9785C68.0898 95.9768 67.9494 96.0274 67.8391 96.1211L67.7646 96.0012C67.9026 95.892 68.0746 95.8346 68.2506 95.8392C68.3129 95.8323 68.3759 95.8393 68.4351 95.8596C68.4944 95.8799 68.5484 95.9131 68.5933 95.9568C68.6382 96.0004 68.6729 96.0535 68.6949 96.1122C68.7168 96.1708 68.7256 96.2336 68.7204 96.296ZM68.5584 96.6751V96.4807H68.1858C67.9525 96.4807 67.878 96.5714 67.878 96.6946C67.878 96.8177 67.9914 96.9181 68.1826 96.9181C68.2631 96.9238 68.3433 96.9032 68.411 96.8593C68.4788 96.8155 68.5305 96.7509 68.5584 96.6751Z" fill="white"/>
<path id="Vector_111" d="M69.1222 95.4634C69.1268 95.4354 69.1413 95.4099 69.1629 95.3916C69.1846 95.3732 69.2121 95.3632 69.2405 95.3632C69.2688 95.3632 69.2963 95.3732 69.318 95.3916C69.3396 95.4099 69.3541 95.4354 69.3587 95.4634C69.3541 95.4914 69.3396 95.5168 69.318 95.5352C69.2963 95.5536 69.2688 95.5636 69.2405 95.5636C69.2121 95.5636 69.1846 95.5536 69.1629 95.5352C69.1413 95.5168 69.1268 95.4914 69.1222 95.4634ZM69.1578 95.8425H69.3198V97.0348H69.1578V95.8425Z" fill="white"/>
<path id="Vector_112" d="M70.8654 96.3414V97.0348H70.7066V96.3576C70.7157 96.3075 70.7128 96.256 70.6983 96.2073C70.6837 96.1585 70.6579 96.1139 70.6228 96.077C70.5878 96.0401 70.5446 96.0119 70.4967 95.9948C70.4487 95.9777 70.3975 95.9721 70.347 95.9785C70.2899 95.9745 70.2327 95.9829 70.1792 96.0033C70.1258 96.0237 70.0774 96.0556 70.0376 96.0966C69.9978 96.1377 69.9674 96.187 69.9487 96.241C69.9299 96.2951 69.9232 96.3526 69.929 96.4095V97.0348H69.7703V95.8425H69.9225V96.0628C69.9708 95.9875 70.0383 95.9265 70.1181 95.8861C70.1978 95.8457 70.2869 95.8272 70.3761 95.8327C70.4434 95.8275 70.511 95.8372 70.5741 95.8612C70.6372 95.8852 70.6941 95.9229 70.7409 95.9715C70.7877 96.0202 70.8231 96.0786 70.8446 96.1425C70.8662 96.2065 70.8732 96.2744 70.8654 96.3414Z" fill="white"/>
</g>
<path id="Vector_113" opacity="0.4" d="M73.6971 105.135H55.6406C54.9271 105.134 54.2431 104.85 53.7389 104.345C53.2346 103.84 52.9514 103.156 52.9514 102.442C52.9514 101.729 53.2346 101.044 53.7389 100.54C54.2431 100.035 54.9271 99.7507 55.6406 99.7499H73.6971C74.4112 99.7499 75.0961 100.034 75.601 100.538C76.1059 101.043 76.3896 101.728 76.3896 102.442C76.3896 103.156 76.1059 103.841 75.601 104.346C75.0961 104.851 74.4112 105.135 73.6971 105.135Z" fill="white"/>
<path id="Vector_114" d="M57.6267 102.306C57.6251 102.18 57.6495 102.055 57.6984 101.939C57.7473 101.822 57.8195 101.717 57.9107 101.63C58.0018 101.543 58.1099 101.475 58.2283 101.432C58.3466 101.388 58.4727 101.369 58.5987 101.376C58.7274 101.372 58.8556 101.395 58.9746 101.444C59.0937 101.493 59.2008 101.567 59.2888 101.662L59.1203 101.824C59.0552 101.753 58.9758 101.698 58.8875 101.661C58.7992 101.624 58.704 101.607 58.6084 101.61C58.4933 101.611 58.3804 101.64 58.2795 101.696C58.1787 101.751 58.0932 101.831 58.0306 101.927C57.968 102.024 57.9303 102.134 57.9208 102.249C57.9113 102.364 57.9304 102.479 57.9763 102.584C58.0222 102.69 58.0936 102.782 58.1839 102.853C58.2743 102.925 58.3809 102.972 58.4942 102.992C58.6075 103.012 58.724 103.004 58.8332 102.968C58.9425 102.932 59.0411 102.869 59.1203 102.786L59.2888 102.948C59.2003 103.042 59.0927 103.116 58.973 103.166C58.8534 103.215 58.7247 103.238 58.5954 103.233C58.4699 103.24 58.3442 103.221 58.2263 103.178C58.1083 103.134 58.0006 103.067 57.9097 102.98C57.8189 102.893 57.7468 102.789 57.6981 102.673C57.6495 102.557 57.6251 102.432 57.6267 102.306Z" fill="white"/>
<path id="Vector_115" d="M59.4638 102.306C59.4548 102.112 59.504 101.92 59.6051 101.754C59.7063 101.589 59.8547 101.457 60.0314 101.377C60.208 101.296 60.4047 101.27 60.5961 101.302C60.7876 101.335 60.965 101.423 61.1055 101.557C61.246 101.691 61.3432 101.864 61.3845 102.054C61.4258 102.244 61.4094 102.441 61.3374 102.622C61.2653 102.802 61.1409 102.956 60.9803 103.065C60.8196 103.174 60.63 103.233 60.4358 103.233C60.3103 103.239 60.1847 103.22 60.0668 103.177C59.9488 103.133 59.8411 103.066 59.7501 102.979C59.659 102.892 59.5867 102.788 59.5375 102.672C59.4883 102.557 59.4632 102.432 59.4638 102.306ZM61.1324 102.306C61.1344 102.166 61.0945 102.028 61.0179 101.911C60.9413 101.793 60.8315 101.701 60.7025 101.646C60.5734 101.592 60.4309 101.576 60.2932 101.603C60.1554 101.629 60.0287 101.696 59.929 101.795C59.8294 101.893 59.7614 102.02 59.7338 102.157C59.7061 102.295 59.7199 102.437 59.7736 102.567C59.8273 102.696 59.9183 102.807 60.0351 102.885C60.1518 102.962 60.2891 103.003 60.4293 103.003C60.522 103.006 60.6143 102.99 60.7005 102.956C60.7868 102.922 60.8653 102.871 60.9311 102.806C60.9969 102.741 61.0488 102.663 61.0834 102.577C61.118 102.491 61.1347 102.399 61.1324 102.306Z" fill="white"/>
<path id="Vector_116" d="M63.3485 101.412V103.226H63.1347L62.0461 101.872V103.226H61.7869V101.412H62.0007L63.0893 102.763V101.412H63.3485Z" fill="white"/>
<path id="Vector_117" d="M64.2525 101.623H63.6304V101.412H65.124V101.636H64.5084V103.226H64.2525V101.623Z" fill="white"/>
<path id="Vector_118" d="M65.4124 101.412H65.6716V103.226H65.4124V101.412Z" fill="white"/>
<path id="Vector_119" d="M67.7776 101.412V103.226H67.5638L66.4751 101.872V103.226H66.2159V101.412H66.4201L67.5087 102.763V101.412H67.7776Z" fill="white"/>
<path id="Vector_120" d="M68.3058 102.429V101.412H68.565V102.433C68.565 102.834 68.7497 103.016 69.0769 103.016C69.4041 103.016 69.5888 102.834 69.5888 102.433V101.412H69.8415V102.442C69.8415 102.646 69.7606 102.841 69.6166 102.985C69.4726 103.129 69.2773 103.21 69.0737 103.21C68.87 103.21 68.6747 103.129 68.5307 102.985C68.3867 102.841 68.3058 102.646 68.3058 102.442V102.429Z" fill="white"/>
<path id="Vector_121" d="M71.6882 102.987V103.213H70.3728V101.412H71.6688V101.636H70.632V102.193H71.5392V102.413H70.632V103L71.6882 102.987Z" fill="white"/>
<path id="Vector_122" opacity="0.1" d="M96.0628 60.4325C85.4647 71.05 58.2455 94.6825 27.4039 92.9329V60.4325H96.0628Z" fill="white"/>
<path id="Vector_123" opacity="0.1" d="M104.049 79.947V111.294H57.9053C59.6743 104.963 63.2124 96.2928 70.0747 90.0979C82.4191 78.9523 96.7464 78.9847 104.049 79.947Z" fill="white"/>
</g>
<g id="freepik--speech-bubble--inject-24">
<path id="Vector_124" d="M113.799 55.4332L114.874 60.183L115.95 55.4332H113.799Z" fill="#407BFF"/>
<path id="Vector_125" opacity="0.7" d="M113.799 55.4332L114.874 60.183L115.95 55.4332H113.799Z" fill="white"/>
<path id="Vector_126" d="M126.914 41.9839H102.838C101.301 41.9839 100.054 43.23 100.054 44.7671V53.703C100.054 55.2401 101.301 56.4862 102.838 56.4862H126.914C128.451 56.4862 129.697 55.2401 129.697 53.703V44.7671C129.697 43.23 128.451 41.9839 126.914 41.9839Z" fill="#407BFF"/>
<path id="Vector_127" opacity="0.7" d="M126.914 41.9839H102.838C101.301 41.9839 100.054 43.23 100.054 44.7671V53.703C100.054 55.2401 101.301 56.4862 102.838 56.4862H126.914C128.451 56.4862 129.697 55.2401 129.697 53.703V44.7671C129.697 43.23 128.451 41.9839 126.914 41.9839Z" fill="white"/>
<g id="Group_3" opacity="0.5">
<path id="Vector_128" d="M105.974 47.3041V47.9294H105.718V47.3041L104.999 46.1247H105.277L105.857 47.0967L106.44 46.1247H106.696L105.974 47.3041Z" fill="#263238"/>
<path id="Vector_129" d="M106.638 47.2457C106.636 47.1036 106.675 46.9639 106.752 46.8444C106.83 46.725 106.94 46.6312 107.071 46.575C107.202 46.5188 107.346 46.5028 107.486 46.5289C107.625 46.5551 107.754 46.6222 107.856 46.7218C107.957 46.8215 108.027 46.949 108.055 47.0882C108.084 47.2275 108.071 47.3721 108.017 47.5037C107.963 47.6353 107.871 47.7479 107.753 47.8272C107.635 47.9064 107.496 47.9488 107.354 47.9488C107.26 47.9533 107.166 47.9383 107.078 47.9047C106.99 47.8712 106.91 47.8198 106.842 47.7537C106.775 47.6877 106.722 47.6085 106.687 47.5211C106.652 47.4337 106.635 47.3399 106.638 47.2457ZM107.814 47.2457C107.82 47.1818 107.812 47.1175 107.791 47.0569C107.77 46.9962 107.737 46.9406 107.694 46.8934C107.65 46.8462 107.597 46.8085 107.539 46.7828C107.48 46.757 107.417 46.7437 107.353 46.7437C107.288 46.7437 107.225 46.757 107.166 46.7828C107.108 46.8085 107.055 46.8462 107.012 46.8934C106.968 46.9406 106.935 46.9962 106.914 47.0569C106.893 47.1175 106.885 47.1818 106.891 47.2457C106.885 47.3096 106.893 47.3739 106.914 47.4346C106.935 47.4952 106.968 47.5509 107.012 47.5981C107.055 47.6453 107.108 47.6829 107.166 47.7087C107.225 47.7345 107.288 47.7478 107.353 47.7478C107.417 47.7478 107.48 47.7345 107.539 47.7087C107.597 47.6829 107.65 47.6453 107.694 47.5981C107.737 47.5509 107.77 47.4952 107.791 47.4346C107.812 47.3739 107.82 47.3096 107.814 47.2457Z" fill="#263238"/>
<path id="Vector_130" d="M109.69 46.5588V47.9326H109.457V47.7252C109.403 47.7974 109.332 47.8555 109.251 47.8944C109.17 47.9334 109.08 47.952 108.99 47.9488C108.91 47.9571 108.829 47.9472 108.752 47.9199C108.676 47.8926 108.607 47.8486 108.55 47.7911C108.493 47.7336 108.45 47.664 108.424 47.5876C108.397 47.5112 108.388 47.4298 108.397 47.3494V46.5588H108.647V47.3235C108.647 47.5924 108.783 47.7252 109.019 47.7252C109.079 47.7291 109.138 47.7198 109.193 47.6979C109.249 47.6761 109.298 47.6422 109.339 47.5988C109.38 47.5554 109.41 47.5036 109.428 47.447C109.446 47.3904 109.452 47.3305 109.444 47.2716V46.5588H109.69Z" fill="#263238"/>
<path id="Vector_131" d="M110.905 46.5459V46.7889H110.847C110.786 46.785 110.726 46.7945 110.67 46.8169C110.613 46.8393 110.563 46.8739 110.521 46.9183C110.48 46.9626 110.449 47.0156 110.431 47.0734C110.413 47.1311 110.408 47.1922 110.416 47.2522V47.9359H110.16V46.5589H110.4V46.7922C110.452 46.7071 110.527 46.6387 110.616 46.5951C110.706 46.5515 110.806 46.5344 110.905 46.5459Z" fill="#263238"/>
<path id="Vector_132" d="M111.816 47.0254C111.807 46.8316 111.857 46.6397 111.959 46.4744C112.06 46.3091 112.209 46.178 112.386 46.0979C112.562 46.0179 112.759 45.9925 112.95 46.0251C113.141 46.0577 113.318 46.1468 113.459 46.2809C113.599 46.415 113.696 46.588 113.737 46.7776C113.778 46.9672 113.761 47.1648 113.689 47.3449C113.617 47.525 113.492 47.6793 113.332 47.7881C113.171 47.8969 112.982 47.9551 112.788 47.9553C112.662 47.9624 112.536 47.9436 112.417 47.8999C112.299 47.8562 112.191 47.7887 112.1 47.7015C112.008 47.6143 111.936 47.5093 111.887 47.393C111.838 47.2767 111.814 47.1516 111.816 47.0254ZM113.484 47.0254C113.486 46.8852 113.446 46.7475 113.37 46.6301C113.293 46.5126 113.183 46.4205 113.054 46.3657C112.925 46.3108 112.783 46.2956 112.645 46.322C112.507 46.3484 112.38 46.4152 112.281 46.514C112.181 46.6127 112.113 46.7388 112.086 46.8763C112.058 47.0138 112.072 47.1564 112.125 47.286C112.179 47.4155 112.27 47.5262 112.387 47.6038C112.504 47.6815 112.641 47.7226 112.781 47.722C112.874 47.7251 112.966 47.7093 113.052 47.6755C113.139 47.6417 113.217 47.5906 113.283 47.5253C113.349 47.4601 113.401 47.3821 113.435 47.2962C113.47 47.2102 113.486 47.1181 113.484 47.0254Z" fill="#263238"/>
<path id="Vector_133" d="M114.476 46.3321H113.854V46.1085H115.344V46.3321H114.722V47.9197H114.466L114.476 46.3321Z" fill="#263238"/>
<path id="Vector_134" d="M117.1 46.7533C117.1 47.1453 116.815 47.3851 116.342 47.3851H115.895V47.9326H115.636V46.1215H116.342C116.815 46.1215 117.1 46.358 117.1 46.7533ZM116.841 46.7533C116.841 46.4941 116.666 46.345 116.335 46.345H115.895V47.1583H116.335C116.666 47.1583 116.841 47.0125 116.841 46.7533Z" fill="#263238"/>
<path id="Vector_135" d="M118.056 47.0254C118.065 46.8379 118.127 46.6569 118.237 46.5044C118.346 46.3518 118.497 46.2341 118.672 46.1656C118.847 46.0971 119.038 46.0806 119.221 46.1182C119.405 46.1558 119.574 46.2458 119.708 46.3774L119.54 46.5426C119.475 46.4721 119.396 46.4163 119.307 46.3788C119.219 46.3414 119.124 46.3232 119.028 46.3256C118.843 46.3256 118.666 46.3989 118.535 46.5296C118.405 46.6602 118.331 46.8374 118.331 47.0222C118.331 47.2069 118.405 47.3841 118.535 47.5147C118.666 47.6454 118.843 47.7188 119.028 47.7188C119.124 47.7211 119.219 47.7029 119.307 47.6655C119.396 47.628 119.475 47.5722 119.54 47.5017L119.708 47.6669C119.574 47.7985 119.405 47.8885 119.221 47.9261C119.038 47.9637 118.847 47.9472 118.672 47.8787C118.497 47.8102 118.346 47.6925 118.237 47.5399C118.127 47.3874 118.065 47.2064 118.056 47.0189V47.0254Z" fill="#263238"/>
<path id="Vector_136" d="M119.857 47.2457C119.855 47.1036 119.895 46.9639 119.972 46.8444C120.049 46.725 120.16 46.6312 120.29 46.575C120.421 46.5188 120.565 46.5028 120.705 46.5289C120.845 46.5551 120.974 46.6222 121.075 46.7218C121.176 46.8215 121.246 46.949 121.275 47.0882C121.303 47.2275 121.29 47.3721 121.236 47.5037C121.182 47.6353 121.091 47.7479 120.973 47.8272C120.855 47.9064 120.716 47.9488 120.573 47.9488C120.479 47.9533 120.385 47.9383 120.297 47.9047C120.209 47.8712 120.129 47.8198 120.062 47.7537C119.994 47.6877 119.942 47.6085 119.906 47.5211C119.871 47.4337 119.855 47.3399 119.857 47.2457ZM121.033 47.2457C121.039 47.1818 121.031 47.1175 121.01 47.0569C120.989 46.9962 120.956 46.9406 120.913 46.8934C120.869 46.8462 120.817 46.8085 120.758 46.7828C120.699 46.757 120.636 46.7437 120.572 46.7437C120.508 46.7437 120.444 46.757 120.386 46.7828C120.327 46.8085 120.274 46.8462 120.231 46.8934C120.187 46.9406 120.154 46.9962 120.133 47.0569C120.113 47.1175 120.105 47.1818 120.11 47.2457C120.105 47.3096 120.113 47.3739 120.133 47.4346C120.154 47.4952 120.187 47.5509 120.231 47.5981C120.274 47.6453 120.327 47.6829 120.386 47.7087C120.444 47.7345 120.508 47.7478 120.572 47.7478C120.636 47.7478 120.699 47.7345 120.758 47.7087C120.817 47.6829 120.869 47.6453 120.913 47.5981C120.956 47.5509 120.989 47.4952 121.01 47.4346C121.031 47.3739 121.039 47.3096 121.033 47.2457Z" fill="#263238"/>
<path id="Vector_137" d="M122.926 46.0081V47.9294H122.689V47.7123C122.632 47.7879 122.558 47.8486 122.473 47.8892C122.388 47.9299 122.294 47.9492 122.2 47.9456C122.022 47.9335 121.855 47.8543 121.734 47.7241C121.612 47.5939 121.544 47.4223 121.544 47.2441C121.544 47.0659 121.612 46.8943 121.734 46.7641C121.855 46.6339 122.022 46.5547 122.2 46.5427C122.291 46.5399 122.382 46.5583 122.465 46.5965C122.549 46.6348 122.622 46.6917 122.679 46.763V46.0081H122.926ZM122.679 47.2425C122.675 47.1518 122.644 47.0644 122.59 46.9912C122.537 46.918 122.463 46.8622 122.377 46.8307C122.292 46.7992 122.2 46.7934 122.111 46.814C122.023 46.8346 121.943 46.8807 121.88 46.9467C121.818 47.0126 121.776 47.0954 121.76 47.1848C121.745 47.2742 121.755 47.3663 121.792 47.4496C121.828 47.5329 121.887 47.6037 121.963 47.6533C122.04 47.7029 122.128 47.729 122.219 47.7285C122.282 47.73 122.344 47.7184 122.402 47.6944C122.46 47.6703 122.513 47.6344 122.556 47.589C122.599 47.5435 122.633 47.4895 122.654 47.4304C122.675 47.3713 122.684 47.3084 122.679 47.2457V47.2425Z" fill="#263238"/>
<path id="Vector_138" d="M124.633 47.33H123.522C123.537 47.4477 123.597 47.555 123.689 47.6298C123.782 47.7046 123.899 47.7411 124.017 47.7317C124.091 47.7344 124.165 47.721 124.233 47.6925C124.301 47.6639 124.363 47.621 124.413 47.5665L124.552 47.7253C124.451 47.8281 124.321 47.8994 124.18 47.9305C124.039 47.9616 123.892 47.9512 123.757 47.9005C123.621 47.8498 123.504 47.761 123.418 47.6448C123.332 47.5286 123.281 47.39 123.272 47.2457C123.269 47.1537 123.284 47.0619 123.317 46.976C123.351 46.8902 123.401 46.812 123.466 46.7464C123.53 46.6808 123.608 46.6292 123.693 46.5947C123.779 46.5602 123.87 46.5436 123.962 46.5459C124.055 46.5413 124.148 46.5567 124.235 46.5912C124.321 46.6257 124.399 46.6784 124.463 46.7457C124.528 46.8131 124.577 46.8934 124.607 46.9814C124.637 47.0694 124.648 47.1628 124.64 47.2555C124.639 47.2804 124.637 47.3053 124.633 47.33ZM123.522 47.1518H124.416C124.407 47.0419 124.356 46.9395 124.275 46.8649C124.194 46.7903 124.087 46.7489 123.977 46.7489C123.867 46.7489 123.76 46.7903 123.679 46.8649C123.598 46.9395 123.547 47.0419 123.538 47.1518H123.522Z" fill="#263238"/>
</g>
<g id="Group_4" opacity="0.5">
<path id="Vector_139" d="M111.132 50.771C111.132 51.7916 110.558 52.3359 109.719 52.3359C109.461 52.345 109.205 52.2846 108.977 52.1609L109.139 51.8369C109.315 51.9367 109.515 51.985 109.716 51.9762C110.322 51.9762 110.708 51.5972 110.708 50.8487V50.745C110.607 50.8764 110.476 50.981 110.326 51.0494C110.175 51.1178 110.011 51.1479 109.846 51.1371C109.718 51.1511 109.589 51.1383 109.466 51.0994C109.344 51.0605 109.231 50.9964 109.135 50.9112C109.039 50.8261 108.962 50.7218 108.908 50.605C108.855 50.4882 108.827 50.3615 108.825 50.2331C108.828 50.1006 108.858 49.97 108.914 49.8495C108.969 49.7291 109.049 49.6212 109.147 49.5326C109.246 49.444 109.362 49.3765 109.487 49.3342C109.613 49.292 109.746 49.2759 109.878 49.287C110.678 49.2806 111.132 49.8184 111.132 50.771ZM110.604 50.2202C110.604 49.9124 110.358 49.6434 109.891 49.6434C109.81 49.6348 109.727 49.6434 109.649 49.6686C109.571 49.6938 109.499 49.735 109.438 49.7896C109.377 49.8443 109.328 49.9111 109.295 49.9858C109.261 50.0605 109.243 50.1415 109.243 50.2234C109.243 50.5733 109.502 50.8001 109.92 50.8001C110.003 50.8086 110.088 50.8001 110.168 50.7753C110.247 50.7504 110.322 50.7097 110.385 50.6556C110.449 50.6014 110.501 50.535 110.539 50.4601C110.577 50.3853 110.599 50.3037 110.604 50.2202Z" fill="#263238"/>
<path id="Vector_140" d="M111.54 50.8097C111.54 49.8377 112.062 49.2804 112.762 49.2804C113.461 49.2804 113.977 49.8377 113.977 50.8097C113.977 51.7817 113.455 52.3357 112.762 52.3357C112.068 52.3357 111.54 51.7817 111.54 50.8097ZM113.549 50.8097C113.549 50.045 113.225 49.6627 112.762 49.6627C112.298 49.6627 111.968 50.045 111.968 50.8097C111.968 51.5743 112.292 51.9566 112.762 51.9566C113.231 51.9566 113.549 51.5743 113.549 50.8097Z" fill="#263238"/>
<path id="Vector_141" d="M116.475 51.9307V52.3033H114.327V52.0117L115.545 50.8388C115.869 50.531 115.917 50.3431 115.917 50.1552C115.917 49.8506 115.7 49.6627 115.269 49.6627C115.126 49.6543 114.983 49.6791 114.851 49.7354C114.719 49.7916 114.601 49.8776 114.508 49.9867L114.216 49.734C114.353 49.5822 114.523 49.4628 114.711 49.3844C114.9 49.3059 115.104 49.2704 115.308 49.2804C115.93 49.2804 116.332 49.6044 116.332 50.1131C116.327 50.2966 116.281 50.4765 116.196 50.6393C116.111 50.8021 115.99 50.9435 115.843 51.0527L114.929 51.9307H116.475Z" fill="#263238"/>
<path id="Vector_142" d="M117.751 49.316V52.3033H117.327V49.6886H116.64V49.316H117.751Z" fill="#263238"/>
<path id="Vector_143" d="M118.402 50.8097C118.402 49.8377 118.924 49.2804 119.624 49.2804C120.324 49.2804 120.839 49.8377 120.839 50.8097C120.839 51.7817 120.321 52.3357 119.624 52.3357C118.927 52.3357 118.402 51.7817 118.402 50.8097ZM120.415 50.8097C120.415 50.045 120.091 49.6627 119.624 49.6627C119.157 49.6627 118.83 50.045 118.83 50.8097C118.83 51.5743 119.154 51.9566 119.624 51.9566C120.094 51.9566 120.415 51.5743 120.415 50.8097Z" fill="#263238"/>
</g>
</g>
<g id="freepik--Character--inject-24">
<path id="Vector_144" d="M112.211 69.3652C114.145 70.7036 116.309 71.6755 118.594 72.2326H118.616C118.445 72.2277 118.277 72.2752 118.134 72.3687C117.992 72.4567 117.88 72.5839 117.81 72.7348C117.786 72.781 117.773 72.8319 117.771 72.8838C117.823 72.2034 117.528 71.4388 117.32 70.7033C116.948 69.5401 116.51 68.3478 116.073 67.1782L117.324 66.5075C118.357 68.0919 121.808 73.1074 119.452 74.5589C119.049 74.7944 118.571 74.8707 118.114 74.7727C115.548 74.3926 113.1 73.4379 110.954 71.9799C110.805 71.8762 110.675 71.7855 110.5 71.6559L112.217 69.3587L112.211 69.3652Z" fill="#DC897C"/>
<path id="Vector_145" d="M111.848 69.012C112.982 69.1487 114.06 69.5861 114.968 70.2788L113.672 74.2899C113.672 74.2899 107.374 68.4839 111.848 69.012Z" fill="#407BFF"/>
<path id="Vector_146" opacity="0.6" d="M111.835 72.3848C112.412 73.0452 113.022 73.6756 113.662 74.2737L114.197 72.6246L114.968 70.2626C114.06 69.5704 112.984 69.1331 111.851 68.9958C109.097 68.688 110.413 70.7486 111.835 72.3848Z" fill="white"/>
<path id="Vector_147" opacity="0.2" d="M111.835 72.3848C112.412 73.0452 113.022 73.6756 113.662 74.2737L114.197 72.6246C113.525 72.1008 112.697 71.8158 111.845 71.8146C111.825 72.004 111.822 72.1948 111.835 72.3848Z" fill="black"/>
<path id="Vector_148" d="M97.8481 63.0795C97.8481 63.0795 94.8349 73.0976 101.182 74.4422C107.529 75.7868 108.216 71.1763 108.216 71.1763C108.216 71.1763 103 63.2836 97.8481 63.0795Z" fill="#263238"/>
<path id="Vector_149" d="M96.3609 66.3973C96.3492 66.4006 96.3369 66.4006 96.3252 66.3973C96.3161 66.3929 96.3079 66.3866 96.3013 66.3789C96.2946 66.3712 96.2896 66.3622 96.2866 66.3525C96.2836 66.3428 96.2825 66.3325 96.2836 66.3224C96.2847 66.3123 96.2878 66.3025 96.2928 66.2936C96.3876 66.1208 96.5212 65.9722 96.6831 65.8598C96.845 65.7473 97.0309 65.674 97.2259 65.6456C97.2461 65.6463 97.2654 65.6542 97.2803 65.6678C97.2952 65.6815 97.3046 65.7001 97.3069 65.7201C97.3078 65.7304 97.3067 65.7407 97.3036 65.7504C97.3005 65.7602 97.2955 65.7693 97.2888 65.7771C97.2822 65.7849 97.2741 65.7914 97.265 65.7961C97.2558 65.8007 97.2459 65.8036 97.2357 65.8044C97.0667 65.832 96.9063 65.8976 96.7665 65.9964C96.6267 66.0952 96.5113 66.2246 96.4289 66.3746C96.4206 66.3841 96.4099 66.3912 96.3979 66.3952C96.386 66.3991 96.3732 66.3999 96.3609 66.3973Z" fill="#263238"/>
<path id="Vector_150" d="M97.2681 67.6415C97.2274 68.032 97.1392 68.416 97.0056 68.7852C97.106 68.8451 97.2208 68.8768 97.3377 68.8768C97.4546 68.8768 97.5694 68.8451 97.6698 68.7852L97.2681 67.6415Z" fill="#DE5753"/>
<path id="Vector_151" d="M96.6557 67.2041C96.7237 67.3823 96.876 67.4892 96.9797 67.4438C97.0834 67.3985 97.1417 67.2203 97.0736 67.0421C97.0056 66.8639 96.8533 66.7569 96.7496 66.8023C96.646 66.8476 96.5909 67.0259 96.6557 67.2041Z" fill="#263238"/>
<path id="Vector_152" d="M96.8015 66.7926H96.3577C96.3577 66.7926 96.6752 67.0388 96.8015 66.7926Z" fill="#263238"/>
<path id="Vector_153" d="M103.107 68.8857C103.095 68.9147 103.08 68.942 103.061 68.9667C103.032 69.0217 103 69.0736 102.967 69.1287C102.777 69.4701 102.524 69.7724 102.222 70.0197C101.25 70.794 100.404 71.0273 99.6689 70.8037L99.562 70.7681C98.4701 70.3242 97.618 69.0185 96.9408 67.2916C96.6403 66.6158 96.451 65.8959 96.3803 65.1597C96.3803 65.1597 96.3803 65.1337 96.3803 65.1273C96.3803 65.1208 96.3803 65.0689 96.3803 65.043C96.355 64.6211 96.4353 64.1995 96.6141 63.8165C96.7929 63.4335 97.0645 63.1011 97.4041 62.8495C97.6946 62.6216 98.0098 62.427 98.3437 62.2696C101.58 60.6917 104.73 65.8303 103.107 68.8857Z" fill="#E4897B"/>
<path id="Vector_154" opacity="0.2" d="M102.967 69.1286C102.777 69.47 102.525 69.7724 102.222 70.0196C101.25 70.794 100.404 71.0273 99.6689 70.8037C100.384 70.6304 101.028 70.2399 101.513 69.6859C101.699 69.4923 101.927 69.342 102.178 69.2457C102.429 69.1495 102.699 69.1095 102.967 69.1286Z" fill="black"/>
<path id="Vector_155" d="M96.3641 65.1402C96.3641 65.1402 97.2681 67.5183 99.9087 67.4762C99.9087 67.4762 101.969 69.4202 103.359 68.8014C105.255 67.9622 105.643 64.5149 103.712 62.1075C101.205 58.9842 95.7356 61.236 96.3641 65.1402Z" fill="#263238"/>
<path id="Vector_156" d="M98.496 67.3402C98.3276 66.9805 98.3308 66.245 98.9237 66.0636C99.5166 65.8822 100.544 67.1425 99.2672 68.1275C99.0857 68.27 98.846 68.0854 98.496 67.3402Z" fill="#E4897B"/>
<path id="Vector_157" d="M99.2056 60.8115C99.2056 60.8115 96.7562 61.2943 95.9656 62.7555C95.039 64.4533 94.9936 65.7687 97.456 66.6435C97.456 66.6435 100.57 63.7275 101.911 63.4035C102.693 63.2096 103.489 63.0817 104.292 63.0212C103.398 60.4324 100.194 59.7391 99.2056 60.8115Z" fill="#263238"/>
<path id="Vector_158" d="M101.58 70.0812C101.58 70.0812 103.265 71.2476 103.703 73.1721L108.955 70.1071C108.955 70.1071 104.843 69.1707 104.137 67.5799C104.137 67.5799 101.389 67.9201 101.58 70.0812Z" fill="#E4897B"/>
<path id="Vector_159" d="M106.797 82.701C106.797 82.701 99.9929 76.0169 99.2606 73.9174C99.2606 73.9174 102.122 69.4624 107.84 69.2744C113.559 69.0865 117.45 79.9664 117.45 79.9664L106.797 82.701Z" fill="#407BFF"/>
<path id="Vector_160" opacity="0.6" d="M117.45 79.9697L106.8 82.7043C106.8 82.7043 105.316 81.243 103.657 79.4643C103.145 78.9102 102.611 78.327 102.096 77.7503C100.745 76.2178 99.5523 74.7209 99.2639 73.9077C99.2639 73.9077 102.122 69.4527 107.84 69.2647C113.559 69.0768 117.45 79.9697 117.45 79.9697Z" fill="white"/>
<path id="Vector_161" d="M100.44 66.3358C100.44 66.3358 101.435 69.6406 104.927 70.7357C108.42 71.8308 107.542 75.398 110.928 74.9768C112.729 74.7533 114.272 71.0888 108.747 67.8488C105.527 65.9664 106.777 59.778 99.9411 60.358C99.9346 60.3612 101.354 64.6024 100.44 66.3358Z" fill="#263238"/>
<path id="Vector_162" d="M103.832 133.077L102.212 132.707C102.455 124.607 103.625 114.813 104.658 107.455C104.82 106.301 104.982 105.213 105.132 104.195C105.206 103.712 105.274 103.249 105.342 102.802C105.666 100.596 105.964 98.8524 106.142 97.7735C106.275 96.9862 106.35 96.5552 106.35 96.5552L112.182 97.9776L111.764 99.4486L110.387 104.309L110.231 104.863L109.318 108.067L107.769 113.52C107.866 121.753 103.832 133.077 103.832 133.077Z" fill="#E4897B"/>
<path id="Vector_163" d="M117.699 131.722L116.041 131.638C114.777 122.929 114.246 112.036 114.016 104.464C113.983 103.291 113.954 102.196 113.931 101.198C113.931 101.15 113.931 101.101 113.931 101.052C113.889 99.0792 113.87 97.5111 113.86 96.5164C113.86 95.7388 113.86 95.3143 113.86 95.3143L119.844 95.7064L119.588 98.2012L119.213 101.862L119.138 102.582L118.879 105.076L118.179 111.78C119.708 119.88 117.699 131.722 117.699 131.722Z" fill="#E4897B"/>
<path id="Vector_164" d="M118.322 131.398C118.322 131.191 115.762 131.353 115.762 131.353C115.762 131.353 114.191 132.95 112.665 133.297C111.138 133.644 111.994 134.573 113.698 134.573H117.91C119.128 134.586 118.37 133.553 118.322 131.398Z" fill="#263238"/>
<path id="Vector_165" d="M114.194 131.946C114.157 131.912 114.131 131.868 114.12 131.819C114.109 131.771 114.113 131.72 114.132 131.674C114.142 131.637 114.16 131.603 114.183 131.574C114.206 131.544 114.235 131.52 114.268 131.502C114.45 131.428 114.648 131.405 114.842 131.437C114.635 131.327 114.453 131.194 114.443 131.058C114.443 130.97 114.495 130.899 114.612 130.844C114.663 130.821 114.718 130.809 114.774 130.809C114.83 130.809 114.885 130.821 114.936 130.844C115.282 130.99 115.496 131.586 115.506 131.609C115.513 131.625 115.513 131.644 115.506 131.661V131.677C115.5 131.684 115.492 131.69 115.483 131.693C115.153 131.862 114.796 131.972 114.427 132.017C114.343 132.023 114.26 131.997 114.194 131.946ZM114.336 131.622C114.319 131.631 114.303 131.643 114.29 131.658C114.278 131.673 114.268 131.69 114.262 131.709C114.236 131.81 114.262 131.836 114.262 131.845C114.385 131.946 114.852 131.803 115.234 131.644C114.943 131.553 114.632 131.544 114.336 131.618V131.622ZM114.66 130.974C114.625 130.974 114.566 131.022 114.57 131.058C114.57 131.171 114.942 131.382 115.318 131.515C115.234 131.29 115.081 131.098 114.881 130.967C114.848 130.952 114.813 130.944 114.777 130.945C114.74 130.944 114.704 130.952 114.67 130.967L114.66 130.974Z" fill="#263238"/>
<path id="Vector_166" d="M104.652 131.398C104.652 131.191 102.096 131.353 102.096 131.353C102.096 131.353 100.524 132.95 98.9982 133.297C97.4722 133.644 98.3243 134.573 100.029 134.573H104.241C105.462 134.586 104.707 133.553 104.652 131.398Z" fill="#263238"/>
<path id="Vector_167" d="M100.528 131.946C100.491 131.912 100.466 131.868 100.455 131.819C100.444 131.771 100.448 131.72 100.466 131.674C100.476 131.637 100.493 131.603 100.517 131.574C100.54 131.544 100.569 131.52 100.602 131.502C100.784 131.428 100.982 131.405 101.176 131.437C100.968 131.327 100.787 131.194 100.78 131.058C100.78 130.972 100.835 130.9 100.945 130.844C100.996 130.821 101.052 130.809 101.107 130.809C101.163 130.809 101.219 130.821 101.269 130.844C101.616 130.99 101.83 131.586 101.84 131.609C101.844 131.617 101.846 131.626 101.846 131.635C101.846 131.644 101.844 131.653 101.84 131.661C101.84 131.661 101.84 131.661 101.84 131.677L101.817 131.693C101.485 131.862 101.127 131.971 100.758 132.017C100.675 132.021 100.593 131.996 100.528 131.946ZM100.67 131.622C100.653 131.631 100.638 131.643 100.625 131.658C100.613 131.673 100.604 131.691 100.599 131.709C100.573 131.81 100.599 131.836 100.615 131.845C100.735 131.946 101.201 131.803 101.587 131.644C101.29 131.549 100.972 131.54 100.67 131.618V131.622ZM100.994 130.974C100.958 130.974 100.9 131.022 100.903 131.058C100.903 131.171 101.276 131.382 101.655 131.515C101.57 131.29 101.416 131.098 101.214 130.967C101.182 130.952 101.147 130.944 101.111 130.945C101.074 130.944 101.037 130.952 101.004 130.967L100.994 130.974Z" fill="#263238"/>
<path id="Vector_168" d="M105.417 98.9917L106.797 89.2717V82.6945C110.435 79.96 117.45 79.96 117.45 79.96C117.45 79.96 122.838 87.4346 120.22 99.724L113.455 100.696L113.024 98.402L112.175 100.696L105.417 98.9917Z" fill="#263238"/>
<path id="Vector_169" opacity="0.2" d="M105.417 98.9917L106.797 89.2717V82.6945C110.435 79.96 117.45 79.96 117.45 79.96C117.45 79.96 122.838 87.4346 120.22 99.724L113.455 100.696L113.024 98.402L112.175 100.696L105.417 98.9917Z" fill="white"/>
<path id="Vector_170" opacity="0.2" d="M113.024 98.4377L114.32 94.3909C114.32 94.3909 115.687 93.9762 117.444 91.2611C117.45 91.2611 117.145 95.8813 113.024 98.4377Z" fill="black"/>
<path id="Vector_171" opacity="0.2" d="M110.141 84.564L113.177 84.2756C113.661 85.4106 113.829 86.6557 113.663 87.8785L111.719 89.0482L110.309 88.047C110.309 88.047 110.264 85.4777 110.141 84.564Z" fill="black"/>
<path id="Vector_172" opacity="0.2" d="M117.45 83.822C117.857 84.8234 118.158 85.8648 118.348 86.9292L119.423 87.386L120.003 86.6635C120.003 86.6635 119.611 84.5478 118.947 83.511L117.45 83.822Z" fill="black"/>
<path id="Vector_173" d="M105.29 98.4377L112.47 100.544L112.02 101.509L105.2 99.4097L105.29 98.4377Z" fill="#263238"/>
<path id="Vector_174" d="M113.177 100.404L113.296 101.292L120.337 100.404L120.444 99.2866L113.177 100.404Z" fill="#263238"/>
<path id="Vector_175" d="M114.654 81.324C115.806 81.1295 116.969 81.0158 118.137 80.9838L117.703 80.2677C116.567 80.2378 115.431 80.305 114.307 80.4686L114.654 81.324Z" fill="#263238"/>
<path id="Vector_176" d="M108.197 82.2053C107.267 82.607 106.732 82.9083 106.732 82.9083V83.7929C107.255 83.5293 107.779 83.2885 108.303 83.0703L108.197 82.2053Z" fill="#263238"/>
<path id="Vector_177" d="M108.644 82.944C110.445 82.238 112.313 81.7179 114.22 81.3921L113.896 80.5302C112.047 80.8384 110.241 81.3581 108.511 82.0789L108.644 82.944Z" fill="#263238"/>
<path id="Vector_178" d="M89.1777 85.4744L87.3374 84.7357L87.0134 86.4724C87.0134 86.4724 88.6723 87.4768 89.3657 86.2812L89.1777 85.4744Z" fill="#E4897B"/>
<path id="Vector_179" d="M86.4238 84.8426L85.8341 86.184L87.0264 86.4724L87.3375 84.7357L86.4238 84.8426Z" fill="#E4897B"/>
<path id="Vector_180" d="M117.421 66.8088L117.204 64.8389L115.525 65.3832C115.525 65.3832 115.422 67.3272 116.805 67.3661L117.421 66.8088Z" fill="#E4897B"/>
<path id="Vector_181" d="M116.676 64.084L115.214 64.2006L115.526 65.3832L117.204 64.8389L116.676 64.084Z" fill="#E4897B"/>
<path id="Vector_182" opacity="0.2" d="M103.657 79.474C103.145 78.9199 102.611 78.3367 102.096 77.76C101.898 76.5547 101.772 75.492 101.772 75.492C102.389 75.9498 102.884 76.5526 103.213 77.2471C103.541 77.9416 103.694 78.7064 103.657 79.474Z" fill="black"/>
<path id="Vector_183" d="M101.96 74.9347C101.217 77.9267 100.097 80.8119 98.6256 83.5207C97.1676 86.2909 91.624 86.6246 88.8376 86.6959L88.708 85.2833C90.3863 84.888 95.6027 83.8479 96.3155 82.3349C97.4792 79.7134 98.4368 77.0052 99.1797 74.2349L101.96 74.9282V74.9347Z" fill="#DC897C"/>
<path id="Vector_184" d="M100.372 72.4917C98.7876 73.5285 97.9387 76.2242 97.6698 77.5429L100.962 79.9664L102.624 78.3464C103.298 74.6269 100.975 72.0997 100.372 72.4917Z" fill="#407BFF"/>
<path id="Vector_185" opacity="0.6" d="M100.372 72.4917C98.7876 73.5285 97.9387 76.2242 97.6698 77.5429L100.962 79.9664L102.624 78.3464C103.298 74.6269 100.975 72.0997 100.372 72.4917Z" fill="white"/>
<path id="Vector_186" d="M116.442 67.4406L114.09 67.6933C114.057 67.6942 114.024 67.6883 113.993 67.6758C113.962 67.6634 113.935 67.6447 113.912 67.621C113.888 67.5972 113.87 67.5689 113.859 67.5379C113.847 67.5068 113.842 67.4737 113.844 67.4406L113.701 62.4607C113.697 62.3903 113.718 62.3207 113.761 62.2647C113.804 62.2087 113.865 62.1701 113.935 62.1561L116.284 61.9067C116.317 61.9052 116.35 61.9108 116.381 61.9231C116.412 61.9354 116.44 61.954 116.463 61.9779C116.487 62.0018 116.504 62.0302 116.516 62.0615C116.527 62.0928 116.532 62.1261 116.53 62.1594L116.672 67.1393C116.677 67.2088 116.656 67.2776 116.614 67.333C116.572 67.3884 116.511 67.4266 116.442 67.4406Z" fill="#263238"/>
<path id="Vector_187" opacity="0.6" d="M116.442 67.4406L114.09 67.6933C114.057 67.6942 114.024 67.6883 113.993 67.6758C113.962 67.6634 113.935 67.6447 113.912 67.621C113.888 67.5972 113.87 67.5689 113.859 67.5379C113.847 67.5068 113.842 67.4737 113.844 67.4406L113.701 62.4607C113.697 62.3903 113.718 62.3207 113.761 62.2647C113.804 62.2087 113.865 62.1701 113.935 62.1561L116.284 61.9067C116.317 61.9052 116.35 61.9108 116.381 61.9231C116.412 61.9354 116.44 61.954 116.463 61.9779C116.487 62.0018 116.504 62.0302 116.516 62.0615C116.527 62.0928 116.532 62.1261 116.53 62.1594L116.672 67.1393C116.677 67.2088 116.656 67.2776 116.614 67.333C116.572 67.3884 116.511 67.4266 116.442 67.4406Z" fill="white"/>
<path id="Vector_188" d="M116.235 67.4633L113.886 67.7128C113.853 67.7146 113.82 67.7095 113.788 67.6976C113.757 67.6857 113.729 67.6674 113.705 67.6439C113.682 67.6203 113.664 67.592 113.652 67.5609C113.64 67.5298 113.635 67.4965 113.637 67.4633L113.497 62.4802C113.491 62.4103 113.512 62.3408 113.554 62.285C113.597 62.2293 113.658 62.1915 113.727 62.1788L116.076 61.9294C116.109 61.9279 116.142 61.9335 116.173 61.9455C116.204 61.9576 116.232 61.976 116.255 61.9995C116.278 62.023 116.296 62.0511 116.308 62.082C116.319 62.1129 116.324 62.1459 116.323 62.1788L116.465 67.162C116.471 67.2318 116.451 67.3013 116.408 67.3571C116.366 67.4128 116.304 67.4506 116.235 67.4633Z" fill="#263238"/>
<path id="Vector_189" opacity="0.7" d="M116.235 67.4633L113.886 67.7128C113.853 67.7146 113.82 67.7095 113.788 67.6976C113.757 67.6857 113.729 67.6674 113.705 67.6439C113.682 67.6203 113.664 67.592 113.652 67.5609C113.64 67.5298 113.635 67.4965 113.637 67.4633L113.497 62.4802C113.491 62.4103 113.512 62.3408 113.554 62.285C113.597 62.2293 113.658 62.1915 113.727 62.1788L116.076 61.9294C116.109 61.9279 116.142 61.9335 116.173 61.9455C116.204 61.9576 116.232 61.976 116.255 61.9995C116.278 62.023 116.296 62.0511 116.308 62.082C116.319 62.1129 116.324 62.1459 116.323 62.1788L116.465 67.162C116.471 67.2318 116.451 67.3013 116.408 67.3571C116.366 67.4128 116.304 67.4506 116.235 67.4633Z" fill="white"/>
<path id="Vector_190" d="M116.079 62.0266L115.464 62.0914L115.386 62.2825L114.434 62.383L114.346 62.2112L113.73 62.2761C113.686 62.2853 113.646 62.3105 113.619 62.3469C113.591 62.3832 113.578 62.4283 113.581 62.4737L113.721 67.4536C113.719 67.4752 113.723 67.4969 113.73 67.5172C113.738 67.5375 113.75 67.556 113.765 67.5713C113.78 67.5866 113.799 67.5985 113.819 67.6062C113.839 67.6138 113.861 67.617 113.883 67.6156L116.232 67.3661C116.276 67.3575 116.316 67.333 116.343 67.2972C116.371 67.2613 116.384 67.2167 116.381 67.1717L116.241 62.1886C116.242 62.1671 116.239 62.1456 116.231 62.1255C116.223 62.1054 116.211 62.0872 116.196 62.072C116.181 62.0567 116.163 62.0448 116.143 62.037C116.122 62.0292 116.101 62.0257 116.079 62.0266Z" fill="#407BFF"/>
<path id="Vector_191" opacity="0.8" d="M115.765 63.828L114.038 64.0127C114.017 64.0136 113.996 64.0101 113.976 64.0025C113.957 63.9948 113.939 63.9832 113.924 63.9682C113.909 63.9533 113.897 63.9354 113.89 63.9158C113.882 63.8961 113.879 63.875 113.88 63.8539V63.3744C113.875 63.3297 113.888 63.2851 113.915 63.2492C113.942 63.2133 113.981 63.1887 114.025 63.18L115.755 62.9953C115.777 62.9948 115.798 62.9988 115.817 63.0068C115.837 63.0149 115.854 63.0269 115.869 63.0421C115.884 63.0574 115.895 63.0755 115.902 63.0953C115.909 63.1151 115.912 63.1363 115.911 63.1573L115.927 63.6369C115.93 63.6834 115.915 63.7293 115.885 63.7649C115.854 63.8005 115.812 63.8231 115.765 63.828Z" fill="white"/>
</g>
</g>
</svg>
