<svg width="278" height="278" viewBox="0 0 278 278" fill="none" xmlns="http://www.w3.org/2000/svg">
<path d="M278 212.614H0V212.753H278V212.614Z" fill="#EBEBEB"/>
<path d="M250.144 221.56H231.73V221.699H250.144V221.56Z" fill="#EBEBEB"/>
<path d="M184.158 223.073H179.327V223.212H184.158V223.073Z" fill="#EBEBEB"/>
<path d="M231.174 216.401H220.504V216.54H231.174V216.401Z" fill="#EBEBEB"/>
<path d="M53.1814 217.335H29.1677V217.474H53.1814V217.335Z" fill="#EBEBEB"/>
<path d="M61.6547 217.335H58.1353V217.474H61.6547V217.335Z" fill="#EBEBEB"/>
<path d="M125.183 219.681H73.0974V219.82H125.183V219.681Z" fill="#EBEBEB"/>
<path d="M131.772 187.817H24.4141C23.573 187.815 22.767 187.48 22.1728 186.885C21.5786 186.29 21.2449 185.483 21.2449 184.642V33.7269C21.2522 32.8907 21.5891 32.0912 22.1825 31.5019C22.7759 30.9127 23.5778 30.5814 24.4141 30.58H131.772C132.614 30.58 133.422 30.9144 134.017 31.5098C134.612 32.1052 134.947 32.9127 134.947 33.7547V184.642C134.947 185.484 134.612 186.292 134.017 186.887C133.422 187.482 132.614 187.817 131.772 187.817ZM24.4141 30.6912C23.6099 30.6926 22.8392 31.0131 22.2711 31.5823C21.7029 32.1514 21.3839 32.9227 21.3839 33.7269V184.642C21.3839 185.446 21.7029 186.217 22.2711 186.787C22.8392 187.356 23.6099 187.676 24.4141 187.678H131.772C132.577 187.676 133.348 187.356 133.917 186.787C134.486 186.218 134.806 185.447 134.808 184.642V33.7269C134.806 32.9222 134.486 32.1509 133.917 31.5819C133.348 31.0129 132.577 30.6926 131.772 30.6912H24.4141Z" fill="#EBEBEB"/>
<path d="M252.04 187.817H144.677C143.835 187.815 143.029 187.48 142.433 186.885C141.838 186.29 141.503 185.484 141.502 184.642V33.7269C141.511 32.8902 141.849 32.0907 142.443 31.5016C143.037 30.9125 143.84 30.5814 144.677 30.58H252.04C252.876 30.5828 253.676 30.9148 254.268 31.5039C254.86 32.0929 255.197 32.8917 255.204 33.7269V184.642C255.204 185.482 254.871 186.288 254.278 186.883C253.685 187.478 252.88 187.814 252.04 187.817ZM144.677 30.6912C143.872 30.6926 143.101 31.0129 142.532 31.5819C141.963 32.1509 141.642 32.9222 141.641 33.7269V184.642C141.642 185.447 141.963 186.218 142.532 186.787C143.101 187.356 143.872 187.676 144.677 187.678H252.04C252.845 187.676 253.616 187.356 254.185 186.787C254.754 186.218 255.075 185.447 255.076 184.642V33.7269C255.075 32.9222 254.754 32.1509 254.185 31.5819C253.616 31.0129 252.845 30.6926 252.04 30.6912H144.677Z" fill="#EBEBEB"/>
<path d="M91.4566 36.557H51.8416V170.948H91.4566V36.557Z" fill="#FAFAFA"/>
<path d="M85.5573 36.557H83.2443L69.4277 170.948H71.7407L85.5573 36.557Z" fill="#F5F5F5"/>
<path d="M90.7559 37.0741H51.5857V38.2584H90.7559V37.0741Z" fill="#E0E0E0"/>
<path d="M90.7559 169.769H51.5857V172.304H90.7559V169.769Z" fill="#EBEBEB"/>
<path d="M90.1054 172.193H53.0925V172.304H90.1054V172.193Z" fill="#EBEBEB"/>
<path d="M53.0925 37.0741H90.1054V172.193H92.3238V35.4116H50.874V172.193H53.0925V37.0741Z" fill="#EBEBEB"/>
<path d="M135.542 36.557H95.9268V170.948H135.542V36.557Z" fill="#FAFAFA"/>
<path d="M124.55 36.557H111.923L98.1062 170.948H110.733L124.55 36.557Z" fill="#F5F5F5"/>
<path d="M135.953 37.0741H95.6709V38.2584H135.953V37.0741Z" fill="#E0E0E0"/>
<path d="M135.953 169.769H95.6709V172.304H135.953V169.769Z" fill="#EBEBEB"/>
<path d="M134.191 172.193H97.1777V172.304H134.191V172.193Z" fill="#EBEBEB"/>
<path d="M97.1777 37.0741H134.191V172.193H136.403V35.4116H94.9592V172.193H97.1777V37.0741Z" fill="#EBEBEB"/>
<path d="M178.509 36.557H140.006V170.948H178.509V36.557Z" fill="#FAFAFA"/>
<path d="M161.824 36.557H159.511L145.694 170.948H148.007L161.824 36.557Z" fill="#F5F5F5"/>
<path d="M178.926 37.0741H139.756V38.2584H178.926V37.0741Z" fill="#E0E0E0"/>
<path d="M178.926 169.769H139.756V172.304H178.926V169.769Z" fill="#EBEBEB"/>
<path d="M178.276 172.193H141.263V172.304H178.276V172.193Z" fill="#EBEBEB"/>
<path d="M141.263 37.0741H178.27V172.193H180.489V35.4116H139.044V172.193H141.263V37.0741Z" fill="#EBEBEB"/>
<path d="M223.707 36.557H184.092V170.948H223.707V36.557Z" fill="#FAFAFA"/>
<path d="M219.831 36.557H207.204L193.382 170.948H206.015L219.831 36.557Z" fill="#F5F5F5"/>
<path d="M223.006 37.0741H183.836V38.2584H223.006V37.0741Z" fill="#E0E0E0"/>
<path d="M223.006 169.769H183.836V172.304H223.006V169.769Z" fill="#EBEBEB"/>
<path d="M185.343 37.0741H222.355V172.193H224.574V35.4116H183.13V172.193H185.343V37.0741Z" fill="#EBEBEB"/>
<path d="M222.355 172.193H185.343V172.304H222.355V172.193Z" fill="#EBEBEB"/>
<path d="M81.9766 140.034H64.7795V169.775H81.9766V140.034Z" fill="#EBEBEB"/>
<path d="M78.6741 135.875V143.337H77.323H69.4389H68.0823V135.875H78.6741Z" fill="#EBEBEB"/>
<path d="M78.674 143.337H80.8757V141.135H78.674V143.337Z" fill="#FAFAFA"/>
<path d="M74.4149 143.337H76.6167V141.135H74.4149V143.337Z" fill="#FAFAFA"/>
<path d="M70.1505 143.337H72.3523V141.135H70.1505V143.337Z" fill="#FAFAFA"/>
<path d="M65.8859 143.337H68.0876V141.135H65.8859V143.337Z" fill="#F0F0F0"/>
<path d="M78.674 147.334H80.8757V145.133H78.674V147.334Z" fill="#F0F0F0"/>
<path d="M74.4149 147.334H76.6167V145.133H74.4149V147.334Z" fill="#F0F0F0"/>
<path d="M70.1505 147.334H72.3523V145.133H70.1505V147.334Z" fill="#FAFAFA"/>
<path d="M65.8859 147.334H68.0876V145.133H65.8859V147.334Z" fill="#FAFAFA"/>
<path d="M78.674 151.338H80.8757V149.136H78.674V151.338Z" fill="#F0F0F0"/>
<path d="M74.4149 151.338H76.6167V149.136H74.4149V151.338Z" fill="#FAFAFA"/>
<path d="M70.1505 151.338H72.3523V149.136H70.1505V151.338Z" fill="#FAFAFA"/>
<path d="M74.4149 139.878H76.6167V137.677H74.4149V139.878Z" fill="#FAFAFA"/>
<path d="M70.1505 139.878H72.3523V137.677H70.1505V139.878Z" fill="#F0F0F0"/>
<path d="M65.8859 151.338H68.0876V149.136H65.8859V151.338Z" fill="#F0F0F0"/>
<path d="M78.674 155.341H80.8757V153.139H78.674V155.341Z" fill="#FAFAFA"/>
<path d="M74.4149 155.341H76.6167V153.139H74.4149V155.341Z" fill="#F0F0F0"/>
<path d="M70.1505 155.341H72.3523V153.139H70.1505V155.341Z" fill="#F0F0F0"/>
<path d="M65.8859 155.341H68.0876V153.139H65.8859V155.341Z" fill="#FAFAFA"/>
<path d="M78.674 159.344H80.8757V157.142H78.674V159.344Z" fill="#F0F0F0"/>
<path d="M74.4149 159.344H76.6167V157.142H74.4149V159.344Z" fill="#FAFAFA"/>
<path d="M70.1505 159.344H72.3523V157.142H70.1505V159.344Z" fill="#FAFAFA"/>
<path d="M65.8859 159.344H68.0876V157.142H65.8859V159.344Z" fill="#F0F0F0"/>
<path d="M78.674 163.342H80.8757V161.14H78.674V163.342Z" fill="#F0F0F0"/>
<path d="M74.4149 163.342H76.6167V161.14H74.4149V163.342Z" fill="#FAFAFA"/>
<path d="M70.1505 163.342H72.3523V161.14H70.1505V163.342Z" fill="#F0F0F0"/>
<path d="M65.8859 163.342H68.0876V161.14H65.8859V163.342Z" fill="#FAFAFA"/>
<path d="M78.674 167.345H80.8757V165.143H78.674V167.345Z" fill="#FAFAFA"/>
<path d="M74.4149 167.345H76.6167V165.143H74.4149V167.345Z" fill="#FAFAFA"/>
<path d="M70.1505 167.345H72.3523V165.143H70.1505V167.345Z" fill="#F0F0F0"/>
<path d="M65.8859 167.345H68.0876V165.143H65.8859V167.345Z" fill="#F0F0F0"/>
<path d="M203.129 150.865H187.722V169.769H203.129V150.865Z" fill="#F0F0F0"/>
<path d="M189.062 152.967H192.643H193.633H194.617V154.935H193.633H192.643H189.062V152.967Z" fill="#E6E6E6"/>
<path d="M189.062 156.786H192.643H193.633H194.617V158.76H193.633H192.643H189.062V156.786Z" fill="#FAFAFA"/>
<path d="M189.062 160.606H192.643H193.633H194.617V162.58H193.633H192.643H189.062V160.606Z" fill="#E6E6E6"/>
<path d="M189.062 164.426H192.643H194.166H194.617V166.4H194.166H192.643H189.062V164.426Z" fill="#FAFAFA"/>
<path d="M196.229 152.967H199.815H200.799H201.783V154.935H200.799H199.815H196.229V152.967Z" fill="#FAFAFA"/>
<path d="M196.229 156.786H199.815H201.205H201.783V158.76H201.205H199.815H196.229V156.786Z" fill="#FAFAFA"/>
<path d="M196.229 160.606H199.815H200.799H201.783V162.58H200.799H199.815H196.229V160.606Z" fill="#E6E6E6"/>
<path d="M196.229 164.426H199.815H200.799H201.783V166.4H200.799H199.815H196.229V164.426Z" fill="#FAFAFA"/>
<path d="M128.886 158.026H114.886V169.775H128.886V158.026Z" fill="#F0F0F0"/>
<path d="M126.201 161.284H127.991V159.494H126.201V161.284Z" fill="#FAFAFA"/>
<path d="M122.731 161.284H124.522V159.494H122.731V161.284Z" fill="#FAFAFA"/>
<path d="M119.257 161.284H121.047V159.494H119.257V161.284Z" fill="#FAFAFA"/>
<path d="M115.787 161.284H117.577V159.494H115.787V161.284Z" fill="#FAFAFA"/>
<path d="M126.201 164.537H127.991V162.747H126.201V164.537Z" fill="#FAFAFA"/>
<path d="M122.731 164.537H124.522V162.747H122.731V164.537Z" fill="#FAFAFA"/>
<path d="M119.257 164.537H121.047V162.747H119.257V164.537Z" fill="#FAFAFA"/>
<path d="M115.787 164.537H117.577V162.747H115.787V164.537Z" fill="#E6E6E6"/>
<path d="M126.201 167.795H127.991V166.005H126.201V167.795Z" fill="#E6E6E6"/>
<path d="M122.731 167.795H124.522V166.005H122.731V167.795Z" fill="#E6E6E6"/>
<path d="M119.257 167.795H121.047V166.005H119.257V167.795Z" fill="#FAFAFA"/>
<path d="M115.787 167.795H117.577V166.005H115.787V167.795Z" fill="#E6E6E6"/>
<path d="M112.99 149.342H98.9902V169.775H112.99V149.342Z" fill="#F0F0F0"/>
<path d="M112.095 150.237H106.83V155.285H112.095V150.237Z" fill="#FAFAFA"/>
<path d="M105.151 150.237H99.8855V155.285H105.151V150.237Z" fill="#FAFAFA"/>
<path d="M112.095 156.747H106.83V161.796H112.095V156.747Z" fill="#FAFAFA"/>
<path d="M105.151 156.747H99.8855V161.796H105.151V156.747Z" fill="#FAFAFA"/>
<path d="M112.095 163.258H106.83V168.307H112.095V163.258Z" fill="#FAFAFA"/>
<path d="M105.151 163.258H99.8855V168.307H105.151V163.258Z" fill="#FAFAFA"/>
<path d="M139 237.723C198.538 237.723 246.803 234.905 246.803 231.429C246.803 227.953 198.538 225.135 139 225.135C79.4622 225.135 31.1973 227.953 31.1973 231.429C31.1973 234.905 79.4622 237.723 139 237.723Z" fill="#F5F5F5"/>
<path d="M247.181 44.2632V166.717L232.447 181.451H147.151V44.2632H247.181Z" fill="#407BFF"/>
<path opacity="0.8" d="M247.181 44.2632V166.717L232.447 181.451H147.151V44.2632H247.181Z" fill="white"/>
<path opacity="0.2" d="M232.447 181.451V167.15H247.181L232.736 181.595" fill="black"/>
<path opacity="0.1" d="M185.003 56.1561H157.415C157.027 56.1561 156.655 56.002 156.381 55.7278C156.106 55.4535 155.952 55.0816 155.952 54.6938C155.952 54.5013 155.989 54.3105 156.062 54.1325C156.135 53.9544 156.243 53.7926 156.379 53.6562C156.515 53.5198 156.676 53.4116 156.854 53.3378C157.032 53.264 157.222 53.226 157.415 53.226H185.003C185.392 53.2274 185.764 53.3827 186.038 53.6578C186.312 53.9329 186.466 54.3055 186.466 54.6938C186.466 55.0816 186.312 55.4535 186.037 55.7278C185.763 56.002 185.391 56.1561 185.003 56.1561Z" fill="black"/>
<path opacity="0.1" d="M235.043 68.0211H168.535C168.342 68.0211 168.151 67.9831 167.974 67.9092C167.796 67.8354 167.634 67.7272 167.499 67.5908C167.363 67.4544 167.255 67.2926 167.182 67.1145C167.109 66.9365 167.072 66.7457 167.072 66.5532C167.072 66.1654 167.226 65.7935 167.501 65.5192C167.775 65.245 168.147 65.0909 168.535 65.0909H235.043C235.431 65.0909 235.803 65.245 236.077 65.5192C236.352 65.7935 236.506 66.1654 236.506 66.5532C236.506 66.9416 236.352 67.3141 236.078 67.5892C235.804 67.8643 235.432 68.0196 235.043 68.0211Z" fill="black"/>
<path opacity="0.1" d="M235.043 73.7868H157.415C157.027 73.7868 156.655 73.6328 156.381 73.3585C156.106 73.0843 155.952 72.7123 155.952 72.3245C155.952 72.132 155.989 71.9413 156.062 71.7632C156.135 71.5852 156.243 71.4233 156.379 71.2869C156.515 71.1506 156.676 71.0424 156.854 70.9685C157.032 70.8947 157.222 70.8567 157.415 70.8567H235.043C235.432 70.8582 235.804 71.0135 236.078 71.2886C236.352 71.5637 236.506 71.9362 236.506 72.3245C236.506 72.7123 236.352 73.0843 236.077 73.3585C235.803 73.6328 235.431 73.7868 235.043 73.7868Z" fill="black"/>
<path opacity="0.1" d="M235.043 80.3032H157.415C157.222 80.3032 157.032 80.2652 156.854 80.1913C156.676 80.1175 156.515 80.0093 156.379 79.8729C156.243 79.7365 156.135 79.5747 156.062 79.3966C155.989 79.2186 155.952 79.0278 155.952 78.8353C155.952 78.4475 156.106 78.0756 156.381 77.8013C156.655 77.5271 157.027 77.373 157.415 77.373H235.043C235.431 77.373 235.803 77.5271 236.077 77.8013C236.352 78.0756 236.506 78.4475 236.506 78.8353C236.506 79.2237 236.352 79.5962 236.078 79.8713C235.804 80.1464 235.432 80.3017 235.043 80.3032Z" fill="black"/>
<path opacity="0.1" d="M235.043 86.8138H157.415C157.027 86.8138 156.655 86.6598 156.381 86.3855C156.106 86.1113 155.952 85.7394 155.952 85.3516C155.952 84.9637 156.106 84.5918 156.381 84.3176C156.655 84.0433 157.027 83.8893 157.415 83.8893H235.043C235.431 83.8893 235.803 84.0433 236.077 84.3176C236.352 84.5918 236.506 84.9637 236.506 85.3516C236.506 85.7394 236.352 86.1113 236.077 86.3855C235.803 86.6598 235.431 86.8138 235.043 86.8138Z" fill="black"/>
<path opacity="0.1" d="M235.043 93.3302H157.415C157.027 93.3302 156.655 93.1761 156.381 92.9019C156.106 92.6277 155.952 92.2557 155.952 91.8679C155.952 91.6757 155.989 91.4852 156.062 91.3075C156.135 91.1297 156.243 90.9682 156.379 90.8323C156.515 90.6964 156.676 90.5887 156.854 90.5155C157.032 90.4422 157.222 90.4049 157.415 90.4057H235.043C235.431 90.4057 235.803 90.5597 236.077 90.8339C236.352 91.1082 236.506 91.4801 236.506 91.8679C236.506 92.2557 236.352 92.6277 236.077 92.9019C235.803 93.1761 235.431 93.3302 235.043 93.3302Z" fill="black"/>
<path opacity="0.1" d="M235.043 99.8465H157.415C157.027 99.8465 156.655 99.6924 156.381 99.4182C156.106 99.144 155.952 98.772 155.952 98.3842C155.952 98.1917 155.989 98.001 156.062 97.8229C156.135 97.6449 156.243 97.483 156.379 97.3466C156.515 97.2103 156.676 97.1021 156.854 97.0282C157.032 96.9544 157.222 96.9164 157.415 96.9164H235.043C235.432 96.9179 235.804 97.0731 236.078 97.3483C236.352 97.6234 236.506 97.9959 236.506 98.3842C236.506 98.772 236.352 99.144 236.077 99.4182C235.803 99.6924 235.431 99.8465 235.043 99.8465Z" fill="black"/>
<path opacity="0.1" d="M235.049 103.433H157.415C156.607 103.433 155.952 104.087 155.952 104.895V104.901C155.952 105.708 156.607 106.363 157.415 106.363H235.049C235.857 106.363 236.511 105.708 236.511 104.901V104.895C236.511 104.087 235.857 103.433 235.049 103.433Z" fill="black"/>
<path opacity="0.1" d="M235.043 112.868H157.415C157.027 112.868 156.655 112.714 156.381 112.44C156.106 112.166 155.952 111.794 155.952 111.406C155.952 111.018 156.106 110.646 156.381 110.372C156.655 110.098 157.027 109.943 157.415 109.943H235.043C235.431 109.943 235.803 110.098 236.077 110.372C236.352 110.646 236.506 111.018 236.506 111.406C236.506 111.794 236.352 112.166 236.077 112.44C235.803 112.714 235.431 112.868 235.043 112.868Z" fill="black"/>
<path opacity="0.1" d="M235.043 119.39H157.415C157.027 119.39 156.655 119.236 156.381 118.962C156.106 118.687 155.952 118.315 155.952 117.928C155.952 117.735 155.989 117.545 156.062 117.367C156.135 117.189 156.243 117.028 156.379 116.892C156.515 116.756 156.676 116.648 156.854 116.575C157.032 116.502 157.222 116.465 157.415 116.465H235.043C235.431 116.465 235.803 116.619 236.077 116.894C236.352 117.168 236.506 117.54 236.506 117.928C236.506 118.315 236.352 118.687 236.077 118.962C235.803 119.236 235.431 119.39 235.043 119.39Z" fill="black"/>
<path opacity="0.1" d="M235.043 125.906H157.415C157.027 125.906 156.655 125.752 156.381 125.478C156.106 125.204 155.952 124.832 155.952 124.444C155.952 124.251 155.989 124.061 156.062 123.883C156.135 123.705 156.243 123.543 156.379 123.406C156.515 123.27 156.676 123.162 156.854 123.088C157.032 123.014 157.222 122.976 157.415 122.976H235.043C235.432 122.978 235.804 123.133 236.078 123.408C236.352 123.683 236.506 124.056 236.506 124.444C236.506 124.832 236.352 125.204 236.077 125.478C235.803 125.752 235.431 125.906 235.043 125.906Z" fill="black"/>
<path opacity="0.1" d="M235.043 132.423H157.415C157.222 132.423 157.032 132.385 156.854 132.311C156.676 132.237 156.515 132.129 156.379 131.992C156.243 131.856 156.135 131.694 156.062 131.516C155.989 131.338 155.952 131.147 155.952 130.955C155.952 130.567 156.106 130.195 156.381 129.921C156.655 129.646 157.027 129.492 157.415 129.492H235.043C235.431 129.492 235.803 129.646 236.077 129.921C236.352 130.195 236.506 130.567 236.506 130.955C236.506 131.343 236.352 131.716 236.078 131.991C235.804 132.266 235.432 132.421 235.043 132.423Z" fill="black"/>
<path opacity="0.1" d="M190.563 138.933H157.415C157.027 138.933 156.655 138.779 156.381 138.505C156.106 138.231 155.952 137.859 155.952 137.471C155.952 137.083 156.106 136.711 156.381 136.437C156.655 136.163 157.027 136.009 157.415 136.009H190.563C190.951 136.009 191.323 136.163 191.597 136.437C191.872 136.711 192.026 137.083 192.026 137.471C192.026 137.859 191.872 138.231 191.597 138.505C191.323 138.779 190.951 138.933 190.563 138.933Z" fill="black"/>
<path d="M229.072 74.2705L228.966 74.1816C228.666 73.9536 228.494 74.0314 228.355 73.5922C228.255 73.2753 228.355 72.9194 228.238 72.5914C227.973 72.0267 227.67 71.4806 227.332 70.9568L225.964 68.4937C225.658 67.9483 225.149 67.5461 224.548 67.3752C223.947 67.2043 223.302 67.2786 222.756 67.5818L210.162 74.5986C210.112 75.0211 209.762 75.3102 209.69 75.7106C209.665 75.8288 209.671 75.9516 209.708 76.0666C209.745 76.1817 209.812 76.2851 209.901 76.3666C209.76 76.3638 209.623 76.315 209.512 76.2276C208.761 75.8106 208.561 75.477 207.788 75.8996C207.455 76.0775 207.127 76.2666 206.799 76.4556L203.463 78.3182L193.01 84.1395L180.778 90.9672L170.586 96.644C169.196 97.4168 167.512 98.0951 166.272 99.0792C166.616 99.2572 166.678 99.5296 166.372 99.7965L165.816 100.302C165.816 100.441 166.016 100.441 166.144 100.386L166.833 100.091C166.354 100.699 165.777 101.224 165.126 101.642C164.033 102.277 162.858 102.76 161.635 103.077L162.224 102.337C162.268 102.276 162.324 102.198 162.285 102.126C162.246 102.054 162.174 102.048 162.107 102.043C161.813 102.009 161.518 102.043 161.301 101.826C159.4 102.938 157.409 103.994 155.474 105.073C154.929 105.378 154.527 105.887 154.356 106.489C154.185 107.09 154.259 107.734 154.562 108.281L167.261 131.077C167.411 131.347 167.614 131.586 167.856 131.778C168.098 131.97 168.376 132.113 168.673 132.197C168.971 132.282 169.282 132.307 169.589 132.271C169.897 132.236 170.194 132.14 170.464 131.989L173.805 130.104C173.805 129.709 174.117 129.27 173.883 128.909C173.85 128.865 173.829 128.813 173.822 128.759C173.822 128.686 173.889 128.631 173.95 128.592C174.292 128.374 174.685 128.248 175.09 128.225C175.229 128.225 175.412 128.286 175.39 128.419C175.39 128.297 176.107 128.041 176.224 128.002C176.28 128.303 176.074 128.625 176.424 128.686C176.775 128.747 177.308 128.13 177.536 128.019L180.872 126.156L191.436 120.28L203.023 113.824L210.724 109.532C211.002 109.371 211.33 109.182 211.597 109.048C211.693 108.538 211.941 108.07 212.308 107.703C212.864 107.319 213.743 107.742 214.204 107.197C214.293 107.091 214.349 106.963 214.427 106.852C214.582 106.671 214.771 106.522 214.983 106.413C215.117 106.307 215.28 106.244 215.45 106.229C215.617 106.229 215.795 106.368 215.772 106.535C216.918 106.268 217.952 105.495 218.964 104.923C219.331 104.717 222.55 103.205 222.539 102.966C222.494 102.226 222.945 101.592 222.923 100.831C222.923 100.686 222.639 99.7186 222.767 99.6464C219.876 101.37 216.873 102.938 213.926 104.573C213.826 104.634 213.448 104.762 213.37 104.873C213.37 104.873 213.343 104.923 213.332 104.951L213.248 105.134V105.179C213.128 105.557 212.987 105.928 212.826 106.291C212.826 106.341 212.197 107.119 212.147 106.936C211.903 106.04 211.591 105.901 210.907 106.268L209.929 106.824L206.821 108.553L196.351 114.391L184.014 121.264L173.733 126.99L169.424 129.387C168.564 127.83 167.699 126.275 166.828 124.722L165.16 121.725C164.991 121.31 164.741 120.932 164.426 120.613C164.187 120.435 163.781 120.48 163.57 120.318C163.052 119.924 162.68 119.206 162.191 118.745C161.857 118.434 161.351 117.5 161.49 116.982C161.657 117.049 161.824 117.121 161.99 117.171C161.903 116.829 161.923 116.468 162.046 116.137C160.378 113.33 158.844 110.394 157.248 107.525L157.142 107.341L161.034 105.173L163.875 103.588C164.46 103.337 165.018 103.03 165.543 102.671C165.905 102.36 166.272 101.97 166.655 101.637C166.913 101.441 167.193 101.277 167.489 101.148L168.54 100.636C168.594 100.604 168.655 100.584 168.718 100.58C168.781 100.587 168.843 100.602 168.902 100.625C169.458 100.742 170.836 99.7131 171.337 99.4351L174.573 97.6336L184.336 92.1904L196.501 85.4183L208.678 78.6296L218.475 73.1752L223.479 70.3952L223.712 70.2673L229.122 79.9806C229.457 80.6354 229.993 81.1654 230.651 81.493C230.873 81.5652 231.124 81.7209 231.096 81.9489C231.068 82.1768 230.734 82.3659 230.812 82.5994C230.89 82.8329 231.318 82.744 231.418 82.9552C231.518 83.1665 231.246 83.5112 231.279 83.8004C231.394 84.1465 231.565 84.4714 231.785 84.7622L233.359 87.5923C234.237 89.1602 235.11 90.7337 235.994 92.3183L226.375 97.6781C226.423 97.7165 226.462 97.7637 226.492 97.8171L226.542 97.945C226.733 98.0127 226.919 98.0945 227.098 98.1896C227.175 98.2325 227.238 98.2956 227.281 98.3721C227.324 98.4486 227.346 98.5355 227.343 98.6233C227.341 98.7101 227.317 98.795 227.272 98.8692C227.227 98.9435 227.163 99.0045 227.087 99.0459L226.498 99.3795C226.477 99.5084 226.417 99.6279 226.327 99.7222C226.236 99.8166 226.12 99.8812 225.992 99.9077C225.923 99.9134 225.854 99.9134 225.786 99.9077C225.727 99.9506 225.66 99.9802 225.589 99.9946C225.518 100.009 225.445 100.008 225.374 99.9911C225.249 99.9523 225.143 99.8666 225.078 99.7516C225.014 99.6367 224.997 99.5014 225.03 99.3739C225.053 99.3167 225.083 99.2626 225.119 99.2127C225.077 99.1317 225.057 99.0406 225.063 98.9495C225.069 98.8583 225.1 98.7705 225.152 98.6956H224.974C224.874 98.6956 224.785 98.64 224.691 98.6122C224.191 98.921 223.801 99.3804 223.579 99.9244C223.554 99.954 223.542 99.9918 223.545 100.03C223.545 100.108 223.668 100.113 223.74 100.147C223.907 100.225 223.868 100.469 223.784 100.63C223.701 100.792 223.601 100.997 223.712 101.142C223.754 101.191 223.801 101.235 223.851 101.275C224.09 101.548 223.723 102.337 224.307 102.015C224.266 101.843 224.292 101.662 224.379 101.509C224.478 101.354 224.63 101.241 224.807 101.192C225.24 101.087 225.681 101.024 226.125 101.003L237.718 94.52C238.263 94.2146 238.665 93.7056 238.836 93.1043C239.007 92.503 238.933 91.8585 238.63 91.3119L238.563 91.1952L233.325 81.7932L230.301 76.3555C230.006 75.8384 229.745 75.2991 229.422 74.7876C229.333 74.5978 229.215 74.4233 229.072 74.2705Z" fill="#407BFF"/>
<path d="M175.507 104.99C175.123 104.523 175.24 104.511 175.168 104.011C175.168 104.011 175.168 104.011 175.168 103.978L175.123 103.928L175.057 103.85C174.795 103.967 174.534 104.094 174.273 104.239L169.152 107.091L171.215 110.789C170.925 110.277 171.949 110.427 171.987 110.422C172.096 110.39 172.208 110.371 172.321 110.366C172.432 110.39 172.53 110.455 172.593 110.55C172.807 110.923 172.871 111.365 172.771 111.784C172.71 112.34 173.005 112.896 172.688 113.452C172.96 113.897 175.424 118.378 175.435 118.372L180.555 115.52C180.85 115.353 181.551 115.059 181.723 114.764C181.895 114.469 181.623 114.008 181.929 113.869C182.044 113.827 182.167 113.811 182.289 113.822C182.412 113.834 182.53 113.873 182.635 113.936C183.61 112.97 184.237 111.708 184.417 110.347C184.597 108.987 184.32 107.605 183.63 106.418C182.19 103.833 178.921 102.293 176.057 103.494C175.857 103.577 176.124 104.472 175.646 104.573C175.737 104.393 175.869 104.237 176.03 104.117M179.221 113.424L176.836 114.753C176.641 114.403 176.452 114.052 176.252 113.713C176.502 114.136 175.813 114.002 175.668 113.908C175.318 113.674 175.223 113.002 175.212 112.623C175.204 111.975 175.011 111.343 174.656 110.8C174.097 109.788 173.541 108.776 172.988 107.764L175.373 106.435C177.597 105.19 179.821 105.707 181.022 107.864C182.223 110.021 181.462 112.195 179.221 113.424Z" fill="#407BFF"/>
<path d="M192.437 95.5209C192.559 95.785 192.594 96.0808 192.537 96.366C192.509 96.5217 192.259 96.922 192.293 97.0221C192.382 97.2445 192.47 97.4669 192.554 97.6893C192.569 97.7257 192.589 97.7594 192.615 97.7894C192.658 97.8181 192.708 97.8336 192.76 97.8338C193.644 97.9117 193.605 98.0006 193.66 98.7457C193.71 99.3851 194.261 99.752 194.572 100.308C194.99 101.039 195.172 101.881 195.092 102.719C195.013 103.557 194.675 104.349 194.127 104.988C193.579 105.626 192.846 106.079 192.03 106.285C191.213 106.49 190.353 106.438 189.568 106.135C189.547 106.155 189.525 106.174 189.501 106.191C189.385 106.249 189.251 106.265 189.123 106.235C188.834 106.153 188.573 105.995 188.366 105.776C188.16 105.558 188.016 105.288 187.95 104.995C187.942 104.951 187.942 104.906 187.95 104.862C187.793 104.667 187.653 104.459 187.533 104.239C187.247 103.78 187.06 103.266 186.982 102.731C186.903 102.195 186.937 101.65 187.079 101.128C187.222 100.606 187.47 100.119 187.81 99.6976C188.149 99.2763 188.572 98.9295 189.051 98.679C189.746 98.2824 190.543 98.1005 191.342 98.1563L191.297 98.0896C190.819 97.4558 192.543 97.2 191.764 96.7719C191.436 96.594 191.492 95.7878 191.409 95.4597C190.145 95.4882 188.909 95.8302 187.811 96.455C184.253 98.4399 183.024 102.371 184.892 105.723C185.678 107.166 186.978 108.26 188.534 108.787C188.9 108.946 189.292 109.037 189.69 109.054C190.146 109.015 189.924 109.054 190.119 108.781C190.313 108.509 190.196 108.392 190.491 108.103C190.786 107.814 191.13 107.642 191.192 107.197C191.192 107.397 191.414 107.542 191.414 107.753C191.414 107.814 191.414 107.875 191.414 107.931C191.426 108.003 191.459 108.071 191.509 108.125C191.698 108.381 192.015 108.681 192.02 108.976C192.834 108.841 193.614 108.554 194.322 108.131C197.864 106.157 199.12 102.232 197.241 98.868C196.268 97.15 194.439 95.6321 192.437 95.5209Z" fill="#407BFF"/>
<path d="M203.807 87.7813L207.621 94.6257L198.203 90.9005L196.045 92.107C197.502 94.7202 199.048 97.3056 200.416 99.9688C200.51 99.6797 200.732 99.6241 200.999 99.5852C201.5 99.5185 201.483 99.7687 201.756 100.264C201.789 100.325 201.828 100.386 201.889 100.397C201.95 100.408 202.072 100.308 202.173 100.319C202.273 100.33 202.312 100.453 202.284 100.547C202.249 100.64 202.202 100.727 202.145 100.808C201.983 101.114 202.25 101.309 202.217 101.587C202.217 101.731 201.733 102.321 201.789 102.421L202.345 103.377L204.925 101.943L204.235 100.708H204.107C203.357 100.808 203.69 99.8243 203.524 99.4184C203.254 98.8434 202.947 98.2863 202.606 97.7504L201.088 95.076L208.744 98.0895C208.725 97.8696 208.751 97.648 208.822 97.439C208.883 97.3223 209.378 97.1054 209.378 96.9942C209.407 97.3528 209.574 97.686 209.845 97.9227C210.14 98.1841 210.14 98.1452 210.084 98.6066L210.54 98.7901L212.686 97.5947L206.404 86.3246L203.807 87.7813Z" fill="#407BFF"/>
<path d="M216.768 92.5907L215.311 89.9831L220.549 87.0641L219.437 85.0347L214.205 87.9537L212.842 85.5017L216.379 83.5335C216.528 83.3409 216.718 83.1834 216.935 83.072C217.044 83.0156 217.171 83.0017 217.29 83.0331L218.786 82.2046C218.786 82.2046 217.724 80.3087 217.624 80.1085C217.112 80.342 217.624 80.987 217.107 81.2984C217.213 81.4096 217.368 81.8043 217.107 81.8544C216.957 81.8544 216.846 81.6653 216.695 81.682C216.545 81.6987 216.54 81.771 216.462 81.7487C216.438 81.7421 216.417 81.7301 216.398 81.7137C216.38 81.6973 216.366 81.677 216.356 81.6542C216.284 81.4865 216.193 81.3279 216.084 81.1816C215.734 80.8424 212.537 82.9719 212.092 83.2221L209.117 84.8901L215.394 96.1602L217.902 94.7647L217.952 94.698C218.136 94.4644 218.313 94.2254 218.508 94.0085C218.587 93.9334 218.688 93.8858 218.796 93.8728C218.904 93.8598 219.014 93.882 219.109 93.9362C219.153 93.9596 219.193 93.9918 219.225 94.0308L224.124 91.3008L222.956 89.2047L216.768 92.5907Z" fill="#407BFF"/>
<path d="M223.456 212.509C223.456 212.509 219.798 204.536 223.973 196.668C228.149 188.801 229.367 186.949 226.703 185.343C224.04 183.736 222.811 191.631 222.811 191.631C222.811 191.631 220.587 186.193 222.417 180.511C224.246 174.829 225.436 165.555 222.906 164.559C220.376 163.564 222.422 176.119 220.226 180.4C219.106 177.395 218.383 174.257 218.074 171.065C217.774 166.494 218.247 159.199 216.245 157.326C214.243 155.452 212.97 156.77 214.933 166.833C216.113 172.861 216.766 178.98 216.884 185.12C216.884 185.12 212.542 171.887 209.656 171.504C206.771 171.12 206.749 175.396 209.245 179.115C211.741 182.835 216.523 189.485 217.307 192.932C217.307 192.932 212.548 182.98 208.261 186.026C203.974 189.073 211.992 195.095 215.561 197.269C219.131 199.443 221.616 213.059 221.616 213.059L223.456 212.509Z" fill="#407BFF"/>
<path opacity="0.2" d="M223.456 212.509C223.456 212.509 219.798 204.536 223.973 196.668C228.149 188.801 229.367 186.949 226.703 185.343C224.04 183.736 222.811 191.631 222.811 191.631C222.811 191.631 220.587 186.193 222.417 180.511C224.246 174.829 225.436 165.555 222.906 164.559C220.376 163.564 222.422 176.119 220.226 180.4C219.106 177.395 218.383 174.257 218.074 171.065C217.774 166.494 218.247 159.199 216.245 157.326C214.243 155.452 212.97 156.77 214.933 166.833C216.113 172.861 216.766 178.98 216.884 185.12C216.884 185.12 212.542 171.887 209.656 171.504C206.771 171.12 206.749 175.396 209.245 179.115C211.741 182.835 216.523 189.485 217.307 192.932C217.307 192.932 212.548 182.98 208.261 186.026C203.974 189.073 211.992 195.095 215.561 197.269C219.131 199.443 221.616 213.059 221.616 213.059L223.456 212.509Z" fill="black"/>
<path d="M220.565 215.784C220.565 215.784 224.129 207.749 219.859 199.949C215.589 192.148 214.349 190.313 216.996 188.662C219.642 187.011 220.954 194.895 220.954 194.895C220.954 194.895 223.134 189.429 221.216 183.775C219.298 178.12 218.019 168.863 220.537 167.834C223.056 166.806 221.16 179.388 223.406 183.63C224.491 180.611 225.175 177.464 225.441 174.267C225.692 169.691 225.13 162.402 227.109 160.501C229.089 158.599 230.384 159.878 228.538 169.991C227.432 176.033 226.853 182.159 226.809 188.301C226.809 188.301 230.99 175.007 233.898 174.578C236.806 174.15 236.85 178.432 234.404 182.185C231.958 185.938 227.232 192.665 226.481 196.085C226.481 196.085 231.124 186.077 235.444 189.051C239.764 192.026 231.824 198.17 228.282 200.394C224.741 202.618 222.4 216.284 222.4 216.284L220.565 215.784Z" fill="#407BFF"/>
<path d="M236.99 210.057H207.577L209.957 231.107H234.61L236.99 210.057Z" fill="#263238"/>
<path d="M86.5304 77.701H67.1204C66.3728 77.701 65.6558 77.998 65.1272 78.5267C64.5985 79.0553 64.3015 79.7723 64.3015 80.52V99.3906C64.3015 100.138 64.5985 100.855 65.1272 101.384C65.6558 101.913 66.3728 102.21 67.1204 102.21H73.331L69.1498 107.892L76.3778 102.21H86.5248C87.2725 102.21 87.9895 101.913 88.5181 101.384C89.0468 100.855 89.3438 100.138 89.3438 99.3906V80.52C89.3438 79.7733 89.0475 79.0571 88.5201 78.5287C87.9926 78.0002 87.2771 77.7025 86.5304 77.701Z" fill="#407BFF"/>
<path opacity="0.6" d="M86.5304 77.701H67.1204C66.3728 77.701 65.6558 77.998 65.1272 78.5267C64.5985 79.0553 64.3015 79.7723 64.3015 80.52V99.3906C64.3015 100.138 64.5985 100.855 65.1272 101.384C65.6558 101.913 66.3728 102.21 67.1204 102.21H73.331L69.1498 107.892L76.3778 102.21H86.5248C87.2725 102.21 87.9895 101.913 88.5181 101.384C89.0468 100.855 89.3438 100.138 89.3438 99.3906V80.52C89.3438 79.7733 89.0475 79.0571 88.5201 78.5287C87.9926 78.0002 87.2771 77.7025 86.5304 77.701Z" fill="white"/>
<path d="M76.8282 98.7679C81.6953 98.7679 85.6408 94.8224 85.6408 89.9553C85.6408 85.0882 81.6953 81.1427 76.8282 81.1427C71.9612 81.1427 68.0156 85.0882 68.0156 89.9553C68.0156 94.8224 71.9612 98.7679 76.8282 98.7679Z" fill="#407BFF"/>
<path opacity="0.2" d="M84.1793 91.6853C85.1379 87.6238 82.6225 83.5542 78.561 82.5956C74.4995 81.637 70.4299 84.1524 69.4713 88.2139C68.5127 92.2754 71.0281 96.345 75.0896 97.3036C79.1511 98.2622 83.2207 95.7468 84.1793 91.6853Z" fill="black"/>
<path d="M75.8886 93.5638C75.7862 93.566 75.6844 93.548 75.589 93.5108C75.4935 93.4736 75.4064 93.4179 75.3326 93.3469L72.1244 90.2055C71.977 90.0625 71.8924 89.8667 71.8893 89.6613C71.8861 89.4559 71.9647 89.2577 72.1078 89.1102C72.2508 88.9628 72.4466 88.8782 72.652 88.875C72.8574 88.8719 73.0556 88.9505 73.2031 89.0935L75.833 91.6678L80.381 86.5915C80.5205 86.451 80.7086 86.3693 80.9065 86.3634C81.1044 86.3574 81.297 86.4277 81.4447 86.5596C81.5923 86.6916 81.6836 86.8751 81.6999 87.0725C81.7161 87.2698 81.656 87.4658 81.532 87.6201L76.4446 93.2969C76.3744 93.3754 76.2888 93.4386 76.1932 93.4826C76.0975 93.5266 75.9938 93.5505 75.8886 93.5527V93.5638Z" fill="white"/>
<path d="M51.6525 218.464L67.6708 216.885V198.82H74.0204V216.879L90.1054 218.464C90.8762 218.538 91.5915 218.897 92.1117 219.471C92.6319 220.045 92.9196 220.792 92.9188 221.566V223.974H48.8391V221.566C48.8383 220.792 49.126 220.045 49.6462 219.471C50.1664 218.897 50.8817 218.538 51.6525 218.464Z" fill="#263238"/>
<path opacity="0.1" d="M51.6525 218.464L67.6708 216.885V198.82H74.0204V216.879L90.1054 218.464C90.8762 218.538 91.5915 218.897 92.1117 219.471C92.6319 220.045 92.9196 220.792 92.9188 221.566V223.974H48.8391V221.566C48.8383 220.792 49.126 220.045 49.6462 219.471C50.1664 218.897 50.8817 218.538 51.6525 218.464Z" fill="white"/>
<path d="M91.2229 231.107C93.5167 231.107 95.3762 229.247 95.3762 226.954C95.3762 224.66 93.5167 222.8 91.2229 222.8C88.9291 222.8 87.0696 224.66 87.0696 226.954C87.0696 229.247 88.9291 231.107 91.2229 231.107Z" fill="#263238"/>
<path d="M50.5349 231.107C52.8287 231.107 54.6882 229.247 54.6882 226.954C54.6882 224.66 52.8287 222.8 50.5349 222.8C48.2411 222.8 46.3816 224.66 46.3816 226.954C46.3816 229.247 48.2411 231.107 50.5349 231.107Z" fill="#263238"/>
<path d="M72.8138 203.657H68.8551C68.2461 203.657 67.662 203.415 67.2314 202.985C66.8008 202.554 66.5588 201.97 66.5588 201.361V183.602H75.1101V201.361C75.1101 201.97 74.8682 202.554 74.4375 202.985C74.0069 203.415 73.4228 203.657 72.8138 203.657Z" fill="#263238"/>
<path opacity="0.2" d="M72.8138 203.657H68.8551C68.2461 203.657 67.662 203.415 67.2314 202.985C66.8008 202.554 66.5588 201.97 66.5588 201.361V183.602H75.1101V201.361C75.1101 201.97 74.8682 202.554 74.4375 202.985C74.0069 203.415 73.4228 203.657 72.8138 203.657Z" fill="white"/>
<path d="M48.6723 148.797C48.6723 148.797 53.4317 178.476 62.8281 183.608H53.276C53.276 183.608 43.824 173.489 40.9773 148.797H48.6723Z" fill="#263238"/>
<path opacity="0.1" d="M48.6723 148.797C48.6723 148.797 53.4317 178.476 62.8281 183.608H53.276C53.276 183.608 43.824 173.489 40.9773 148.797H48.6723Z" fill="white"/>
<path d="M52.82 179.41H90.0276C90.7649 179.41 91.472 179.703 91.9933 180.224C92.5147 180.746 92.8076 181.453 92.8076 182.19V185.91H50.04V182.19C50.04 181.453 50.3329 180.746 50.8543 180.224C51.3756 179.703 52.0827 179.41 52.82 179.41Z" fill="#407BFF"/>
<path d="M93.4524 182.657H49.3561C48.7389 182.657 48.2385 183.157 48.2385 183.775V184.787C48.2385 185.404 48.7389 185.904 49.3561 185.904H93.4524C94.0697 185.904 94.57 185.404 94.57 184.787V183.775C94.57 183.157 94.0697 182.657 93.4524 182.657Z" fill="#263238"/>
<path opacity="0.6" d="M93.4524 182.657H49.3561C48.7389 182.657 48.2385 183.157 48.2385 183.775V184.787C48.2385 185.404 48.7389 185.904 49.3561 185.904H93.4524C94.0697 185.904 94.57 185.404 94.57 184.787V183.775C94.57 183.157 94.0697 182.657 93.4524 182.657Z" fill="white"/>
<path d="M39.8486 154.835H55.133C59.6144 154.835 62.5223 151.243 61.6327 146.812L60.4428 140.896C59.5532 136.448 55.1997 132.878 50.7239 132.878H35.4395C30.9581 132.878 28.0503 136.47 28.9399 140.896L30.1297 146.812C31.0193 151.232 35.3672 154.835 39.8486 154.835Z" fill="#407BFF"/>
<path d="M120.952 204.547L117.45 205.92L114.931 201.172L112.64 196.852L116.521 194.528L118.867 199.826L120.952 204.547Z" fill="#E4897B"/>
<path opacity="0.2" d="M118.867 199.826L114.931 201.172L112.64 196.852L116.521 194.528L118.867 199.826Z" fill="black"/>
<path d="M118.139 197.235L113.374 199.793C113.374 199.793 95.3652 168.129 92.5963 168.396C89.8274 168.663 63.5564 185.398 55.5445 179.216C47.5325 173.033 55.3276 154.418 55.3276 154.418C55.3276 154.418 71.902 149.681 73.6756 153.306C74.1431 154.391 74.5405 155.506 74.8655 156.642C75.2158 157.782 75.4826 158.744 75.4826 158.744C75.9886 158.538 92.3572 151.827 99.6631 155.408C107.119 159.088 118.139 197.235 118.139 197.235Z" fill="#263238"/>
<path opacity="0.3" d="M118.139 197.235L113.374 199.793C113.374 199.793 95.3652 168.129 92.5963 168.396C89.8274 168.663 63.5564 185.398 55.5445 179.216C47.5325 173.033 55.3276 154.418 55.3276 154.418C55.3276 154.418 71.902 149.681 73.6756 153.306C74.1431 154.391 74.5405 155.506 74.8655 156.642C75.2158 157.782 75.4826 158.744 75.4826 158.744C75.9886 158.538 92.3572 151.827 99.6631 155.408C107.119 159.088 118.139 197.235 118.139 197.235Z" fill="white"/>
<path d="M92.2517 223.056L88.5154 222.628L88.4931 217.357L88.4875 212.52L93.0078 212.309L92.6075 217.996L92.2517 223.056Z" fill="#E4897B"/>
<path opacity="0.2" d="M92.5963 218.113L88.4819 217.457V212.57L93.0022 212.331L92.5963 218.113Z" fill="black"/>
<path d="M111.044 198.22L118.017 194.728L118.745 197.686L113.463 200.41L111.044 198.22Z" fill="#407BFF"/>
<path d="M67.9209 179.266C67.9209 179.266 69.0663 179.138 86.6859 175.874C86.6859 175.874 87.0862 198.403 87.9202 215.2L93.3468 215.372C93.3468 215.372 101.131 178.12 100.213 172.471C99.296 166.822 92.6017 166.083 92.6017 166.083C92.6017 166.083 80.9758 175.14 67.9209 179.266Z" fill="#263238"/>
<path opacity="0.4" d="M67.9209 179.266C67.9209 179.266 69.0663 179.138 86.6859 175.874C86.6859 175.874 87.0862 198.403 87.9202 215.2L93.3468 215.372C93.3468 215.372 101.131 178.12 100.213 172.471C99.296 166.822 92.6017 166.083 92.6017 166.083C92.6017 166.083 80.9758 175.14 67.9209 179.266Z" fill="white"/>
<path opacity="0.3" d="M67.9209 179.266C67.9209 179.266 69.0663 179.138 86.6859 175.874C86.6859 175.874 87.0862 198.403 87.9202 215.2L93.3468 215.372C93.3468 215.372 101.131 178.12 100.213 172.471C99.296 166.822 92.6017 166.083 92.6017 166.083C92.6017 166.083 80.9758 175.14 67.9209 179.266Z" fill="black"/>
<path d="M86.925 213.699L94.3254 213.526L93.3135 216.573L87.3087 216.629L86.925 213.699Z" fill="#407BFF"/>
<path opacity="0.3" d="M75.505 158.755L65.9028 162.174C65.9028 162.174 70.9513 158.404 74.8878 156.653C75.2381 157.793 75.505 158.755 75.505 158.755Z" fill="black"/>
<path d="M54.2156 153.273L54.5714 155.936L72.5691 152.116L72.1521 148.969L54.2156 153.273Z" fill="#263238"/>
<path opacity="0.2" d="M54.2156 153.273L54.5714 155.936L72.5691 152.116L72.1521 148.969L54.2156 153.273Z" fill="black"/>
<path d="M60.1788 151.338L59.2822 151.504L60.1291 156.069L61.0256 155.902L60.1788 151.338Z" fill="#263238"/>
<path d="M68.0268 150.182L64.0999 151.067L64.7709 154.045L68.6979 153.16L68.0268 150.182Z" fill="white"/>
<path d="M70.5518 148.323L69.6582 148.487L70.4939 153.037L71.3875 152.872L70.5518 148.323Z" fill="#263238"/>
<path opacity="0.3" d="M60.1788 151.338L59.2822 151.504L60.1291 156.069L61.0256 155.902L60.1788 151.338Z" fill="white"/>
<path opacity="0.3" d="M70.5518 148.323L69.6582 148.487L70.4939 153.037L71.3875 152.872L70.5518 148.323Z" fill="white"/>
<path d="M127.914 210.763C127.329 210.584 126.716 210.514 126.107 210.557C126.107 210.557 123.844 209.612 121.103 205.114L118.767 205.42C118.374 205.479 118.009 205.657 117.721 205.931C117.432 206.204 117.235 206.56 117.155 206.949C117.138 207.059 117.138 207.172 117.155 207.282C117.255 207.847 117.393 208.404 117.566 208.95C118.165 210.758 118.873 212.527 119.685 214.249L120.063 214.093L118.856 210.724C118.456 209.573 119.852 210.546 120.591 211.658C121.33 212.77 122.381 213.849 124.878 212.904C127.78 211.769 128.931 211.169 127.914 210.763Z" fill="#263238"/>
<path d="M120.519 203.919C120.519 203.919 124.266 209.612 126.106 210.557C126.106 210.557 124.044 212.225 121.291 209.545C117.739 206.104 117.144 207.282 117.144 207.282C117.112 206.608 117.144 205.932 117.238 205.264C117.522 203.957 120.519 203.919 120.519 203.919Z" fill="#E4897B"/>
<path d="M97.8562 229.684C97.3236 229.377 96.7395 229.169 96.1325 229.072C96.1325 229.072 94.1588 227.621 92.5742 222.606L90.2334 222.35C89.8362 222.312 89.4371 222.399 89.0915 222.598C88.7458 222.798 88.4707 223.099 88.3041 223.462C88.2542 223.562 88.2204 223.669 88.204 223.779C88.1651 224.347 88.1651 224.918 88.204 225.486C88.3548 227.383 88.6222 229.27 89.0046 231.135L89.4105 231.074L89.0491 227.504C88.9324 226.292 90.061 227.571 90.517 228.827C90.9729 230.084 91.7346 231.379 94.3812 231.051C97.4725 230.634 98.7291 230.323 97.8562 229.684Z" fill="#263238"/>
<path d="M92.2961 221.288C92.2961 221.288 94.5868 227.71 96.1492 229.072C96.1492 229.072 93.7528 230.184 91.7012 226.948C89.0602 222.761 88.2095 223.768 88.2095 223.768C88.3338 223.107 88.52 222.459 88.7655 221.833C89.3548 220.61 92.2961 221.288 92.2961 221.288Z" fill="#E4897B"/>
<path d="M50.2958 107.864L45.592 108.809C45.4083 108.964 45.1912 109.074 44.9578 109.131C44.7243 109.188 44.4809 109.19 44.2465 109.137C42.8454 108.581 40.8271 106.952 40.5714 106.357C40.1933 105.518 40.5714 103.055 41.561 102.61C42.5507 102.165 45.959 106.279 45.959 106.279L51.013 105.14L50.2958 107.864Z" fill="#E4897B"/>
<path d="M65.1299 123.499C65.1299 123.499 64.7017 108.259 62.9392 107.608C61.1767 106.958 47.9272 108.776 47.9272 108.776L47.6047 105.295C47.6047 105.295 63.0226 102.921 66.0083 104.328C68.9941 105.735 69.9782 128.447 69.4333 132.823L65.1299 123.499Z" fill="#407BFF"/>
<path opacity="0.6" d="M65.1299 123.499C65.1299 123.499 64.7017 108.259 62.9392 107.608C61.1767 106.958 47.9272 108.776 47.9272 108.776L47.6047 105.295C47.6047 105.295 63.0226 102.921 66.0083 104.328C68.9941 105.735 69.9782 128.447 69.4333 132.823L65.1299 123.499Z" fill="white"/>
<path d="M48.1551 109.109L47.2322 105.284L48.5555 104.806L49.395 109.226L48.1551 109.109Z" fill="#407BFF"/>
<path opacity="0.7" d="M48.1551 109.109L47.2322 105.284L48.5555 104.806L49.395 109.226L48.1551 109.109Z" fill="white"/>
<path d="M65.0519 121.597C65.0519 121.597 63.8677 126.234 58.1631 127.713C52.4585 129.192 46.1479 125.328 46.1479 125.328L47.4045 136.392L54.3879 153.823L72.2355 149.169C72.2355 149.169 71.1679 128.892 65.0519 121.597Z" fill="#407BFF"/>
<path opacity="0.7" d="M65.0519 121.597C65.0519 121.597 63.8677 126.234 58.1631 127.713C52.4585 129.192 46.1479 125.328 46.1479 125.328L47.4045 136.392L54.3879 153.823L72.2355 149.169C72.2355 149.169 71.1679 128.892 65.0519 121.597Z" fill="white"/>
<path opacity="0.6" d="M68.1538 139.984L70.243 139.325C70.4743 139.252 70.6027 139.005 70.5297 138.774L69.2851 134.829C69.2121 134.597 68.9654 134.469 68.7341 134.542L66.6449 135.201C66.4136 135.274 66.2852 135.521 66.3582 135.752L67.6028 139.697C67.6758 139.929 67.9225 140.057 68.1538 139.984Z" fill="#407BFF"/>
<path opacity="0.2" d="M67.7283 138.781L70.1038 138.032L69.0783 134.782L66.7028 135.531L67.7283 138.781Z" fill="black"/>
<path d="M67.649 133.606L67.124 133.772L67.7279 135.686L68.2529 135.521L67.649 133.606Z" fill="#263238"/>
<path d="M52.92 104.278C48.5221 104.278 45.6198 108.937 46.6484 116.326C47.677 123.716 51.7969 125.845 51.7969 125.845L51.5356 124.06C56.1093 125.098 60.8248 125.361 65.4856 124.839C65.4856 124.839 63.3617 118.812 64.0512 112.657C64.0512 112.657 65.4467 104.267 52.92 104.278Z" fill="#263238"/>
<path opacity="0.2" d="M61.655 126.212L63.4509 132.884L60.2928 130.477C60.2928 130.477 63.3675 137.504 64.1848 141.597C64.1848 141.597 61.5271 134.63 59.2364 130.81L57.8964 134.635L52.5088 129.148C52.5088 129.148 57.2681 125.5 61.655 126.212Z" fill="black"/>
<path d="M59.0305 128.364L53.5484 128.531C55.9781 125.423 51.5857 120.007 51.5857 120.007L57.0011 121.18C58.2911 126.54 60.5206 126.701 60.5206 126.701L59.0305 128.364Z" fill="#E4897B"/>
<path opacity="0.2" d="M58.5135 125.028C56.4216 124.853 54.476 123.884 53.0758 122.32C52.6432 121.517 52.1448 120.75 51.5857 120.029L57.0011 121.208C57.2879 122.557 57.7991 123.848 58.5135 125.028Z" fill="black"/>
<path d="M56.9955 106.541C61.716 106.935 63.0281 109.588 62.967 114.486C62.8947 120.602 61.1822 124.811 55.3887 123.021C47.5157 120.591 49.1504 105.885 56.9955 106.541Z" fill="#E4897B"/>
<path d="M59.937 113.98C60.2566 114.717 60.6635 115.414 61.1491 116.054C60.9936 116.236 60.7912 116.372 60.5638 116.448C60.3364 116.523 60.0927 116.535 59.8591 116.482L59.937 113.98Z" fill="#DE5753"/>
<path d="M56.7397 113.191L57.7628 112.857C57.7628 112.857 57.2179 113.669 56.7397 113.191Z" fill="#263238"/>
<path d="M57.0956 113.074C56.9054 112.98 56.6877 112.959 56.4831 113.014C56.2785 113.07 56.101 113.197 55.9836 113.374C56.1582 113.294 56.3478 113.253 56.5396 113.253C56.7315 113.253 56.9211 113.294 57.0956 113.374V113.074Z" fill="#263238"/>
<path d="M55.1942 110.822C55.1416 110.821 55.0917 110.799 55.0552 110.761C55.0358 110.743 55.0204 110.721 55.0099 110.696C54.9993 110.672 54.9939 110.646 54.9939 110.619C54.9939 110.592 54.9993 110.566 55.0099 110.542C55.0204 110.517 55.0358 110.495 55.0552 110.477C55.3652 110.206 55.7341 110.011 56.1326 109.906C56.5311 109.802 56.9484 109.792 57.3515 109.877C57.4038 109.888 57.4496 109.919 57.4788 109.964C57.508 110.009 57.5182 110.063 57.5072 110.116C57.4961 110.168 57.4647 110.214 57.4199 110.243C57.375 110.272 57.3204 110.283 57.2681 110.272C56.9317 110.203 56.5841 110.211 56.2511 110.294C55.9181 110.378 55.6082 110.536 55.3443 110.755C55.3257 110.777 55.3026 110.794 55.2766 110.805C55.2507 110.817 55.2226 110.822 55.1942 110.822Z" fill="#263238"/>
<path d="M62.6002 110.905C62.5561 110.907 62.5129 110.893 62.4779 110.866C62.2554 110.662 61.9902 110.511 61.7017 110.422C61.4131 110.334 61.1084 110.311 60.8099 110.355C60.7843 110.362 60.7577 110.364 60.7314 110.36C60.7051 110.357 60.6798 110.348 60.6568 110.335C60.6338 110.322 60.6137 110.304 60.5975 110.284C60.5813 110.263 60.5694 110.239 60.5625 110.213C60.5555 110.188 60.5537 110.161 60.5571 110.135C60.5604 110.108 60.5689 110.083 60.5821 110.06C60.5953 110.037 60.6128 110.017 60.6338 110.001C60.6547 109.984 60.6787 109.973 60.7042 109.966C61.0646 109.902 61.4348 109.921 61.7865 110.023C62.1383 110.124 62.4622 110.304 62.7336 110.549C62.7748 110.583 62.8013 110.632 62.8075 110.685C62.8137 110.737 62.7992 110.791 62.767 110.833C62.7469 110.857 62.7213 110.877 62.6923 110.889C62.6633 110.902 62.6317 110.907 62.6002 110.905Z" fill="#263238"/>
<path d="M51.1521 114.069C51.1521 114.069 53.6819 110.377 53.5985 107.352C53.5985 107.352 63.2784 104.306 62.9504 113.847C62.9504 113.847 64.5628 105.507 56.4619 104.623C48.3609 103.738 47.4213 115.648 51.3189 119.54C51.3189 119.54 49.6008 116.382 51.1521 114.069Z" fill="#263238"/>
<path d="M51.8582 115.131C51.8582 114.58 51.6399 114.052 51.2511 113.663C50.8623 113.273 50.3348 113.053 49.7843 113.052C48.3053 113.09 47.3601 116.037 50.9408 117.066C51.4523 117.21 51.7915 116.727 51.8582 115.131Z" fill="#E4897B"/>
<path d="M59.898 117.872C59.5518 118.337 59.2414 118.828 58.9695 119.34C58.875 119.307 58.7749 119.279 58.6804 119.24C57.3738 118.778 56.9179 118.128 56.8122 117.572C56.7624 117.289 56.7835 116.999 56.8734 116.727C56.9197 116.57 56.987 116.42 57.0735 116.282C57.7529 116.928 58.565 117.417 59.4532 117.716C59.7201 117.816 59.898 117.872 59.898 117.872Z" fill="#263238"/>
<path d="M59.4531 117.705L59.1696 118.133C57.9352 117.694 57.1291 117.222 56.8733 116.716C56.9196 116.559 56.9869 116.409 57.0735 116.271C57.7528 116.916 58.565 117.406 59.4531 117.705Z" fill="white"/>
<path d="M58.6804 119.24C57.3738 118.778 56.9179 118.128 56.8123 117.572C57.3065 117.754 57.7642 118.023 58.1633 118.367C58.4222 118.597 58.6029 118.902 58.6804 119.24Z" fill="#DE5753"/>
<path d="M56.8676 106.891C56.8676 106.891 54.3156 114.503 49.4339 113.98C44.5522 113.457 52.92 104.261 52.92 104.261C52.92 104.261 61.1544 101.909 64.7406 106.485C68.3268 111.061 62.9669 113.835 62.9669 113.835C62.9669 113.835 63.7676 107.864 56.8676 106.891Z" fill="#263238"/>
<path d="M52.9757 113.368C52.9475 113.367 52.9201 113.358 52.8966 113.342C52.8731 113.327 52.8543 113.305 52.8422 113.28C52.8295 113.244 52.8311 113.205 52.8467 113.171C52.8623 113.137 52.8906 113.11 52.9256 113.096C56.8176 111.612 56.7287 106.391 56.7287 106.335C56.7271 106.317 56.7294 106.299 56.7354 106.281C56.7415 106.264 56.7512 106.248 56.7638 106.235C56.7765 106.222 56.7918 106.212 56.8087 106.205C56.8257 106.198 56.8439 106.195 56.8621 106.196C56.8982 106.197 56.9328 106.211 56.9593 106.236C56.9859 106.26 57.0027 106.294 57.0067 106.33C57.0067 106.385 57.0956 111.801 53.0257 113.357L52.9757 113.368Z" fill="#263238"/>
<path d="M61.5325 113.652L62.5555 113.324C62.5555 113.324 62.0051 114.13 61.5325 113.652Z" fill="#263238"/>
<path d="M61.8884 113.535C61.6978 113.441 61.4792 113.42 61.2742 113.476C61.0692 113.533 60.892 113.663 60.7764 113.841C60.9483 113.755 61.1367 113.708 61.3287 113.702C61.5207 113.697 61.7116 113.732 61.8884 113.808V113.535Z" fill="#263238"/>
<path d="M54.3213 126.284L58.4524 128.386L58.3857 132.573L52.481 129.131L54.3213 126.284Z" fill="#407BFF"/>
<path d="M59.0806 125.495L59.3252 128.036L62.0218 130.888L61.6548 126.195L59.0806 125.495Z" fill="#407BFF"/>
<path d="M39.9931 96.744L38.2695 92.296C38.301 92.0582 38.2767 91.8164 38.1985 91.5896C38.1204 91.3628 37.9905 91.1573 37.8192 90.9894C36.6182 90.0943 34.1385 89.2825 33.5157 89.377C32.6095 89.5105 30.7357 91.1507 30.897 92.2237C31.0582 93.2968 36.3513 93.9585 36.3513 93.9585L38.1083 98.8346L39.9931 96.744Z" fill="#E4897B"/>
<path d="M47.4156 136.392C47.4156 136.392 50.7516 133.74 49.4228 127.88L45.8366 111.667L39.6761 94.9203L36.6626 96.4437C36.6626 96.4437 41.7222 112.807 42.1892 113.913C42.4283 114.469 43.3791 122.959 44.6746 128.647C45.8644 133.885 47.4156 136.392 47.4156 136.392Z" fill="#407BFF"/>
<path opacity="0.6" d="M47.4156 136.392C47.4156 136.392 50.7516 133.74 49.4228 127.88L45.8366 111.667L39.6761 94.9203L36.6626 96.4437C36.6626 96.4437 41.7222 112.807 42.1892 113.913C42.4283 114.469 43.3791 122.959 44.6746 128.647C45.8644 133.885 47.4156 136.392 47.4156 136.392Z" fill="white"/>
<path d="M36.1345 95.9657L39.654 94.2031L40.4213 95.3763L36.3069 97.2L36.1345 95.9657Z" fill="#407BFF"/>
<path opacity="0.7" d="M36.1345 95.9657L39.654 94.2031L40.4213 95.3763L36.3069 97.2L36.1345 95.9657Z" fill="white"/>
<path opacity="0.6" d="M54.3213 126.284L58.4524 128.386L58.3857 132.573L52.481 129.131L54.3213 126.284Z" fill="white"/>
<path opacity="0.6" d="M59.0806 125.495L59.3252 128.036L62.0218 130.888L61.6548 126.195L59.0806 125.495Z" fill="white"/>
<path d="M176.397 117.544H159.739V130.488H176.397V117.544Z" fill="white"/>
<path opacity="0.1" d="M176.397 117.544H172.126V130.488H176.397V117.544Z" fill="black"/>
<path d="M158.782 141.919H177.614V118.428H171.548L158.782 124.539V141.919Z" fill="#407BFF"/>
<path opacity="0.2" d="M177.614 118.428H171.548V141.919H177.614V118.428Z" fill="black"/>
<path opacity="0.7" d="M169.541 129.17H160.723V133.396H169.541V129.17Z" fill="white"/>
<path opacity="0.7" d="M169.541 134.808H160.723V135.414H169.541V134.808Z" fill="white"/>
<path opacity="0.7" d="M177.025 136.581H172.126V140.168H177.025V136.581Z" fill="white"/>
<path d="M169.319 116.838H152.661V130.488H169.319V116.838Z" fill="white"/>
<path opacity="0.1" d="M169.319 116.838H165.049V130.488H169.319V116.838Z" fill="black"/>
<path d="M151.705 141.919H170.536V118.428H164.47L151.705 124.539V141.919Z" fill="#407BFF"/>
<path opacity="0.2" d="M170.536 118.428H164.47V141.919H170.536V118.428Z" fill="black"/>
<path opacity="0.7" d="M162.463 129.17H153.645V133.396H162.463V129.17Z" fill="white"/>
<path opacity="0.7" d="M162.463 134.808H153.645V135.414H162.463V134.808Z" fill="white"/>
<path opacity="0.7" d="M169.947 136.581H165.049V140.168H169.947V136.581Z" fill="white"/>
<path d="M140.006 231.107H143.415L149.531 145.9H145.01L140.006 231.107Z" fill="#263238"/>
<path opacity="0.1" d="M140.006 231.107H143.415L149.23 150.131L149.531 146.039H145.01L144.771 150.131L140.006 231.107Z" fill="white"/>
<path opacity="0.2" d="M144.771 149.931H149.231L149.531 146.039H145.011L144.771 149.931Z" fill="black"/>
<path d="M115.009 231.107H118.417L118.973 145.9H114.453L115.009 231.107Z" fill="#263238"/>
<path opacity="0.1" d="M114.447 146.039L114.542 159.783L115.003 231.107H118.411L118.878 159.783L118.967 146.039H114.447Z" fill="white"/>
<path opacity="0.2" d="M114.447 146.039L114.542 159.939H118.878L118.967 146.039H114.447Z" fill="black"/>
<path d="M78.8464 231.107H82.2547L88.3707 145.9H83.8504L78.8464 231.107Z" fill="#263238"/>
<path opacity="0.1" d="M78.8464 231.107H82.2547L88.076 150.131L88.3707 146.039H83.8504L83.6114 150.131L78.8464 231.107Z" fill="white"/>
<path opacity="0.2" d="M83.6113 149.931H88.076L88.3707 146.039H83.8504L83.6113 149.931Z" fill="black"/>
<path d="M178.971 231.107H182.379L177.37 145.9H172.849L178.971 231.107Z" fill="#263238"/>
<path opacity="0.1" d="M172.849 146.039L173.155 150.131L178.971 231.107H182.374L177.614 150.131L177.37 146.039H172.849Z" fill="white"/>
<path opacity="0.2" d="M177.37 146.039H172.849L173.155 149.931H177.614L177.37 146.039Z" fill="black"/>
<path d="M179.755 148.035H81.4763C81.3186 148.035 81.1624 148.004 81.0167 147.944C80.871 147.883 80.7386 147.795 80.6271 147.683C80.5156 147.572 80.4271 147.439 80.3667 147.294C80.3064 147.148 80.2753 146.992 80.2753 146.834V143.771H180.956V146.834C180.956 146.992 180.925 147.148 180.864 147.294C180.804 147.439 180.716 147.572 180.604 147.683C180.493 147.795 180.36 147.883 180.214 147.944C180.069 148.004 179.913 148.035 179.755 148.035Z" fill="#407BFF"/>
<path opacity="0.4" d="M179.755 148.035H81.4763C81.3186 148.035 81.1624 148.004 81.0167 147.944C80.871 147.883 80.7386 147.795 80.6271 147.683C80.5156 147.572 80.4271 147.439 80.3667 147.294C80.3064 147.148 80.2753 146.992 80.2753 146.834V143.771H180.956V146.834C180.956 146.992 180.925 147.148 180.864 147.294C180.804 147.439 180.716 147.572 180.604 147.683C180.493 147.795 180.36 147.883 180.214 147.944C180.069 148.004 179.913 148.035 179.755 148.035Z" fill="white"/>
<path opacity="0.2" d="M80.2753 145.9H180.956V143.765H80.2753V145.9Z" fill="black"/>
<path d="M78.1626 144.321H183.063C183.221 144.322 183.378 144.291 183.524 144.231C183.67 144.171 183.802 144.083 183.914 143.971C184.026 143.859 184.114 143.727 184.174 143.58C184.234 143.434 184.265 143.278 184.264 143.12C184.264 142.802 184.138 142.496 183.912 142.271C183.687 142.046 183.382 141.919 183.063 141.919H78.1626C77.8435 141.919 77.5375 142.045 77.3114 142.27C77.0853 142.496 76.9575 142.801 76.9561 143.12C76.9561 143.278 76.9873 143.435 77.048 143.581C77.1087 143.727 77.1977 143.86 77.3098 143.971C77.4219 144.083 77.5549 144.171 77.7013 144.231C77.8476 144.291 78.0044 144.322 78.1626 144.321Z" fill="#407BFF"/>
<path opacity="0.4" d="M78.1626 144.321H183.063C183.221 144.322 183.378 144.291 183.524 144.231C183.67 144.171 183.802 144.083 183.914 143.971C184.026 143.859 184.114 143.727 184.174 143.58C184.234 143.434 184.265 143.278 184.264 143.12C184.264 142.802 184.138 142.496 183.912 142.271C183.687 142.046 183.382 141.919 183.063 141.919H78.1626C77.8435 141.919 77.5375 142.045 77.3114 142.27C77.0853 142.496 76.9575 142.801 76.9561 143.12C76.9561 143.278 76.9873 143.435 77.048 143.581C77.1087 143.727 77.1977 143.86 77.3098 143.971C77.4219 144.083 77.5549 144.171 77.7013 144.231C77.8476 144.291 78.0044 144.322 78.1626 144.321Z" fill="white"/>
<path d="M160.523 141.908V140.029H161.785L160.523 139.295H161.468L160.206 138.472H159.011V137.527H160.401L159.011 136.976V134.925H160.401V133.585H161.785L160.401 133.118V132.161H161.39L160.579 131.355L159.878 130.649H138.394V131.611H136.976L138.555 132.322V133.118H135.659V134.597H134.374L135.659 135.241V136.893H136.57V137.682H138.394V140.029H137.371L138.211 140.868V141.919L160.523 141.908Z" fill="#407BFF"/>
<path opacity="0.7" d="M160.523 141.908V140.029H161.785L160.523 139.295H161.468L160.206 138.472H159.011V137.527H160.401L159.011 136.976V134.925H160.401V133.585H161.785L160.401 133.118V132.161H161.39L160.579 131.355L159.878 130.649H138.394V131.611H136.976L138.555 132.322V133.118H135.659V134.597H134.374L135.659 135.241V136.893H136.57V137.682H138.394V140.029H137.371L138.211 140.868V141.919L160.523 141.908Z" fill="white"/>
<path opacity="0.1" d="M160.523 141.908V140.029H161.785L160.523 139.295H161.468L160.206 138.472H159.011V137.527H160.401L159.011 136.976V134.925H160.401V133.585H161.785L160.401 133.118V132.161H161.39L160.578 131.355L159.878 130.649H148.563V131.611H147.145L148.719 132.322V133.118H145.822V134.597H144.538L145.822 135.241V136.893H146.734V137.682H148.563V140.029H147.54L148.374 140.868V141.919L160.523 141.908Z" fill="black"/>
<path opacity="0.1" d="M138.555 133.118H148.719L138.555 132.751V133.118Z" fill="black"/>
<path opacity="0.1" d="M138.394 137.682H148.563L148.608 138.394L138.394 137.682Z" fill="black"/>
<path opacity="0.1" d="M136.57 136.893H146.734L136.57 137.249V136.893Z" fill="black"/>
<path opacity="0.1" d="M138.394 140.029H148.563L138.394 139.656V140.029Z" fill="black"/>
<path opacity="0.1" d="M138.21 140.868H148.374V141.257L138.21 140.868Z" fill="black"/>
<path opacity="0.1" d="M135.658 134.597H145.822L135.658 134.274V134.597Z" fill="black"/>
<path opacity="0.1" d="M138.394 131.611H148.563L138.394 131.255V131.611Z" fill="black"/>
<path opacity="0.1" d="M160.4 132.161H150.087L160.4 132.478V132.161Z" fill="black"/>
<path opacity="0.1" d="M148.719 133.118H160.401L149.809 133.462L148.719 133.118Z" fill="black"/>
<path opacity="0.1" d="M145.822 134.597L160.401 134.925V134.597H145.822Z" fill="black"/>
<path opacity="0.1" d="M145.822 135.241H153.034L145.822 135.592V135.241Z" fill="black"/>
<path opacity="0.1" d="M159.01 136.976L148.563 136.893L159.01 136.659V136.976Z" fill="black"/>
<path opacity="0.1" d="M159.011 137.527H148.374L159.011 137.882V137.527Z" fill="black"/>
<path opacity="0.1" d="M160.523 139.295H148.719V139.656L160.523 139.295Z" fill="black"/>
<path opacity="0.1" d="M160.523 140.029H151.972L160.523 140.268V140.029Z" fill="black"/>
<path d="M133.168 139.484V141.269C133.168 141.724 132.612 141.913 132.172 141.913H96.5217C96.0658 141.913 95.5154 141.724 95.5154 141.269V139.484H133.168Z" fill="#263238"/>
<path opacity="0.4" d="M133.168 139.484V141.269C133.168 141.724 132.612 141.913 132.172 141.913H96.5217C96.0658 141.913 95.5154 141.724 95.5154 141.269V139.484H133.168Z" fill="white"/>
<path opacity="0.2" d="M133.168 139.484V141.269C133.168 141.724 132.612 141.913 132.172 141.913H108.659C108.203 141.913 107.658 141.724 107.658 141.269V139.484H133.168Z" fill="black"/>
<path d="M139.134 120.958L134.886 140.212C134.813 140.525 134.637 140.804 134.387 141.005C134.138 141.207 133.828 141.319 133.507 141.324H110.327C110.183 141.321 110.041 141.284 109.914 141.217C109.786 141.15 109.675 141.055 109.591 140.938C109.506 140.821 109.45 140.686 109.426 140.544C109.403 140.401 109.412 140.256 109.454 140.118L113.691 121.013C113.778 120.722 113.962 120.469 114.213 120.297C114.464 120.125 114.767 120.044 115.07 120.068H138.255C138.878 120.046 139.267 120.33 139.134 120.958Z" fill="#263238"/>
<path opacity="0.4" d="M139.134 120.958L134.886 140.212C134.813 140.525 134.637 140.804 134.387 141.005C134.138 141.207 133.828 141.319 133.507 141.324H111.111C110.967 141.321 110.825 141.284 110.698 141.217C110.57 141.15 110.459 141.055 110.375 140.938C110.29 140.821 110.234 140.686 110.21 140.544C110.187 140.401 110.196 140.256 110.238 140.118L114.48 121.013C114.566 120.721 114.751 120.468 115.002 120.296C115.253 120.123 115.556 120.043 115.859 120.068H138.255C138.878 120.046 139.267 120.33 139.134 120.958Z" fill="white"/>
<path opacity="0.2" d="M127.702 130.743C127.702 132.411 125.934 133.729 124.639 133.729C123.343 133.729 122.576 132.389 122.971 130.743C123.365 129.098 124.639 127.813 125.895 127.763C125.528 129.431 126.318 130.743 127.608 130.743H127.702Z" fill="black"/>
</svg>
