<svg width="28" height="31" viewBox="0 0 28 31" fill="none" xmlns="http://www.w3.org/2000/svg">
<path id="Union" fill-rule="evenodd" clip-rule="evenodd" d="M5.5 0C2.46244 0 0 2.38548 0 5.32812V25.6719C0 28.6145 2.46243 31 5.5 31H22.5C25.5376 31 28 28.6145 28 25.6719V5.32813C28 2.38548 25.5376 0 22.5 0H5.5ZM3 5.32812C3 3.99056 4.11929 2.90625 5.5 2.90625H22.5C23.8807 2.90625 25 3.99056 25 5.32813V25.6719C25 27.0094 23.8807 28.0937 22.5 28.0937H5.5C4.11929 28.0937 3 27.0094 3 25.6719V5.32812ZM9 8.71875C9 9.52129 8.32843 10.1719 7.5 10.1719C6.67157 10.1719 6 9.52129 6 8.71875C6 7.91621 6.67157 7.26562 7.5 7.26562C8.32843 7.26562 9 7.91621 9 8.71875ZM10.5 8.71875C10.5 7.91621 11.1716 7.26562 12 7.26562H20.5C21.3284 7.26562 22 7.91621 22 8.71875C22 9.52129 21.3284 10.1719 20.5 10.1719H12C11.1716 10.1719 10.5 9.52129 10.5 8.71875ZM7.5 23.7344C8.32843 23.7344 9 23.0838 9 22.2812C9 21.4787 8.32843 20.8281 7.5 20.8281C6.67157 20.8281 6 21.4787 6 22.2812C6 23.0838 6.67157 23.7344 7.5 23.7344ZM12 20.8281C11.1716 20.8281 10.5 21.4787 10.5 22.2812C10.5 23.0838 11.1716 23.7344 12 23.7344H20.5C21.3284 23.7344 22 23.0838 22 22.2812C22 21.4787 21.3284 20.8281 20.5 20.8281H12ZM9 15.5C9 16.3025 8.32843 16.9531 7.5 16.9531C6.67157 16.9531 6 16.3025 6 15.5C6 14.6975 6.67157 14.0469 7.5 14.0469C8.32843 14.0469 9 14.6975 9 15.5ZM10.5 15.5C10.5 14.6975 11.1716 14.0469 12 14.0469H20.5C21.3284 14.0469 22 14.6975 22 15.5C22 16.3025 21.3284 16.9531 20.5 16.9531H12C11.1716 16.9531 10.5 16.3025 10.5 15.5Z" fill="white"/>
</svg>
