<svg width="20" height="25" viewBox="0 0 20 25" fill="none" xmlns="http://www.w3.org/2000/svg">
<path id="Vector (Stroke)" fill-rule="evenodd" clip-rule="evenodd" d="M10 2.08334C5.73677 2.08334 2.14286 5.73737 2.14286 10.4167C2.14286 12.7532 3.17823 15.1474 4.60475 17.3178C6.02249 19.4749 7.76296 21.3151 9.02847 22.5216C9.58097 23.0483 10.419 23.0483 10.9715 22.5216C12.237 21.3151 13.9775 19.4749 15.3953 17.3178C16.8218 15.1474 17.8571 12.7532 17.8571 10.4167C17.8571 5.73737 14.2632 2.08334 10 2.08334ZM0 10.4167C8.51495e-08 4.74065 4.401 0 10 0C15.599 0 20 4.74065 20 10.4167C20 13.3209 18.7292 16.1143 17.2009 18.4396C15.6639 20.7782 13.8009 22.742 12.4719 24.0091C11.086 25.3303 8.91396 25.3303 7.52814 24.0091C6.19908 22.742 4.33611 20.7782 2.79905 18.4396C1.27078 16.1143 0 13.3209 0 10.4167ZM10 7.6448C8.81653 7.6448 7.85714 8.57754 7.85714 9.72814C7.85714 10.8787 8.81653 11.8115 10 11.8115C11.1835 11.8115 12.1429 10.8787 12.1429 9.72814C12.1429 8.57754 11.1835 7.6448 10 7.6448ZM5.71429 9.72814C5.71429 7.42695 7.63307 5.56146 10 5.56146C12.3669 5.56146 14.2857 7.42695 14.2857 9.72814C14.2857 12.0293 12.3669 13.8948 10 13.8948C7.63307 13.8948 5.71429 12.0293 5.71429 9.72814Z" fill="#495057"/>
</svg>
