<svg width="67" height="41" viewBox="0 0 67 41" fill="none" xmlns="http://www.w3.org/2000/svg" >
<g id="Mastercard" >
<path id="Left" fill-rule="evenodd" clip-rule="evenodd" d="M33.3181 36.1034C29.806 39.1343 25.2501 40.9639 20.2718 40.9639C9.16364 40.9639 0.158691 31.8545 0.158691 20.6173C0.158691 9.38023 9.16364 0.270752 20.2718 0.270752C25.2501 0.270752 29.806 2.10044 33.3182 5.13133C36.8304 2.10047 41.3862 0.270797 46.3645 0.270797C57.4727 0.270797 66.4777 9.38028 66.4777 20.6174C66.4777 31.8545 57.4727 40.964 46.3645 40.964C41.3862 40.964 36.8303 39.1343 33.3181 36.1034Z" fill="#ED0006"/>
<path id="Right" fill-rule="evenodd" clip-rule="evenodd" d="M33.3182 36.1034C37.6428 32.3715 40.385 26.8184 40.385 20.6173C40.385 14.4163 37.6428 8.86324 33.3182 5.1313C36.8304 2.10043 41.3863 0.270752 46.3646 0.270752C57.4728 0.270752 66.4777 9.38023 66.4777 20.6173C66.4777 31.8545 57.4728 40.9639 46.3646 40.9639C41.3863 40.9639 36.8304 39.1343 33.3182 36.1034Z" fill="#F9A000"/>
<path id="Middle" fill-rule="evenodd" clip-rule="evenodd" d="M33.3182 36.1034C37.6428 32.3715 40.385 26.8184 40.385 20.6174C40.385 14.4164 37.6428 8.86329 33.3182 5.13135C28.9936 8.86329 26.2515 14.4164 26.2515 20.6174C26.2515 26.8184 28.9936 32.3715 33.3182 36.1034Z" fill="#FF5E00"/>
</g>
</svg>
