<svg width="32" height="31" viewBox="0 0 32 31" fill="none" xmlns="http://www.w3.org/2000/svg">
<path id="Vector (Stroke)" fill-rule="evenodd" clip-rule="evenodd" d="M0.235352 8.18056C0.235352 3.66256 3.89791 0 8.41591 0H23.0548C27.5728 0 31.2354 3.66256 31.2354 8.18056V22.8194C31.2354 27.3374 27.5728 31 23.0548 31H8.41591C3.89791 31 0.235352 27.3374 0.235352 22.8194V8.18056ZM8.41591 2.58333C5.32465 2.58333 2.81868 5.0893 2.81868 8.18056V22.8194C2.81868 25.9107 5.32465 28.4167 8.41591 28.4167H23.0548C26.1461 28.4167 28.652 25.9107 28.652 22.8194V8.18056C28.652 5.0893 26.1461 2.58333 23.0548 2.58333H8.41591ZM15.7354 8.61111C16.4487 8.61111 17.027 9.18941 17.027 9.90278V14.2083H21.3326C22.0459 14.2083 22.6242 14.7866 22.6242 15.5C22.6242 16.2134 22.0459 16.7917 21.3326 16.7917H17.027V21.0972C17.027 21.8106 16.4487 22.3889 15.7354 22.3889C15.022 22.3889 14.4437 21.8106 14.4437 21.0972V16.7917H10.1381C9.42476 16.7917 8.84646 16.2134 8.84646 15.5C8.84646 14.7866 9.42476 14.2083 10.1381 14.2083H14.4437V9.90278C14.4437 9.18941 15.022 8.61111 15.7354 8.61111Z" fill="white"/>
</svg>
