<svg width="60" height="52" viewBox="0 0 60 52" fill="none" xmlns="http://www.w3.org/2000/svg" >
<g id="PayPal" >
<path id="Vector" fill-rule="evenodd" clip-rule="evenodd" d="M7.39374 35.923H2.80855C2.49478 35.923 2.22793 36.151 2.179 36.4607L0.324512 48.2185C0.287653 48.4505 0.467329 48.6596 0.702664 48.6596H2.89167C3.20545 48.6596 3.4723 48.4316 3.52123 48.1213L4.02141 44.9501C4.06965 44.6395 4.33717 44.4118 4.65028 44.4118H6.10179C9.12222 44.4118 10.8653 42.9502 11.3208 40.0538C11.5258 38.7867 11.3294 37.7911 10.7359 37.0936C10.0844 36.3282 8.9283 35.923 7.39374 35.923ZM7.92274 40.2173C7.67204 41.8627 6.41491 41.8627 5.19939 41.8627H4.50747L4.99288 38.7898C5.0217 38.6043 5.1826 38.4675 5.37035 38.4675H5.68747C6.51547 38.4675 7.29663 38.4675 7.70028 38.9394C7.94073 39.2211 8.01458 39.6393 7.92274 40.2173ZM21.1 40.1646H18.9042C18.7172 40.1646 18.5555 40.3014 18.5267 40.4873L18.4295 41.1013L18.276 40.8788C17.8006 40.1888 16.7408 39.9583 15.6828 39.9583C13.2562 39.9583 11.1839 41.796 10.7803 44.374C10.5705 45.6597 10.8687 46.8893 11.5981 47.7468C12.2674 48.5352 13.2248 48.8638 14.3638 48.8638C16.3188 48.8638 17.4032 47.6066 17.4032 47.6066L17.3051 48.2169C17.2682 48.4502 17.4479 48.6593 17.6818 48.6593H19.6597C19.9743 48.6593 20.2396 48.4313 20.2893 48.121L21.476 40.6058C21.5136 40.3747 21.3345 40.1646 21.1 40.1646ZM18.0392 44.4382C17.8273 45.6926 16.8317 46.5346 15.5621 46.5346C14.9245 46.5346 14.4147 46.3302 14.0877 45.9427C13.7632 45.5579 13.6397 45.01 13.743 44.4C13.9409 43.1562 14.9533 42.2868 16.2037 42.2868C16.827 42.2868 17.334 42.4938 17.6678 42.8847C18.0023 43.2797 18.1351 43.8307 18.0392 44.4382ZM30.5876 40.1643H32.7942C33.1032 40.1643 33.2835 40.5109 33.1078 40.7643L25.7692 51.3574C25.6503 51.529 25.4546 51.631 25.2454 51.631H23.0416C22.7314 51.631 22.5502 51.2817 22.7298 51.0276L25.0149 47.8021L22.5846 40.6697C22.5005 40.4218 22.6836 40.1643 22.9473 40.1643H25.1154C25.3972 40.1643 25.6457 40.3492 25.727 40.6188L27.0167 44.9265L30.0601 40.4438C30.1793 40.2688 30.3772 40.1643 30.5876 40.1643Z" fill="#253B80" />
<path id="Vector_2" fill-rule="evenodd" clip-rule="evenodd" d="M54.5109 48.2185L56.3926 36.2457C56.4215 36.0598 56.5825 35.923 56.7696 35.9224H58.8881C59.122 35.9224 59.3017 36.1321 59.2648 36.3642L57.4091 48.1213C57.3607 48.4316 57.0938 48.6597 56.7795 48.6597H54.8876C54.6536 48.6597 54.474 48.4505 54.5109 48.2185ZM40.0994 35.923H35.5134C35.2003 35.923 34.9335 36.151 34.8845 36.4607L33.03 48.2185C32.9931 48.4505 33.1728 48.6597 33.407 48.6597H35.7601C35.9788 48.6597 36.1659 48.5002 36.2 48.283L36.7262 44.9501C36.7746 44.6396 37.0421 44.4118 37.3551 44.4118H38.8059C41.827 44.4118 43.5697 42.9502 44.0255 40.0538C44.2312 38.7867 44.0336 37.7911 43.4403 37.0936C42.7891 36.3282 41.634 35.923 40.0994 35.923ZM40.6284 40.2174C40.3783 41.8627 39.1211 41.8627 37.9049 41.8627H37.2136L37.6998 38.7898C37.7287 38.6043 37.8882 38.4675 38.0765 38.4675H38.3936C39.2211 38.4675 40.0029 38.4675 40.4063 38.9394C40.647 39.2211 40.7203 39.6393 40.6284 40.2174ZM53.8044 40.1646H51.6102C51.4216 40.1646 51.2615 40.3014 51.2333 40.4873L51.1361 41.1013L50.9819 40.8788C50.5066 40.1888 49.4474 39.9583 48.3894 39.9583C45.9628 39.9583 43.8912 41.796 43.4875 44.374C43.2784 45.6597 43.5753 46.8893 44.3047 47.7469C44.9752 48.5352 45.9315 48.8638 47.0704 48.8638C49.0254 48.8638 50.1095 47.6066 50.1095 47.6066L50.0117 48.2169C49.9748 48.4502 50.1545 48.6593 50.39 48.6593H52.367C52.68 48.6593 52.9468 48.4313 52.9959 48.121L54.1833 40.6058C54.2196 40.3747 54.0399 40.1646 53.8044 40.1646ZM50.744 44.4382C50.5333 45.6926 49.5364 46.5347 48.2665 46.5347C47.6302 46.5347 47.1195 46.3302 46.7921 45.9427C46.4676 45.5579 46.3457 45.01 46.4477 44.4C46.6466 43.1562 47.6578 42.2868 48.9081 42.2868C49.5318 42.2868 50.0384 42.4938 50.3726 42.8847C50.7083 43.2797 50.8411 43.8307 50.744 44.4382Z" fill="#179BD7"/>
<path id="Vector_3" d="M24.3625 31.7168L24.9262 28.1363L23.6706 28.1071H17.6747L21.8416 1.6862C21.8543 1.60643 21.8965 1.53206 21.9579 1.47925C22.0194 1.42644 22.0982 1.39734 22.1801 1.39734H32.2901C35.6465 1.39734 37.9626 2.09578 39.172 3.47431C39.7389 4.12103 40.1 4.79681 40.2747 5.54052C40.4578 6.3209 40.4612 7.25321 40.2822 8.39033L40.2691 8.47333V9.20192L40.8363 9.52314C41.3138 9.77641 41.6929 10.0663 41.984 10.3983C42.4692 10.9513 42.7829 11.654 42.9154 12.4872C43.0522 13.344 43.0069 14.3637 42.7829 15.518C42.5241 16.8459 42.1059 18.0025 41.5412 18.9488C41.0215 19.8208 40.3597 20.5438 39.5742 21.1045C38.8239 21.6369 37.9325 22.0412 36.9248 22.2999C35.9481 22.554 34.8349 22.6825 33.6137 22.6825H32.8268C32.2643 22.6825 31.7176 22.8851 31.2888 23.2484C30.8588 23.6192 30.574 24.1255 30.4868 24.6797L30.4276 25.002L29.4316 31.3125L29.3863 31.5443C29.3745 31.6178 29.354 31.6544 29.3239 31.6792C29.2969 31.7016 29.2582 31.7168 29.2203 31.7168H24.3625Z" fill="#253B80"/>
<path id="Vector_4" d="M41.3732 8.55737C41.3431 8.7503 41.3086 8.94753 41.2699 9.15016C39.9363 15.9955 35.3751 18.3603 29.5493 18.3603H26.5832C25.8708 18.3603 25.2704 18.8776 25.1594 19.5804L23.6406 29.212L23.2106 31.942C23.1383 32.4034 23.4942 32.8194 23.9596 32.8194H29.2207C29.8437 32.8194 30.3727 32.3668 30.4708 31.7524L30.5226 31.485L31.5133 25.199L31.5769 24.8543C31.6737 24.2378 32.2039 23.7852 32.8269 23.7852H33.6138C38.7108 23.7852 42.7011 21.7157 43.8674 15.7271C44.3545 13.2255 44.1023 11.1366 42.8131 9.66753C42.4231 9.22454 41.9391 8.857 41.3732 8.55737Z" fill="#179BD7"/>
<path id="Vector_5" d="M39.9779 8.00175C39.7744 7.94245 39.564 7.88856 39.3484 7.84007C39.1318 7.79266 38.9097 7.75062 38.6813 7.71398C37.8815 7.58463 37.0053 7.52319 36.0664 7.52319H28.1423C27.9471 7.52319 27.7619 7.56737 27.5959 7.64714C27.2304 7.82282 26.9589 8.16882 26.8931 8.5924L25.2072 19.2694L25.1588 19.5809C25.2698 18.8782 25.8702 18.3608 26.5826 18.3608H29.5487C35.3745 18.3608 39.936 15.995 41.2692 9.15072C41.309 8.94808 41.3425 8.75085 41.3726 8.55793C41.0353 8.379 40.6698 8.22594 40.2764 8.09551C40.1796 8.06318 40.0794 8.03193 39.9779 8.00175Z" fill="#222D65"/>
<path id="Vector_6" d="M26.893 8.59219C26.9588 8.16859 27.2306 7.82261 27.5958 7.64799C27.763 7.56822 27.9473 7.52404 28.1422 7.52404H36.0666C37.0055 7.52404 37.8817 7.58547 38.6812 7.71482C38.9099 7.75147 39.132 7.79351 39.3486 7.84091C39.5642 7.88944 39.7743 7.94333 39.9781 8.00259C40.0793 8.03278 40.1795 8.06403 40.2775 8.0953C40.671 8.22571 41.0365 8.37985 41.3737 8.55769C41.7705 6.02801 41.3706 4.30564 40.003 2.746C38.4951 1.02902 35.7734 0.293945 32.291 0.293945H22.1807C21.4693 0.293945 20.8627 0.81128 20.7526 1.51512L16.5417 28.2077C16.4585 28.7357 16.8659 29.2123 17.3983 29.2123H23.6402L25.2074 19.2692L26.893 8.59219Z" fill="#253B80"/>
</g>
</svg>
