<svg width="23" height="24" viewBox="0 0 23 24" fill="none" xmlns="http://www.w3.org/2000/svg">
<path id="Vector 163 (Stroke)" fill-rule="evenodd" clip-rule="evenodd" d="M11.5 0.293945C12.6909 0.293945 13.6562 1.25933 13.6562 2.4502V9.6377H20.8438C22.0346 9.6377 23 10.6031 23 11.7939C23 12.9848 22.0346 13.9502 20.8438 13.9502H13.6562V21.1377C13.6562 22.3286 12.6909 23.2939 11.5 23.2939C10.3091 23.2939 9.34375 22.3286 9.34375 21.1377V13.9502H2.15625C0.965386 13.9502 0 12.9848 0 11.7939C0 10.6031 0.965386 9.6377 2.15625 9.6377H9.34375V2.4502C9.34375 1.25933 10.3091 0.293945 11.5 0.293945Z" fill="white"/>
</svg>
