<svg width="41" height="42" viewBox="0 0 41 42" fill="none" xmlns="http://www.w3.org/2000/svg">
<path id="Vector (Stroke)" fill-rule="evenodd" clip-rule="evenodd" d="M20.25 3.91895C10.9302 3.91895 3.375 11.4741 3.375 20.7939C3.375 30.1138 10.9302 37.6689 20.25 37.6689C29.5698 37.6689 37.125 30.1138 37.125 20.7939C37.125 11.4741 29.5698 3.91895 20.25 3.91895ZM0 20.7939C0 9.61018 9.06623 0.543945 20.25 0.543945C31.4338 0.543945 40.5 9.61018 40.5 20.7939C40.5 31.9777 31.4338 41.0439 20.25 41.0439C9.06623 41.0439 0 31.9777 0 20.7939ZM20.25 11.7939C21.182 11.7939 21.9375 12.5495 21.9375 13.4814V19.1064H27.5625C28.4945 19.1064 29.25 19.862 29.25 20.7939C29.25 21.7259 28.4945 22.4814 27.5625 22.4814H21.9375V28.1064C21.9375 29.0384 21.182 29.7939 20.25 29.7939C19.318 29.7939 18.5625 29.0384 18.5625 28.1064V22.4814H12.9375C12.0055 22.4814 11.25 21.7259 11.25 20.7939C11.25 19.862 12.0055 19.1064 12.9375 19.1064H18.5625V13.4814C18.5625 12.5495 19.318 11.7939 20.25 11.7939Z" fill="white"/>
</svg>
