<svg width="25" height="25" viewBox="0 0 25 25" fill="none" xmlns="http://www.w3.org/2000/svg">
<path id="Vector 173 (Stroke)" fill-rule="evenodd" clip-rule="evenodd" d="M12.5 0C13.2397 0 13.8393 0.599619 13.8393 1.33929V11.1607H23.6607C24.4004 11.1607 25 11.7603 25 12.5C25 13.2397 24.4004 13.8393 23.6607 13.8393H13.8393V23.6607C13.8393 24.4004 13.2397 25 12.5 25C11.7603 25 11.1607 24.4004 11.1607 23.6607V13.8393H1.33929C0.599619 13.8393 0 13.2397 0 12.5C0 11.7603 0.599619 11.1607 1.33929 11.1607H11.1607V1.33929C11.1607 0.599619 11.7603 0 12.5 0Z" fill="white"/>
</svg>
