<svg width="27" height="31" viewBox="0 0 27 31" fill="none" xmlns="http://www.w3.org/2000/svg">
<path id="Vector (Stroke)" fill-rule="evenodd" clip-rule="evenodd" d="M4.59184 8.19562C4.59184 3.63401 8.35877 0 12.926 0H14.074C18.6412 0 22.4082 3.63401 22.4082 8.19563V9.31937C22.4082 12.2495 20.8539 14.7969 18.5316 16.2443C23.4168 17.7109 27 22.1671 27 27.4867C27 29.4623 25.3746 31 23.449 31H3.55102C1.62543 31 0 29.4623 0 27.4867C0 22.1671 3.58324 17.7109 8.4684 16.2443C6.14611 14.7969 4.59184 12.2495 4.59184 9.31937V8.19562ZM12.926 2.90625C9.88527 2.90625 7.48469 5.30968 7.48469 8.19562V9.31937C7.48469 12.2053 9.88527 14.6087 12.926 14.6087H14.074C17.1147 14.6087 19.5153 12.2053 19.5153 9.31937V8.19563C19.5153 5.30968 17.1147 2.90625 14.074 2.90625H12.926ZM11.9694 18.6387C6.92097 18.6387 2.89286 22.6354 2.89286 27.4867C2.89286 27.7867 3.15194 28.0938 3.55102 28.0938H23.449C23.8481 28.0938 24.1071 27.7867 24.1071 27.4867C24.1071 22.6354 20.079 18.6387 15.0306 18.6387H11.9694Z" fill="white"/>
</svg>
