<svg width="144" height="112" viewBox="0 0 144 112" fill="none" xmlns="http://www.w3.org/2000/svg">
<g id="Payment Method/Stripe" >
<rect id="BASE" x="21.7496" y="21.8799" width="100.517" height="68.0943" rx="14.5521" fill="white" stroke="#D9D9D9" stroke-width="2.64583"/>
<path id="Stripe" fill-rule="evenodd" clip-rule="evenodd" d="M75.8555 44.5553L70.6151 45.68V41.4312L75.8555 40.3274V44.5553ZM54.5597 42.7433L49.4654 43.8263L49.4445 60.5089C49.4445 63.5913 51.762 65.8614 54.852 65.8614C56.564 65.8614 57.8167 65.549 58.5057 65.1741V60.9462C57.8376 61.217 54.5388 62.175 54.5388 59.0926V51.699H58.5057V47.2628H54.5388L54.5597 42.7433ZM42.2209 51.4282C41.1144 51.4282 40.4463 51.7406 40.4463 52.5529C40.4463 53.4397 41.5961 53.8299 43.0226 54.3139C45.3481 55.1029 48.4088 56.1414 48.4218 59.9882C48.4218 63.7163 45.4362 65.8615 41.0935 65.8615C39.298 65.8615 37.3354 65.5074 35.3937 64.6743V59.7174C37.1475 60.6755 39.3606 61.3836 41.0935 61.3836C42.2627 61.3836 43.0978 61.0712 43.0978 60.1132C43.0978 59.1308 41.8514 58.6818 40.3466 58.1397C38.0549 57.3141 35.1641 56.2727 35.1641 52.8028C35.1641 49.1164 37.9826 46.9087 42.2209 46.9087C43.9538 46.9087 45.6658 47.1795 47.3987 47.8668V52.7612C45.812 51.9072 43.8077 51.4282 42.2209 51.4282ZM64.9992 48.8041L64.6651 47.2629H60.1554V65.4867H65.375V53.1361C66.6068 51.5324 68.6946 51.824 69.3419 52.0531V47.2629C68.6738 47.0129 66.231 46.5547 64.9992 48.8041ZM70.6147 47.263H75.8552V65.4868H70.6147V47.263ZM110.325 56.4476C110.325 51.1158 107.736 46.9087 102.788 46.9087C97.8193 46.9087 94.8129 51.1158 94.8129 56.4059C94.8129 62.6749 98.3622 65.8406 103.456 65.8406C105.941 65.8406 107.82 65.2783 109.24 64.4869V60.3214C107.82 61.0295 106.191 61.4669 104.125 61.4669C102.099 61.4669 100.304 60.7588 100.074 58.3012H110.284C110.284 58.1865 110.291 57.9263 110.3 57.6264L110.3 57.6252C110.312 57.2169 110.325 56.7355 110.325 56.4476ZM100.012 54.4688C100.012 52.1153 101.452 51.1364 102.768 51.1364C104.041 51.1364 105.398 52.1153 105.398 54.4688H100.012ZM82.6614 48.5332C83.3922 47.8668 84.7075 46.9087 86.7536 46.9087C90.4073 46.9087 93.8522 50.1994 93.873 56.2393C93.873 62.8415 90.4699 65.8406 86.7327 65.8406C84.8954 65.8406 83.7888 65.07 83.0372 64.5285L83.0164 70.4226L77.7968 71.5265V47.2419H82.39L82.6614 48.5332ZM83.0373 60.2798C83.5384 60.8213 84.2691 61.2587 85.5009 61.2587C87.4217 61.2587 88.7162 59.176 88.7162 56.3851C88.7162 53.6568 87.4008 51.5324 85.5009 51.5324C84.3109 51.5324 83.5592 51.9489 83.0164 52.5529L83.0373 60.2798Z" fill="#6461FC"/>
</g>
<defs>
<filter id="filter0_d_949_498" x="0.426636" y="0.557007" width="143.163" height="110.74" filterUnits="userSpaceOnUse" color-interpolation-filters="sRGB">
<feFlood flood-opacity="0" result="BackgroundImageFix"/>
<feColorMatrix in="SourceAlpha" type="matrix" values="0 0 0 0 0 0 0 0 0 0 0 0 0 0 0 0 0 0 127 0" result="hardAlpha"/>
<feOffset/>
<feGaussianBlur stdDeviation="10"/>
<feComposite in2="hardAlpha" operator="out"/>
<feColorMatrix type="matrix" values="0 0 0 0 0 0 0 0 0 0 0 0 0 0 0 0 0 0 0.07 0"/>
<feBlend mode="normal" in2="BackgroundImageFix" result="effect1_dropShadow_949_498"/>
<feBlend mode="normal" in="SourceGraphic" in2="effect1_dropShadow_949_498" result="shape"/>
</filter>
</defs>
</svg>
