<svg width="36" height="28" viewBox="0 0 36 28" fill="none" xmlns="http://www.w3.org/2000/svg">
<path id="Vector (Stroke)" fill-rule="evenodd" clip-rule="evenodd" d="M0 5.5C0 2.6284 2.11207 0 5.06757 0H30.9324C33.8879 0 36 2.6284 36 5.5V9.5C36 10.3284 35.3284 11 34.5 11C33.2686 11 31.9865 12.1772 31.9865 14C31.9865 15.8228 33.2686 17 34.5 17C35.3284 17 36 17.6716 36 18.5V22.5C36 25.3716 33.8879 28 30.9324 28H5.06757C2.11207 28 0 25.3716 0 22.5V18.5C0 17.6716 0.671573 17 1.5 17C2.73142 17 4.01351 15.8228 4.01351 14C4.01351 12.1772 2.73142 11 1.5 11C0.671573 11 0 10.3284 0 9.5V5.5ZM5.06757 3C4.08244 3 3 3.95332 3 5.5V8.21971C5.39912 8.94538 7.01351 11.3695 7.01351 14C7.01351 16.6305 5.39912 19.0546 3 19.7803V22.5C3 24.0467 4.08244 25 5.06757 25H30.9324C31.9176 25 33 24.0467 33 22.5V19.7803C30.6009 19.0546 28.9865 16.6305 28.9865 14C28.9865 11.3695 30.6009 8.94538 33 8.21971V5.5C33 3.95332 31.9176 3 30.9324 3H5.06757ZM10.7027 9.5C10.7027 8.67157 11.3743 8 12.2027 8H23.7973C24.6257 8 25.2973 8.67157 25.2973 9.5V18.5C25.2973 19.3284 24.6257 20 23.7973 20H12.2027C11.3743 20 10.7027 19.3284 10.7027 18.5V9.5ZM13.7027 11V17H22.2973V11H13.7027Z" fill="white"/>
</svg>
