<svg width="32" height="32" viewBox="0 0 32 32" fill="none" xmlns="http://www.w3.org/2000/svg">
<path id="Vector (Stroke)" fill-rule="evenodd" clip-rule="evenodd" d="M16 2.66667C8.6362 2.66667 2.66667 8.6362 2.66667 16C2.66667 23.3638 8.6362 29.3333 16 29.3333C23.3638 29.3333 29.3333 23.3638 29.3333 16C29.3333 8.6362 23.3638 2.66667 16 2.66667ZM0 16C0 7.16344 7.16344 0 16 0C24.8366 0 32 7.16344 32 16C32 24.8366 24.8366 32 16 32C7.16344 32 0 24.8366 0 16ZM16 6.66667C16.7364 6.66667 17.3333 7.26362 17.3333 8V14.6667H24C24.7364 14.6667 25.3333 15.2636 25.3333 16C25.3333 16.7364 24.7364 17.3333 24 17.3333H16C15.2636 17.3333 14.6667 16.7364 14.6667 16V8C14.6667 7.26362 15.2636 6.66667 16 6.66667Z" fill="#495057"/>
</svg>
