<svg width="55" height="44" viewBox="0 0 55 44" fill="none" xmlns="http://www.w3.org/2000/svg">
<path id="Vector (Stroke)" fill-rule="evenodd" clip-rule="evenodd" d="M5.5 16.5C5.5 7.3873 12.8873 0 22 0C28.1921 0 33.5837 3.41052 36.4056 8.44954C37.0846 8.3185 37.785 8.25 38.5 8.25C44.5751 8.25 49.5 13.1749 49.5 19.25C49.5 20.359 49.3353 21.4317 49.0287 22.4436C52.6109 24.4048 55 28.2057 55 32.5183C55 38.8595 49.8595 44 43.5183 44H13.1201C5.87405 44 0 38.1259 0 30.8799C0 26.2818 2.35178 22.2857 5.86161 19.9497C5.62452 18.8358 5.5 17.6815 5.5 16.5ZM22 4.125C15.1655 4.125 9.625 9.66548 9.625 16.5C9.625 17.8329 9.83499 19.1127 10.2222 20.3104C10.5374 21.2858 10.0886 22.3447 9.16844 22.7963C6.1948 24.2559 4.125 27.306 4.125 30.8799C4.125 35.8478 8.15223 39.875 13.1201 39.875H43.5183C47.5813 39.875 50.875 36.5813 50.875 32.5183C50.875 29.2557 48.7388 26.4453 45.7288 25.5002C45.1396 25.3152 44.6644 24.876 44.4336 24.3033C44.2028 23.7305 44.2408 23.0845 44.5371 22.5427C45.0708 21.5669 45.375 20.4471 45.375 19.25C45.375 15.453 42.297 12.375 38.5 12.375C37.6319 12.375 36.806 12.5349 36.0468 12.825C35.0081 13.2219 33.8417 12.724 33.4099 11.6992C31.5332 7.24532 27.1286 4.125 22 4.125ZM26.0416 14.3541C26.847 13.5486 28.153 13.5486 28.9584 14.3541L37.8959 23.2916C38.7014 24.097 38.7014 25.4029 37.8959 26.2084C37.0905 27.0139 35.7846 27.0139 34.9791 26.2084L29.5625 20.7918V33.6909C29.5625 34.83 28.6391 35.7534 27.5 35.7534C26.3609 35.7534 25.4375 34.83 25.4375 33.6909V20.7918L20.0209 26.2084C19.2155 27.0139 17.9095 27.0139 17.1041 26.2084C16.2986 25.4029 16.2986 24.097 17.1041 23.2916L26.0416 14.3541Z" fill="#495057"/>
</svg>
