<svg width="144" height="112" viewBox="0 0 144 112" fill="none" xmlns="http://www.w3.org/2000/svg">
<g id="Payment Method/Visa" >
<rect id="BASE" x="21.6429" y="21.8799" width="100.517" height="68.0943" rx="14.5521" fill="white" stroke="#D9D9D9" stroke-width="2.64583"/>
<path id="visa-logo" fill-rule="evenodd" clip-rule="evenodd" d="M51.6379 68.4782H45.3882L40.7017 50.599C40.4793 49.7765 40.007 49.0494 39.3122 48.7068C37.5784 47.8456 35.6679 47.1602 33.5836 46.8145V46.1262H43.6513C45.0408 46.1262 46.0829 47.1602 46.2566 48.3611L48.6882 61.258L54.9349 46.1262H61.0108L51.6379 68.4782ZM64.4847 68.4782H58.5824L63.4426 46.1262H69.3449L64.4847 68.4782ZM76.981 52.3184C77.1547 51.1145 78.1968 50.4262 79.4126 50.4262C81.3231 50.2534 83.4043 50.599 85.1412 51.4572L86.1833 46.6447C84.4464 45.9564 82.5359 45.6107 80.8021 45.6107C75.0735 45.6107 70.905 48.7068 70.905 53.0038C70.905 56.2727 73.8577 57.9891 75.9419 59.0231C78.1968 60.0541 79.0652 60.7425 78.8915 61.7735C78.8915 63.3201 77.1547 64.0084 75.4208 64.0084C73.3366 64.0084 71.2524 63.4929 69.3449 62.6317L68.3027 67.4472C70.387 68.3054 72.6419 68.6511 74.7261 68.6511C81.1494 68.8209 85.1412 65.7278 85.1412 61.0852C85.1412 55.2387 76.981 54.896 76.981 52.3184ZM105.798 68.4782L101.111 46.1262H96.0773C95.0351 46.1262 93.993 46.8145 93.6457 47.8456L84.9674 68.4782H91.0434L92.2562 65.2122H99.7216L100.416 68.4782H105.798ZM96.9456 52.1455L98.6795 60.5696H93.8193L96.9456 52.1455Z" fill="#172B85"/>
</g>
<defs>
<filter id="filter0_d_949_499" x="0.319946" y="0.557007" width="143.163" height="110.74" filterUnits="userSpaceOnUse" color-interpolation-filters="sRGB">
<feFlood flood-opacity="0" result="BackgroundImageFix"/>
<feColorMatrix in="SourceAlpha" type="matrix" values="0 0 0 0 0 0 0 0 0 0 0 0 0 0 0 0 0 0 127 0" result="hardAlpha"/>
<feOffset/>
<feGaussianBlur stdDeviation="10"/>
<feComposite in2="hardAlpha" operator="out"/>
<feColorMatrix type="matrix" values="0 0 0 0 0 0 0 0 0 0 0 0 0 0 0 0 0 0 0.07 0"/>
<feBlend mode="normal" in2="BackgroundImageFix" result="effect1_dropShadow_949_499"/>
<feBlend mode="normal" in="SourceGraphic" in2="effect1_dropShadow_949_499" result="shape"/>
</filter>
</defs>
</svg>
